<svg width="24" height="25" viewBox="0 0 24 25" fill="none" xmlns="http://www.w3.org/2000/svg">
<path d="M12.2856 0.714233C5.82606 0.714233 0.571289 5.969 0.571289 12.4285C0.571289 18.888 5.82606 24.1428 12.2856 24.1428C18.7451 24.1428 23.9999 18.888 23.9999 12.4285C23.9999 5.969 18.7451 0.714233 12.2856 0.714233Z" fill="#DF1C26"/>
<path d="M17.4105 13.4047H13.2616V17.5535C13.2616 18.0924 12.8244 18.5297 12.2855 18.5297C11.7465 18.5297 11.3093 18.0924 11.3093 17.5535V13.4047H7.16046C6.62154 13.4047 6.18433 12.9674 6.18433 12.4285C6.18433 11.8896 6.62154 11.4524 7.16046 11.4524H11.3093V7.30352C11.3093 6.7646 11.7465 6.32739 12.2855 6.32739C12.8244 6.32739 13.2616 6.7646 13.2616 7.30352V11.4524H17.4105C17.9494 11.4524 18.3866 11.8896 18.3866 12.4285C18.3866 12.9674 17.9494 13.4047 17.4105 13.4047Z" fill="#EEEEEE"/>
</svg>
