<svg width="39" height="17" viewBox="0 0 39 17" fill="none" xmlns="http://www.w3.org/2000/svg">
<path d="M7.12018 2.5628C6.66347 3.10324 5.93274 3.5295 5.20201 3.4686C5.11066 2.73787 5.46842 1.96147 5.88707 1.48192C6.34378 0.926261 7.14301 0.530447 7.79002 0.5C7.86614 1.26118 7.56928 2.00714 7.12018 2.5628ZM7.78241 3.61323C6.72437 3.55233 5.81856 4.21456 5.31618 4.21456C4.80619 4.21456 4.0374 3.64367 3.2001 3.6589C2.11162 3.67412 1.09925 4.29068 0.543585 5.2726C-0.598185 7.23644 0.246725 10.1441 1.35044 11.7426C1.89087 12.5343 2.53788 13.402 3.3904 13.3716C4.19725 13.3411 4.51694 12.8463 5.49125 12.8463C6.47318 12.8463 6.75481 13.3716 7.60733 13.3563C8.4903 13.3411 9.04596 12.5647 9.5864 11.7731C10.203 10.8749 10.4541 9.99952 10.4694 9.95385C10.4541 9.93863 8.76433 9.29163 8.7491 7.34301C8.73388 5.71408 10.0812 4.93768 10.1421 4.89201C9.38088 3.76546 8.19344 3.64367 7.78241 3.61323ZM13.8947 1.4058V13.2726H15.7367V9.21551H18.2867C20.6159 9.21551 22.2524 7.61703 22.2524 5.30304C22.2524 2.98906 20.6463 1.4058 18.3476 1.4058H13.8947ZM15.7367 2.95861H17.8604C19.4589 2.95861 20.3723 3.81113 20.3723 5.31066C20.3723 6.81018 19.4589 7.67031 17.8528 7.67031H15.7367V2.95861ZM25.6168 13.3639C26.7738 13.3639 27.8471 12.7778 28.3343 11.8492H28.3723V13.2726H30.0774V7.36584C30.0774 5.65319 28.7072 4.54948 26.5988 4.54948C24.6425 4.54948 23.1963 5.66841 23.143 7.20599H24.8024C24.9394 6.47526 25.6169 5.99572 26.5455 5.99572C27.672 5.99572 28.3038 6.52093 28.3038 7.48763V8.14225L26.0051 8.27926C23.8661 8.40866 22.7091 9.28401 22.7091 10.8064C22.7091 12.344 23.9042 13.3639 25.6168 13.3639ZM26.1116 11.9558C25.1297 11.9558 24.5055 11.4838 24.5055 10.7607C24.5055 10.0147 25.1069 9.58088 26.2562 9.51237L28.3038 9.38297V10.0528C28.3038 11.1641 27.36 11.9558 26.1116 11.9558ZM32.3533 16.5C34.1497 16.5 34.9946 15.8149 35.7329 13.7369L38.9679 4.66365H37.0954L34.9261 11.6741H34.888L32.7187 4.66365H30.7929L33.9137 13.303L33.7463 13.8283C33.4646 14.7188 33.0079 15.0614 32.1934 15.0614C32.0488 15.0614 31.7672 15.0461 31.653 15.0309V16.4543C31.7596 16.4848 32.2163 16.5 32.3533 16.5Z" fill="black"/>
</svg>
