<svg width="20" height="16" viewBox="0 0 20 16" fill="none" xmlns="http://www.w3.org/2000/svg">
<path d="M19.6364 8.64732L13.3364 14.9473C13.1667 15.1113 12.9393 15.202 12.7033 15.1999C12.4674 15.1979 12.2416 15.1032 12.0748 14.9363C11.9079 14.7695 11.8132 14.5437 11.8112 14.3078C11.8091 14.0718 11.8999 13.8445 12.0638 13.6747L16.8275 8.91102L1.0001 8.91102C0.761403 8.91102 0.532484 8.8162 0.363702 8.64742C0.194919 8.47864 0.100098 8.24972 0.100098 8.01102C0.100098 7.77233 0.194919 7.54341 0.363702 7.37463C0.532484 7.20585 0.761403 7.11102 1.0001 7.11102L16.8275 7.11102L12.0638 2.34733C11.9778 2.26431 11.9093 2.165 11.8621 2.0552C11.8149 1.94539 11.7901 1.8273 11.7891 1.7078C11.788 1.58829 11.8108 1.46978 11.8561 1.35918C11.9013 1.24857 11.9681 1.14808 12.0526 1.06358C12.1371 0.979076 12.2376 0.912248 12.3482 0.866996C12.4588 0.821743 12.5774 0.798971 12.6969 0.80001C12.8164 0.801048 12.9345 0.825877 13.0443 0.873045C13.1541 0.920213 13.2534 0.988775 13.3364 1.07473L19.6364 7.37472C19.8051 7.5435 19.8999 7.77238 19.8999 8.01102C19.8999 8.24967 19.8051 8.47855 19.6364 8.64732Z" fill="#1F1F1F"/>
</svg>
