<svg width="20" height="20" viewBox="0 0 20 20" fill="none" xmlns="http://www.w3.org/2000/svg">
<path d="M13.8152 6.00426C13.6814 5.91352 13.4992 5.94828 13.4083 6.08215C13.3174 6.21605 13.3523 6.39824 13.4862 6.4891C15.4305 7.80859 16.5913 9.99727 16.5913 12.3438C16.5913 16.2423 13.4196 19.4141 9.52096 19.4141C5.62236 19.4141 2.45064 16.2423 2.45064 12.3438C2.45064 11.5271 2.58725 10.7329 2.85689 9.97559L3.79201 11.3377C3.84666 11.4173 3.93701 11.4648 4.03357 11.4648C4.13014 11.4648 4.22045 11.4173 4.27514 11.3377L6.20596 8.52523C6.50975 8.0843 6.67033 7.56766 6.67033 7.03125C6.67033 6.6557 6.59088 6.29852 6.44873 5.97488C7.40064 5.51566 8.4565 5.27344 9.52096 5.27344C9.85725 5.27344 10.1945 5.29738 10.5255 5.34437L11.6231 6.94316C11.6778 7.02273 11.7681 7.07031 11.8647 7.07031C11.9613 7.07031 12.0516 7.02273 12.1062 6.94316L14.0372 4.1307C14.3409 3.68977 14.5015 3.17313 14.5015 2.63672C14.5015 1.18281 13.3187 0 11.8647 0C10.4108 0 9.22803 1.18281 9.22803 2.63672C9.22803 3.17309 9.38857 3.68973 9.69209 4.13031L10.0892 4.70867C9.90018 4.6948 9.71045 4.6875 9.52104 4.6875C8.35377 4.6875 7.19561 4.95633 6.15416 5.46629C5.67346 4.81668 4.90205 4.39453 4.03369 4.39453C2.57979 4.39453 1.39697 5.57734 1.39697 7.03125C1.39697 7.56766 1.55752 8.0843 1.86104 8.52484L2.45553 9.39078C2.06361 10.3264 1.86471 11.3189 1.86471 12.3438C1.86471 16.5654 5.29928 20 9.52096 20C13.7426 20 17.1772 16.5654 17.1772 12.3438C17.1772 9.80285 15.9204 7.43293 13.8152 6.00426ZM11.8647 0.585938C12.9955 0.585938 13.9155 1.50594 13.9155 2.63672C13.9155 3.05391 13.7907 3.45559 13.5544 3.79867L11.8647 6.25973L10.9373 4.90887C10.9353 4.90582 10.9333 4.90277 10.9311 4.8998L10.1749 3.79828C9.93877 3.45555 9.81396 3.05383 9.81396 2.63672C9.81393 1.50594 10.7339 0.585938 11.8647 0.585938ZM1.98283 7.03125C1.98283 5.90047 2.90283 4.98047 4.03361 4.98047C5.16439 4.98047 6.08439 5.90047 6.08439 7.03125C6.08439 7.44844 5.95959 7.85008 5.72322 8.1932L4.03361 10.6543L2.34373 8.19281C2.10764 7.85008 1.98283 7.44844 1.98283 7.03125Z" fill="#DF1C26"/>
<path d="M5.49853 7.03125C5.49853 6.22352 4.84143 5.56641 4.03369 5.56641C3.22596 5.56641 2.56885 6.22352 2.56885 7.03125C2.56885 7.83898 3.22596 8.49609 4.03369 8.49609C4.84143 8.49609 5.49853 7.83898 5.49853 7.03125ZM3.15479 7.03125C3.15479 6.54664 3.54908 6.15234 4.03369 6.15234C4.5183 6.15234 4.9126 6.54664 4.9126 7.03125C4.9126 7.51586 4.5183 7.91016 4.03369 7.91016C3.54908 7.91016 3.15479 7.51586 3.15479 7.03125Z" fill="#DF1C26"/>
<path d="M7.17725 11.8241C6.36951 11.8241 5.7124 12.4812 5.7124 13.2889C5.7124 14.0967 6.36951 14.7538 7.17725 14.7538C7.98498 14.7538 8.64209 14.0967 8.64209 13.2889C8.64209 12.4812 7.98498 11.8241 7.17725 11.8241ZM7.17725 14.1678C6.69264 14.1678 6.29834 13.7735 6.29834 13.2889C6.29834 12.8043 6.69264 12.41 7.17725 12.41C7.66186 12.41 8.05615 12.8043 8.05615 13.2889C8.05615 13.7735 7.66189 14.1678 7.17725 14.1678Z" fill="#DF1C26"/>
<path d="M7.17725 10.6522C5.72334 10.6522 4.54053 11.835 4.54053 13.2889C4.54053 13.8253 4.70107 14.342 5.00459 14.7825L6.93572 17.5954C6.99037 17.675 7.08072 17.7225 7.17729 17.7225C7.27385 17.7225 7.36416 17.675 7.41881 17.5954L9.34971 14.7829C9.65346 14.342 9.81404 13.8254 9.81404 13.2889C9.81397 11.8351 8.63115 10.6522 7.17725 10.6522ZM8.86689 14.4509L7.17725 16.9119L5.48736 14.4505C5.25127 14.1078 5.12647 13.7061 5.12647 13.2889C5.12647 12.1582 6.04647 11.2382 7.17725 11.2382C8.30803 11.2382 9.22803 12.1582 9.22803 13.2889C9.22803 13.7062 9.10326 14.1078 8.86689 14.4509Z" fill="#DF1C26"/>
<path d="M11.8647 4.10156C12.6725 4.10156 13.3296 3.44445 13.3296 2.63672C13.3296 1.82898 12.6725 1.17188 11.8647 1.17188C11.057 1.17188 10.3999 1.82898 10.3999 2.63672C10.3999 3.44445 11.0571 4.10156 11.8647 4.10156ZM11.8647 1.75781C12.3494 1.75781 12.7437 2.15211 12.7437 2.63672C12.7437 3.12133 12.3494 3.51562 11.8647 3.51562C11.3801 3.51562 10.9858 3.12133 10.9858 2.63672C10.9858 2.15211 11.3801 1.75781 11.8647 1.75781Z" fill="#DF1C26"/>
<path d="M18.3101 1.75781H15.3804C15.2185 1.75781 15.0874 1.88895 15.0874 2.05078C15.0874 2.21262 15.2185 2.34375 15.3804 2.34375H18.3101C18.4719 2.34375 18.603 2.21262 18.603 2.05078C18.603 1.88895 18.4719 1.75781 18.3101 1.75781Z" fill="#DF1C26"/>
<path d="M16.5034 3.51562C16.6653 3.51562 16.7964 3.38449 16.7964 3.22266C16.7964 3.06082 16.6653 2.92969 16.5034 2.92969H15.3315C15.1697 2.92969 15.0386 3.06082 15.0386 3.22266C15.0386 3.38449 15.1697 3.51562 15.3315 3.51562H16.5034Z" fill="#DF1C26"/>
<path d="M13.9155 12.703C13.9155 12.5412 13.7844 12.41 13.6226 12.41H10.6929C10.531 12.41 10.3999 12.5412 10.3999 12.703C10.3999 12.8648 10.531 12.996 10.6929 12.996H13.6226C13.7844 12.996 13.9155 12.8648 13.9155 12.703Z" fill="#DF1C26"/>
<path d="M10.644 13.5819C10.4822 13.5819 10.3511 13.713 10.3511 13.8749C10.3511 14.0367 10.4822 14.1678 10.644 14.1678H11.8159C11.9778 14.1678 12.1089 14.0367 12.1089 13.8749C12.1089 13.713 11.9778 13.5819 11.8159 13.5819H10.644Z" fill="#DF1C26"/>
</svg>
