<svg width="20" height="21" viewBox="0 0 20 21" fill="none" xmlns="http://www.w3.org/2000/svg">
<g clip-path="url(#clip0_0_1611)">
<path d="M15.8333 2.16667H15V1.33333C15 1.11232 14.9122 0.900358 14.7559 0.744078C14.5996 0.587797 14.3877 0.5 14.1667 0.5C13.9457 0.5 13.7337 0.587797 13.5774 0.744078C13.4211 0.900358 13.3333 1.11232 13.3333 1.33333V2.16667H6.66667V1.33333C6.66667 1.11232 6.57887 0.900358 6.42259 0.744078C6.26631 0.587797 6.05435 0.5 5.83333 0.5C5.61232 0.5 5.40036 0.587797 5.24408 0.744078C5.0878 0.900358 5 1.11232 5 1.33333V2.16667H4.16667C3.062 2.16799 2.00296 2.6074 1.22185 3.38852C0.440735 4.16963 0.00132321 5.22867 0 6.33333L0 16.3333C0.00132321 17.438 0.440735 18.497 1.22185 19.2782C2.00296 20.0593 3.062 20.4987 4.16667 20.5H15.8333C16.938 20.4987 17.997 20.0593 18.7782 19.2782C19.5593 18.497 19.9987 17.438 20 16.3333V6.33333C19.9987 5.22867 19.5593 4.16963 18.7782 3.38852C17.997 2.6074 16.938 2.16799 15.8333 2.16667ZM1.66667 6.33333C1.66667 5.67029 1.93006 5.03441 2.3989 4.56557C2.86774 4.09673 3.50363 3.83333 4.16667 3.83333H15.8333C16.4964 3.83333 17.1323 4.09673 17.6011 4.56557C18.0699 5.03441 18.3333 5.67029 18.3333 6.33333V7.16667H1.66667V6.33333ZM15.8333 18.8333H4.16667C3.50363 18.8333 2.86774 18.5699 2.3989 18.1011C1.93006 17.6323 1.66667 16.9964 1.66667 16.3333V8.83333H18.3333V16.3333C18.3333 16.9964 18.0699 17.6323 17.6011 18.1011C17.1323 18.5699 16.4964 18.8333 15.8333 18.8333Z" fill="#1F1F1F"/>
<path d="M10 14.25C10.6904 14.25 11.25 13.6904 11.25 13C11.25 12.3096 10.6904 11.75 10 11.75C9.30964 11.75 8.75 12.3096 8.75 13C8.75 13.6904 9.30964 14.25 10 14.25Z" fill="#1F1F1F"/>
<path d="M5.83325 14.25C6.52361 14.25 7.08325 13.6904 7.08325 13C7.08325 12.3096 6.52361 11.75 5.83325 11.75C5.1429 11.75 4.58325 12.3096 4.58325 13C4.58325 13.6904 5.1429 14.25 5.83325 14.25Z" fill="#1F1F1F"/>
<path d="M14.1667 14.25C14.8571 14.25 15.4167 13.6904 15.4167 13C15.4167 12.3096 14.8571 11.75 14.1667 11.75C13.4764 11.75 12.9167 12.3096 12.9167 13C12.9167 13.6904 13.4764 14.25 14.1667 14.25Z" fill="#1F1F1F"/>
</g>
<defs>
<clipPath id="clip0_0_1611">
<rect width="20" height="20" fill="white" transform="translate(0 0.5)"/>
</clipPath>
</defs>
</svg>
