<svg width="13" height="13" viewBox="0 0 13 13" fill="none" xmlns="http://www.w3.org/2000/svg">
<g clip-path="url(#clip0_129_498)">
<path d="M4 12.8333C4.55228 12.8333 5 12.3856 5 11.8333C5 11.2811 4.55228 10.8333 4 10.8333C3.44772 10.8333 3 11.2811 3 11.8333C3 12.3856 3.44772 12.8333 4 12.8333Z" fill="white"/>
<path d="M9 12.8333C9.55228 12.8333 10 12.3856 10 11.8333C10 11.2811 9.55228 10.8333 9 10.8333C8.44772 10.8333 8 11.2811 8 11.8333C8 12.3856 8.44772 12.8333 9 12.8333Z" fill="white"/>
<path d="M12 2.33334H11V1.33334C11 1.20074 10.9473 1.07356 10.8536 0.97979C10.7598 0.886022 10.6326 0.833344 10.5 0.833344C10.3674 0.833344 10.2402 0.886022 10.1464 0.97979C10.0527 1.07356 10 1.20074 10 1.33334V2.33334H9C8.86739 2.33334 8.74021 2.38602 8.64645 2.47979C8.55268 2.57356 8.5 2.70074 8.5 2.83334C8.5 2.96595 8.55268 3.09313 8.64645 3.1869C8.74021 3.28066 8.86739 3.33334 9 3.33334H10V4.33334C10 4.46595 10.0527 4.59313 10.1464 4.6869C10.2402 4.78066 10.3674 4.83334 10.5 4.83334C10.6326 4.83334 10.7598 4.78066 10.8536 4.6869C10.9473 4.59313 11 4.46595 11 4.33334V3.33334H12C12.1326 3.33334 12.2598 3.28066 12.3536 3.1869C12.4473 3.09313 12.5 2.96595 12.5 2.83334C12.5 2.70074 12.4473 2.57356 12.3536 2.47979C12.2598 2.38602 12.1326 2.33334 12 2.33334Z" fill="white"/>
<path d="M11.3855 5.69634C11.3209 5.68425 11.2544 5.6851 11.1901 5.69886C11.1258 5.71262 11.0649 5.739 11.0108 5.77649C10.9568 5.81397 10.9107 5.86181 10.8753 5.91723C10.8399 5.97265 10.8158 6.03455 10.8045 6.09934C10.7421 6.44542 10.5602 6.75859 10.2904 6.98414C10.0206 7.20969 9.68015 7.33329 9.3285 7.33334H3.209L2.739 3.33334H7C7.13261 3.33334 7.25979 3.28066 7.35355 3.1869C7.44732 3.09313 7.5 2.96595 7.5 2.83334C7.5 2.70074 7.44732 2.57356 7.35355 2.47979C7.25979 2.38602 7.13261 2.33334 7 2.33334H2.621L2.6 2.15734C2.55691 1.79264 2.38153 1.45642 2.10709 1.2124C1.83266 0.968371 1.47824 0.8335 1.111 0.833344H1C0.867392 0.833344 0.740215 0.886022 0.646447 0.97979C0.552678 1.07356 0.5 1.20074 0.5 1.33334C0.5 1.46595 0.552678 1.59313 0.646447 1.6869C0.740215 1.78067 0.867392 1.83334 1 1.83334H1.111C1.23347 1.83336 1.35167 1.87832 1.44319 1.9597C1.5347 2.04108 1.59317 2.15322 1.6075 2.27484L2.2955 8.12484C2.36693 8.73324 2.65924 9.29423 3.11695 9.70135C3.57467 10.1085 4.16593 10.3334 4.7785 10.3333H10C10.1326 10.3333 10.2598 10.2807 10.3536 10.1869C10.4473 10.0931 10.5 9.96595 10.5 9.83334C10.5 9.70074 10.4473 9.57356 10.3536 9.47979C10.2598 9.38602 10.1326 9.33334 10 9.33334H4.7785C4.46826 9.3334 4.16563 9.23726 3.91231 9.05817C3.65898 8.87908 3.46741 8.62584 3.364 8.33334H9.3285C9.91457 8.3334 10.482 8.12755 10.9318 7.75175C11.3815 7.37596 11.6849 6.8541 11.789 6.27734C11.8007 6.2127 11.7995 6.14638 11.7855 6.08219C11.7716 6.018 11.7451 5.95719 11.7076 5.90323C11.6702 5.84928 11.6224 5.80323 11.5672 5.76773C11.5119 5.73223 11.4502 5.70798 11.3855 5.69634Z" fill="white"/>
</g>
<defs>
<clipPath id="clip0_129_498">
<rect width="12" height="12" fill="white" transform="translate(0.5 0.833344)"/>
</clipPath>
</defs>
</svg>
