<svg width="28" height="17" viewBox="0 0 28 17" fill="none" xmlns="http://www.w3.org/2000/svg">
<path d="M27.2941 0.500001V12.7353L0 12.7353L5.34822e-07 0.5L27.2941 0.500001Z" fill="#DF1C26"/>
<path d="M3.29412 9.44129H1.88236L1.88236 3.79423H3.29412V2.38247L24 2.38247V3.79423L25.4118 3.79423V9.44129H24V10.8531L3.29412 10.8531V9.44129Z" fill="#39C425"/>
<path d="M11.2941 6.61788C11.2941 7.91737 12.3475 8.97082 13.647 8.97082C14.9465 8.97082 16 7.91737 16 6.61788C16 5.31839 14.9465 4.26494 13.647 4.26494C12.3475 4.26494 11.2941 5.31838 11.2941 6.61788Z" fill="#DF1C26"/>
<path d="M11.2942 16.5H3.3491e-05L3.3635e-05 13.2059C3.36896e-05 11.9578 0.495831 10.7608 1.37835 9.87832C2.26088 8.99579 3.45784 8.5 4.70592 8.5V8.50941L9.22386 5.45647C9.63752 5.17698 10.1453 5.07326 10.6354 5.16813C11.1255 5.263 11.5579 5.54869 11.8374 5.96235C12.1169 6.37601 12.2206 6.88376 12.1257 7.37389C12.0309 7.86402 11.7452 8.29639 11.3315 8.57588L7.52945 11.3235V12.7353L18.8236 12.7353L12.18 16.2785C11.9074 16.4239 11.6031 16.5 11.2942 16.5Z" fill="#F5CBAA"/>
</svg>
