<svg width="512" height="333" viewBox="0 0 512 333" fill="none" xmlns="http://www.w3.org/2000/svg">
<path fill-rule="evenodd" clip-rule="evenodd" d="M97.8099 301.353C97.8099 305.952 99.6398 310.366 102.891 313.621C106.146 316.872 110.56 318.702 115.159 318.702H419.844C424.447 318.702 428.861 316.872 432.112 313.621C435.367 310.366 437.193 305.952 437.193 301.353H451.141C455.741 301.353 460.155 299.523 463.406 296.268C466.661 293.017 468.491 288.603 468.491 284.004V284C468.491 279.401 466.661 274.987 463.406 271.732C460.155 268.481 455.741 266.651 451.141 266.651H54.049C49.4463 266.651 45.0356 268.481 41.7809 271.732C38.5296 274.987 36.6997 279.401 36.6997 284V284.004C36.6997 288.603 38.5296 293.017 41.7809 296.268C45.0356 299.523 49.4463 301.353 54.049 301.353H97.8099Z" fill="#E5ECEF"/>
<path fill-rule="evenodd" clip-rule="evenodd" d="M115.016 313.979C115.016 318.578 116.846 322.992 120.097 326.247C123.352 329.498 127.766 331.328 132.365 331.328H437.05C441.653 331.328 446.067 329.498 449.318 326.247C452.573 322.992 454.399 318.578 454.399 313.979H468.347C472.946 313.979 477.361 312.149 480.612 308.894C483.867 305.643 485.696 301.229 485.696 296.629V296.626C485.696 292.027 483.867 287.613 480.612 284.358C477.361 281.107 472.946 279.277 468.347 279.277H71.2548C66.6521 279.277 62.2414 281.107 58.9867 284.358C55.7355 287.613 53.9055 292.027 53.9055 296.626V296.629C53.9055 301.229 55.7355 305.643 58.9867 308.894C62.2414 312.149 66.6521 313.979 71.2548 313.979H115.016Z" stroke="#72A3B8" stroke-width="1.46012" stroke-miterlimit="3" stroke-linecap="round"/>
<path fill-rule="evenodd" clip-rule="evenodd" d="M3.49221 184.008H394.264C396.191 184.008 397.756 182.443 397.756 180.516C397.756 178.589 396.191 177.024 394.264 177.024H3.49221C1.56451 177.024 0 178.589 0 180.516C0 182.443 1.56451 184.008 3.49221 184.008Z" fill="#FFC039"/>
<path fill-rule="evenodd" clip-rule="evenodd" d="M446.643 184.008H477.029C478.957 184.008 480.521 182.443 480.521 180.516C480.521 178.589 478.957 177.024 477.029 177.024H446.643C444.716 177.024 443.151 178.589 443.151 180.516C443.151 182.443 444.716 184.008 446.643 184.008Z" fill="#FFC039"/>
<path fill-rule="evenodd" clip-rule="evenodd" d="M52.4109 144.174H493.722C498.569 144.174 503.217 142.248 506.646 138.82C510.076 135.392 512 130.742 512 125.893C512 125.893 512 125.892 512 125.892C512 121.043 510.076 116.394 506.646 112.965C503.217 109.537 498.569 107.611 493.722 107.611C486.182 107.611 478.586 107.611 478.586 107.611C476.659 107.611 475.094 109.176 475.094 111.103C475.094 113.03 476.659 114.595 478.586 114.595C478.586 114.595 486.182 114.595 493.722 114.595C496.714 114.595 499.589 115.785 501.708 117.904C503.828 120.022 505.015 122.896 505.015 125.892V125.893C505.015 128.889 503.828 131.762 501.708 133.881C499.589 136 496.714 137.19 493.722 137.19H52.4109C50.4832 137.19 48.9187 138.755 48.9187 140.682C48.9187 142.609 50.4832 144.174 52.4109 144.174Z" fill="#FFC039"/>
<path fill-rule="evenodd" clip-rule="evenodd" d="M480.926 216.859H38.959C37.0313 216.859 35.4668 218.423 35.4668 220.351C35.4668 222.279 37.0313 223.843 38.959 223.843H480.926C487.52 223.843 492.866 229.19 492.866 235.783C492.866 242.38 487.52 247.727 480.926 247.727H465.131C463.203 247.727 461.639 249.291 461.639 251.219C461.639 253.143 463.203 254.711 465.131 254.711H480.926C491.378 254.711 499.851 246.235 499.851 235.783C499.851 225.331 491.378 216.859 480.926 216.859Z" fill="#FFC039"/>
<path d="M424.784 94.1659L186.563 73.7097L169.284 274.935L407.505 295.391L424.784 94.1659Z" fill="#C31019"/>
<path d="M424.783 94.1653L330.641 86.0813L377.291 28.2345L471.433 36.3186L424.783 94.1653Z" fill="#C31019"/>
<path d="M92.4187 65.6249L330.64 86.0812L294.535 21.1283L56.3141 0.67202L92.4187 65.6249Z" fill="#C31019"/>
<path d="M330.645 86.0821L92.4238 65.6259L75.1445 266.851L313.365 287.307L330.645 86.0821Z" fill="#DF1C26"/>
<path fill-rule="evenodd" clip-rule="evenodd" d="M124.252 78.4843C137.124 89.8246 144.638 106.907 143.059 125.291C140.435 155.854 113.657 178.59 83.1396 176.308L91.7793 75.6958L124.252 78.4843Z" fill="#C31019"/>
<path fill-rule="evenodd" clip-rule="evenodd" d="M168.59 217.893C168.802 215.43 166.977 213.261 164.513 213.05C151.659 211.946 114.633 208.766 101.778 207.663C99.3152 207.451 97.1469 209.276 96.9354 211.74C96.1762 220.58 94.4884 240.235 93.7293 249.076C93.5177 251.539 95.3431 253.708 97.8063 253.919C110.661 255.023 147.687 258.203 160.541 259.306C163.004 259.518 165.173 257.692 165.384 255.229C166.143 246.388 167.831 226.734 168.59 217.893Z" fill="white"/>
<path d="M375.21 79.6352H373.115V281.599H375.21V79.6352Z" fill="#DF0611" fill-opacity="0.38"/>
<path d="M85.1865 165.1C114.775 165.1 138.762 141.114 138.762 111.525C138.762 81.9361 114.775 57.9496 85.1865 57.9496C55.5976 57.9496 31.6111 81.9361 31.6111 111.525C31.6111 141.114 55.5976 165.1 85.1865 165.1Z" fill="#FC743E"/>
<path d="M70.0542 85.5674C74.436 80.0902 80.1324 77.3515 87.1433 77.3515C94.1542 77.3515 99.8232 80.1176 104.15 85.6496C108.532 91.1269 110.723 98.6581 110.723 108.243C110.723 117.829 108.559 125.387 104.232 130.919C99.8506 136.506 94.1542 139.3 87.1433 139.3C80.1324 139.3 74.436 136.534 70.0542 131.001C65.6724 125.415 63.4814 117.829 63.4814 108.243C63.4814 98.6581 65.6724 91.0995 70.0542 85.5674ZM75.2302 108.161C75.2302 114.734 76.3257 119.636 78.5166 122.868C80.7075 126.099 83.5831 127.715 87.1433 127.715C90.6487 127.715 93.4969 126.099 95.6878 122.868C97.8788 119.636 98.9742 114.734 98.9742 108.161C98.9742 101.753 97.8514 96.9602 95.6057 93.7834C93.4148 90.5518 90.594 88.936 87.1433 88.936C83.5831 88.936 80.7075 90.5518 78.5166 93.7834C76.3257 96.9602 75.2302 101.753 75.2302 108.161Z" fill="white"/>
</svg>
