<svg width="20" height="21" viewBox="0 0 20 21" fill="none" xmlns="http://www.w3.org/2000/svg">
<g clip-path="url(#clip0_0_980)">
<path d="M15.8333 13H15C14.5392 13 14.1667 12.6275 14.1667 12.1667C14.1667 11.7058 14.5392 11.3333 15 11.3333H15.8333C16.2942 11.3333 16.6667 11.7058 16.6667 12.1667C16.6667 12.6275 16.2942 13 15.8333 13ZM16.6667 15.5C16.6667 15.0392 16.2942 14.6667 15.8333 14.6667H15C14.5392 14.6667 14.1667 15.0392 14.1667 15.5C14.1667 15.9608 14.5392 16.3333 15 16.3333H15.8333C16.2942 16.3333 16.6667 15.9608 16.6667 15.5ZM13.3333 5.5C13.3333 5.03917 12.9608 4.66667 12.5 4.66667H11.6667C11.2058 4.66667 10.8333 5.03917 10.8333 5.5C10.8333 5.96083 11.2058 6.33333 11.6667 6.33333H12.5C12.9608 6.33333 13.3333 5.96083 13.3333 5.5ZM16.6667 5.5C16.6667 5.03917 16.2942 4.66667 15.8333 4.66667H15C14.5392 4.66667 14.1667 5.03917 14.1667 5.5C14.1667 5.96083 14.5392 6.33333 15 6.33333H15.8333C16.2942 6.33333 16.6667 5.96083 16.6667 5.5ZM16.6667 8.83333C16.6667 8.3725 16.2942 8 15.8333 8H15C14.5392 8 14.1667 8.3725 14.1667 8.83333C14.1667 9.29417 14.5392 9.66667 15 9.66667H15.8333C16.2942 9.66667 16.6667 9.29417 16.6667 8.83333ZM20 16.3333V4.66667C20 2.36917 18.1308 0.5 15.8333 0.5H11.6667C9.36917 0.5 7.5 2.36917 7.5 4.66667C7.5 5.1275 7.8725 5.5 8.33333 5.5C8.79417 5.5 9.16667 5.1275 9.16667 4.66667C9.16667 3.28833 10.2883 2.16667 11.6667 2.16667H15.8333C17.2117 2.16667 18.3333 3.28833 18.3333 4.66667V16.3333C18.3333 17.7117 17.2117 18.8333 15.8333 18.8333H15C14.5392 18.8333 14.1667 19.2058 14.1667 19.6667C14.1667 20.1275 14.5392 20.5 15 20.5H15.8333C18.1308 20.5 20 18.6308 20 16.3333ZM13.3333 16.75V13.29C13.3333 12 12.7508 10.805 11.7342 10.0083L9.23417 8.05083C7.7225 6.86917 5.61083 6.86833 4.09917 8.05083L1.59917 10.0075C0.5825 10.8033 0 11.9992 0 13.2892V16.7492C0 18.8167 1.6825 20.4992 3.75 20.4992H9.58333C11.6508 20.4992 13.3333 18.8175 13.3333 16.75ZM8.2075 9.36417L10.7075 11.3208C11.3167 11.7983 11.6667 12.5167 11.6667 13.29V16.75C11.6667 17.8992 10.7325 18.8333 9.58333 18.8333H3.75C2.60083 18.8333 1.66667 17.8992 1.66667 16.75V13.29C1.66667 12.5158 2.01667 11.7983 2.62583 11.3208L5.12583 9.365C5.57917 9.01 6.1225 8.8325 6.66667 8.8325C7.21083 8.8325 7.75417 9.01 8.2075 9.36417ZM8.33333 15.5V13.8333C8.33333 13.3733 7.96 13 7.5 13H5.83333C5.37333 13 5 13.3733 5 13.8333V15.5C5 15.96 5.37333 16.3333 5.83333 16.3333H7.5C7.96 16.3333 8.33333 15.96 8.33333 15.5Z" fill="#DF1C26"/>
</g>
<defs>
<clipPath id="clip0_0_980">
<rect width="20" height="20" fill="white" transform="translate(0 0.5)"/>
</clipPath>
</defs>
</svg>
