<svg width="24" height="24" viewBox="0 0 24 24" fill="none" xmlns="http://www.w3.org/2000/svg">
<path d="M8.9593 22.0013C9.48055 23.1734 10.6364 24 12.0006 24C13.3647 24 14.5206 23.1734 15.0419 22.0013C14.0799 22.0483 13.0796 22.08 12.0006 22.08C10.9215 22.08 9.92123 22.0483 8.9593 22.0013Z" fill="#1F1F1F"/>
<path d="M22.5884 16.92C21.3231 15.3245 19.1996 12.1882 19.1996 9.12C19.1996 6.07776 17.2451 3.34078 14.3996 2.3347C14.3651 1.04062 13.3014 0 12.0006 0C10.6988 0 9.63609 1.04062 9.60149 2.3347C6.7551 3.34078 4.80056 6.07776 4.80056 9.12C4.80056 12.1891 2.67801 15.3245 1.41177 16.92C0.989384 17.4528 0.85879 18.1565 1.06331 18.8025C1.26299 19.4332 1.76024 19.9219 2.39385 20.1082C3.50362 20.4355 5.32279 20.8042 8.09723 20.9923C9.29817 21.0729 10.5894 21.12 12.0006 21.12C13.4108 21.12 14.7021 21.0729 15.903 20.9923C18.6784 20.8042 20.4966 20.4355 21.6073 20.1082C22.2409 19.9219 22.7372 19.4333 22.9369 18.8025C23.1414 18.1565 23.0099 17.4528 22.5884 16.92Z" fill="#1F1F1F"/>
</svg>
