<svg width="19" height="20" viewBox="0 0 19 20" fill="none" xmlns="http://www.w3.org/2000/svg">
<path d="M13.7676 19.1821H2.67161C1.51071 19.1821 0.567139 18.2385 0.567139 17.0776V5.98166C0.567139 4.82077 1.51071 3.8772 2.67161 3.8772H9.17613C9.49294 3.8772 9.75006 4.13432 9.75006 4.45113C9.75006 4.76794 9.49294 5.02506 9.17613 5.02506H2.67161C2.14433 5.02506 1.715 5.45439 1.715 5.98166V17.0776C1.715 17.6049 2.14433 18.0342 2.67161 18.0342H13.7676C14.2949 18.0342 14.7242 17.6049 14.7242 17.0776V10.5731C14.7242 10.2563 14.9813 9.99919 15.2981 9.99919C15.6149 9.99919 15.8721 10.2556 15.8721 10.5731V17.0776C15.8721 18.2385 14.9285 19.1821 13.7676 19.1821Z" fill="#DF1C26"/>
<path d="M7.27993 13.0434C7.12916 13.0434 6.98217 12.9837 6.87428 12.8751C6.73808 12.7396 6.67994 12.5444 6.71749 12.357L7.25849 9.6511C7.28063 9.53942 7.3357 9.43755 7.41529 9.35796L15.341 1.43317C16.1613 0.61277 17.4959 0.61277 18.3171 1.43317C18.7142 1.83027 18.933 2.35839 18.933 2.92083C18.933 3.48328 18.7142 4.01125 18.3162 4.40849L10.3914 12.3341C10.3118 12.4144 10.2093 12.4688 10.0983 12.4909L7.39313 13.0319C7.35558 13.0396 7.31733 13.0434 7.27991 13.0434L7.27993 13.0434ZM9.98579 11.9285H9.9935H9.98579ZM8.34975 10.0468L8.0122 11.7379L9.70261 11.3997L17.5051 3.59733C17.6857 3.41587 17.7852 3.17641 17.7852 2.92083C17.7852 2.66525 17.6857 2.42564 17.5051 2.24433C17.1332 1.87161 16.5263 1.87161 16.1522 2.24433L8.34975 10.0468Z" fill="#DF1C26"/>
<path d="M16.8286 5.6596C16.6818 5.6596 16.5348 5.60369 16.4231 5.49117L14.259 3.32631C14.0348 3.10212 14.0348 2.73865 14.259 2.51446C14.4832 2.29027 14.8466 2.29027 15.071 2.51446L17.235 4.67932C17.4592 4.90351 17.4592 5.26698 17.235 5.49117C17.1225 5.60299 16.9756 5.6596 16.8286 5.6596Z" fill="#DF1C26"/>
</svg>
