<svg width="24" height="28" viewBox="0 0 24 28" fill="none" xmlns="http://www.w3.org/2000/svg">
<g clip-path="url(#clip0_0_1341)" filter="url(#filter0_d_0_1341)">
<path d="M12 10C12.9889 10 13.9556 9.70676 14.7779 9.15735C15.6001 8.60794 16.241 7.82705 16.6194 6.91342C16.9978 5.99979 17.0969 4.99446 16.9039 4.02455C16.711 3.05465 16.2348 2.16373 15.5355 1.46447C14.8363 0.765206 13.9454 0.289002 12.9755 0.0960758C12.0055 -0.0968503 11.0002 0.00216643 10.0866 0.380605C9.17295 0.759043 8.39206 1.39991 7.84265 2.22215C7.29324 3.0444 7 4.0111 7 5C7.00132 6.32568 7.52853 7.59668 8.46593 8.53407C9.40332 9.47147 10.6743 9.99868 12 10ZM12 1.66667C12.6593 1.66667 13.3037 1.86217 13.8519 2.22844C14.4001 2.59471 14.8273 3.1153 15.0796 3.72439C15.3319 4.33348 15.3979 5.0037 15.2693 5.6503C15.1407 6.29691 14.8232 6.89085 14.357 7.35703C13.8908 7.8232 13.2969 8.14067 12.6503 8.26929C12.0037 8.3979 11.3335 8.33189 10.7244 8.0796C10.1153 7.82731 9.59471 7.40007 9.22843 6.8519C8.86216 6.30374 8.66667 5.65927 8.66667 5C8.66667 4.11595 9.01786 3.2681 9.64298 2.64298C10.2681 2.01786 11.1159 1.66667 12 1.66667ZM12 11.6667C10.0116 11.6689 8.10518 12.4598 6.69914 13.8658C5.29309 15.2718 4.50221 17.1782 4.5 19.1667C4.5 19.3877 4.5878 19.5996 4.74408 19.7559C4.90036 19.9122 5.11232 20 5.33333 20C5.55435 20 5.76631 19.9122 5.92259 19.7559C6.07887 19.5996 6.16667 19.3877 6.16667 19.1667C6.16667 17.6196 6.78125 16.1358 7.87521 15.0419C8.96917 13.9479 10.4529 13.3333 12 13.3333C13.5471 13.3333 15.0308 13.9479 16.1248 15.0419C17.2188 16.1358 17.8333 17.6196 17.8333 19.1667C17.8333 19.3877 17.9211 19.5996 18.0774 19.7559C18.2337 19.9122 18.4457 20 18.6667 20C18.8877 20 19.0996 19.9122 19.2559 19.7559C19.4122 19.5996 19.5 19.3877 19.5 19.1667C19.4978 17.1782 18.7069 15.2718 17.3009 13.8658C15.8948 12.4598 13.9884 11.6689 12 11.6667Z" fill="#DF1C26"/>
</g>
<defs>
<filter id="filter0_d_0_1341" x="-2" y="0" width="28" height="28" filterUnits="userSpaceOnUse" color-interpolation-filters="sRGB">
<feFlood flood-opacity="0" result="BackgroundImageFix"/>
<feColorMatrix in="SourceAlpha" type="matrix" values="0 0 0 0 0 0 0 0 0 0 0 0 0 0 0 0 0 0 127 0" result="hardAlpha"/>
<feOffset dy="4"/>
<feGaussianBlur stdDeviation="2"/>
<feComposite in2="hardAlpha" operator="out"/>
<feColorMatrix type="matrix" values="0 0 0 0 0 0 0 0 0 0 0 0 0 0 0 0 0 0 0.25 0"/>
<feBlend mode="normal" in2="BackgroundImageFix" result="effect1_dropShadow_0_1341"/>
<feBlend mode="normal" in="SourceGraphic" in2="effect1_dropShadow_0_1341" result="shape"/>
</filter>
<clipPath id="clip0_0_1341">
<rect width="20" height="20" fill="white" transform="translate(2)"/>
</clipPath>
</defs>
</svg>
