<svg width="513" height="436" viewBox="0 0 513 436" fill="none" xmlns="http://www.w3.org/2000/svg">
<path fill-rule="evenodd" clip-rule="evenodd" d="M68.3769 410.592C68.3769 424.237 79.4355 435.296 93.0805 435.296C161.69 435.296 354.033 435.296 422.642 435.296C436.284 435.296 447.346 424.237 447.346 410.592H457.59C464.139 410.592 470.423 407.992 475.056 403.359C479.685 398.726 482.29 392.441 482.29 385.892C482.29 379.34 479.685 373.059 475.056 368.426C470.423 363.793 464.139 361.189 457.59 361.189C374.791 361.189 107.639 361.189 24.8413 361.189C18.2887 361.189 12.0078 363.793 7.37481 368.426C2.74179 373.059 0.137695 379.34 0.137695 385.892C0.137695 392.441 2.74179 398.726 7.37481 403.359C12.0078 407.992 18.2887 410.592 24.8413 410.592H68.3769Z" fill="#E5ECEF"/>
<path fill-rule="evenodd" clip-rule="evenodd" d="M98.0874 391.961C98.0874 405.606 109.146 416.665 122.791 416.665C191.401 416.665 383.743 416.665 452.353 416.665C465.994 416.665 477.057 405.606 477.057 391.961H487.3C493.849 391.961 500.133 389.361 504.766 384.728C509.396 380.095 512 373.81 512 367.261C512 360.709 509.396 354.428 504.766 349.795C500.133 345.162 493.849 342.558 487.3 342.558C404.502 342.558 137.35 342.558 54.5517 342.558C47.9992 342.558 41.7183 345.162 37.0853 349.795C32.4522 354.428 29.8481 360.709 29.8481 367.261C29.8481 373.81 32.4522 380.095 37.0853 384.728C41.7183 389.361 47.9992 391.961 54.5517 391.961H98.0874Z" stroke="#72A3B8" stroke-width="1.41143" stroke-miterlimit="3" stroke-linecap="round"/>
<path d="M422.434 75.8115L308.313 189.929" stroke="#C5000A" stroke-width="35.2858" stroke-miterlimit="3" stroke-linecap="round"/>
<path d="M298.609 75.8115H422.434" stroke="#E2474F" stroke-width="35.2858" stroke-miterlimit="3" stroke-linecap="round"/>
<path fill-rule="evenodd" clip-rule="evenodd" d="M460.744 189.93H59.7778C59.7778 189.93 74.9366 301.77 83.0347 361.553C85.8822 382.566 103.825 398.241 125.028 398.241C191.256 398.241 329.266 398.241 395.494 398.241C416.697 398.241 434.64 382.566 437.487 361.553C445.585 301.77 460.744 189.93 460.744 189.93Z" fill="#E2474F"/>
<path fill-rule="evenodd" clip-rule="evenodd" d="M392.311 189.93H37.3289C37.3289 189.93 52.4876 301.77 60.5857 361.553C63.4332 382.566 81.3761 398.241 102.579 398.241H327.06C348.263 398.241 366.206 382.566 369.054 361.553C377.156 301.77 392.311 189.93 392.311 189.93Z" fill="#DF1C26"/>
<path fill-rule="evenodd" clip-rule="evenodd" d="M486.255 189.933C486.255 184.252 484.001 178.807 479.984 174.792C475.97 170.776 470.524 168.521 464.844 168.521C400.251 168.521 207.806 168.521 143.21 168.521C137.533 168.521 132.084 170.776 128.07 174.792C124.056 178.807 121.798 184.252 121.798 189.933C121.798 195.614 124.056 201.058 128.07 205.074C132.084 209.089 137.533 211.344 143.21 211.344C207.806 211.344 400.251 211.344 464.844 211.344C470.524 211.344 475.97 209.089 479.984 205.074C484.001 201.058 486.255 195.614 486.255 189.933Z" fill="#DF1C26"/>
<path fill-rule="evenodd" clip-rule="evenodd" d="M411.49 189.933C411.49 184.252 409.237 178.807 405.221 174.792C401.206 170.776 395.758 168.521 390.081 168.521C320.534 168.521 101.483 168.521 31.94 168.521C26.2582 168.521 20.8145 170.776 16.7991 174.792C12.7838 178.807 10.5261 184.252 10.5261 189.933C10.5261 195.614 12.7838 201.058 16.7991 205.074C20.8145 209.089 26.2582 211.344 31.94 211.344C101.483 211.344 320.534 211.344 390.081 211.344C395.758 211.344 401.206 209.089 405.221 205.074C409.237 201.058 411.49 195.614 411.49 189.933Z" fill="#C41019"/>
<path fill-rule="evenodd" clip-rule="evenodd" d="M162.48 262.847C162.48 259.25 161.051 255.798 158.504 253.252C155.96 250.707 152.509 249.279 148.91 249.279C145.31 249.279 141.859 250.707 139.315 253.252C136.771 255.798 135.339 259.25 135.339 262.847C135.339 283.98 135.339 324.52 135.339 345.653C135.339 349.254 136.771 352.702 139.315 355.247C141.859 357.793 145.31 359.224 148.91 359.224C152.509 359.224 155.96 357.793 158.504 355.247C161.051 352.702 162.48 349.254 162.48 345.653C162.48 324.52 162.48 283.98 162.48 262.847Z" fill="#C5000A"/>
<path fill-rule="evenodd" clip-rule="evenodd" d="M228.391 262.847C228.391 259.25 226.962 255.798 224.414 253.252C221.87 250.707 218.419 249.279 214.82 249.279C211.221 249.279 207.77 250.707 205.226 253.252C202.682 255.798 201.249 259.25 201.249 262.847C201.249 283.98 201.249 324.52 201.249 345.653C201.249 349.254 202.682 352.702 205.226 355.247C207.77 357.793 211.221 359.224 214.82 359.224C218.419 359.224 221.87 357.793 224.414 355.247C226.962 352.702 228.391 349.254 228.391 345.653C228.391 324.52 228.391 283.98 228.391 262.847Z" fill="#C5000A"/>
<path fill-rule="evenodd" clip-rule="evenodd" d="M294.301 262.847C294.301 259.25 292.872 255.798 290.324 253.252C287.78 250.707 284.329 249.279 280.73 249.279C277.131 249.279 273.68 250.707 271.136 253.252C268.592 255.798 267.159 259.25 267.159 262.847C267.159 283.98 267.159 324.52 267.159 345.653C267.159 349.254 268.592 352.702 271.136 355.247C273.68 357.793 277.131 359.224 280.73 359.224C284.329 359.224 287.78 357.793 290.324 355.247C292.872 352.702 294.301 349.254 294.301 345.653C294.301 324.52 294.301 283.98 294.301 262.847Z" fill="#C5000A"/>
<path d="M184.488 189.929L298.609 75.8115" stroke="#DF1C26" stroke-width="35.2858" stroke-miterlimit="3" stroke-linecap="round"/>
<path d="M184.486 201.196C190.709 201.196 195.754 196.151 195.754 189.928C195.754 183.704 190.709 178.659 184.486 178.659C178.262 178.659 173.217 183.704 173.217 189.928C173.217 196.151 178.262 201.196 184.486 201.196Z" fill="#E2474F"/>
<path fill-rule="evenodd" clip-rule="evenodd" d="M73.5429 73.2204L61.4344 6.66547C60.8358 3.37535 57.6786 1.19009 54.3885 1.78867C51.0983 2.38725 48.9131 5.54447 49.5117 8.8346L61.6201 75.3895C62.2187 78.6796 65.3759 80.8649 68.666 80.2663C71.9562 79.6677 74.1414 76.5105 73.5429 73.2204Z" fill="#FFC039"/>
<path fill-rule="evenodd" clip-rule="evenodd" d="M30.3137 88.9996L12.2895 57.8997C10.6128 55.0063 6.90208 54.0187 4.0088 55.6957C1.11546 57.3725 0.127716 61.0828 1.80482 63.9764L19.829 95.0763C21.5058 97.9697 25.2162 98.9574 28.1097 97.2803C31.0031 95.6036 31.9908 91.8929 30.3137 88.9996Z" fill="#FFC039"/>
<path fill-rule="evenodd" clip-rule="evenodd" d="M122.681 76.3659L128.597 40.9106C129.148 37.6118 126.916 34.487 123.618 33.9366C120.319 33.386 117.194 35.6173 116.644 38.9158L110.728 74.3711C110.177 77.6696 112.408 80.7947 115.707 81.345C119.006 81.8956 122.13 79.6644 122.681 76.3659Z" fill="#FFC039"/>
<path fill-rule="evenodd" clip-rule="evenodd" d="M146.375 168.521C140.383 191.887 119.162 209.181 93.9364 209.181C68.7071 209.181 47.4862 191.887 41.4946 168.521H146.375Z" fill="#DF1C26"/>
<path d="M86.4568 196.136C116.354 196.136 140.59 171.899 140.59 142.002C140.59 112.105 116.354 87.8689 86.4568 87.8689C56.5598 87.8689 32.3235 112.105 32.3235 142.002C32.3235 171.899 56.5598 196.136 86.4568 196.136Z" fill="#FC743E"/>
<path d="M70.7282 115.253C74.9639 109.958 80.4703 107.311 87.2474 107.311C94.0245 107.311 99.5045 109.984 103.687 115.332C107.923 120.627 110.041 127.907 110.041 137.172C110.041 146.438 107.949 153.744 103.767 159.092C99.5309 164.492 94.0245 167.193 87.2474 167.193C80.4703 167.193 74.9639 164.519 70.7282 159.171C66.4925 153.771 64.3747 146.438 64.3747 137.172C64.3747 127.907 66.4925 120.6 70.7282 115.253ZM75.7316 137.093C75.7316 143.446 76.7905 148.185 78.9084 151.309C81.0262 154.433 83.8059 155.995 87.2474 155.995C90.636 155.995 93.3892 154.433 95.507 151.309C97.6249 148.185 98.6838 143.446 98.6838 137.093C98.6838 130.898 97.5984 126.265 95.4276 123.194C93.3097 120.071 90.583 118.509 87.2474 118.509C83.8059 118.509 81.0262 120.071 78.9084 123.194C76.7905 126.265 75.7316 130.898 75.7316 137.093Z" fill="white"/>
</svg>
