<svg width="48" height="32" viewBox="0 0 48 32" fill="none" xmlns="http://www.w3.org/2000/svg">
<g clip-path="url(#clip0_0_609)">
<path d="M0 0H48V32H0V0Z" fill="black"/>
<path d="M0 0H48V21.3333H0V0Z" fill="white"/>
<path d="M0 0H48V10.6667H0V0Z" fill="#CE1126"/>
<path d="M24.0429 16.1281L27.6956 19.5189L27.4356 13.3606C27.3974 12.4272 26.5863 12.6414 25.9971 12.978C25.4003 13.3606 24.7193 13.3606 24 13.108C23.2808 13.3606 22.5998 13.3606 22.003 12.978C21.4139 12.6414 20.6029 12.4272 20.5646 13.3606L20.3044 19.5189L24.0429 16.1281Z" fill="white" stroke="#C09300" stroke-width="0.0677524" stroke-linejoin="round"/>
<path d="M20.9848 13.1462L20.7323 19.1366L20.3038 19.5189L20.564 13.3605C20.6863 13.2764 20.9007 13.1463 20.9848 13.1463V13.1462ZM21.4979 13.575L21.2836 18.586L20.8553 19.0244L21.1154 13.2382C21.1996 13.3224 21.4521 13.5289 21.4979 13.5748L21.4979 13.575ZM21.9645 13.9574L21.7963 18.1367L21.452 18.4733L21.6663 13.705C21.7502 13.7891 21.9186 13.9116 21.9645 13.9574ZM22.4696 14.1718L22.3013 17.7338L21.9646 18.0069L22.1329 14.0418C22.2171 14.08 22.3854 14.1718 22.4696 14.1718ZM22.9363 14.1718L22.8138 17.1402L22.4695 17.4769L22.5996 14.2101C22.6836 14.2101 22.8979 14.2101 22.9363 14.1718Z" fill="#C09300"/>
<path d="M27.0147 13.1462L27.2671 19.1366L27.6957 19.5189L27.4355 13.3605C27.3131 13.2764 27.0988 13.1463 27.0147 13.1463V13.1462ZM26.5016 13.575L26.7158 18.586L27.1442 19.0244L26.8841 13.2382C26.7999 13.3224 26.5473 13.5289 26.5016 13.5748L26.5016 13.575ZM26.0349 13.9574L26.2032 18.1367L26.5475 18.4733L26.3332 13.705C26.2492 13.7891 26.0809 13.9116 26.0349 13.9574ZM25.5299 14.1718L25.6982 17.7338L26.0349 18.0069L25.8666 14.0418C25.7823 14.08 25.614 14.1718 25.5299 14.1718ZM25.0632 14.1718L25.1857 17.1402L25.53 17.4769L25.3998 14.2101C25.3158 14.2101 25.1015 14.2101 25.0632 14.1718Z" fill="#C09300"/>
<path d="M24.1683 16.8032L24.6809 19.1368L24.5125 19.3051L24.3366 19.175L24.0458 17.0941L24.1682 19.175L23.9999 19.3892L23.8315 19.175L23.954 17.0941L23.6633 19.175L23.4872 19.3051L23.3189 19.1368L23.8315 16.8032L24.1683 16.8032Z" fill="#C09300" stroke="#C09300" stroke-width="0.0572725"/>
<path d="M22.852 15.7783L21.8344 19.3893L23.2347 19.6035L23.8314 16.8876L22.852 15.7783L22.852 15.7783Z" fill="white" stroke="#C09300" stroke-width="0.0634137" stroke-linejoin="round"/>
<path d="M22.5155 17.0104L22.6379 17.3087L23.2995 16.6768" stroke="#C09300" stroke-width="0.0677275" stroke-linejoin="round"/>
<path d="M22.9736 16.2627L23.112 17.5611L23.5329 17.0103M23.3645 17.2243L23.5944 18.0176M23.6845 17.7261L23.2196 18.4323M23.3646 19.1372L23.2158 18.4333L23.0859 17.7174L22.7744 18.1392L22.6378 17.6529L22.2018 18.1001L22.4235 18.9134L22.7295 18.4102L22.8978 18.9229L23.212 18.4343M22.1325 19.3053L22.4152 18.9084L22.5993 19.5194L22.8518 19.091L23.0202 19.6037" stroke="#C09300" stroke-width="0.0677275" stroke-linejoin="round"/>
<path d="M25.1475 15.7783L26.1651 19.3893L24.7648 19.6035L24.1681 16.8876L25.1475 15.7783L25.1475 15.7783Z" fill="white" stroke="#C09300" stroke-width="0.0634137" stroke-linejoin="round"/>
<path d="M25.484 17.0104L25.3616 17.3087L24.7 16.6768" stroke="#C09300" stroke-width="0.0677275" stroke-linejoin="round"/>
<path d="M25.0259 16.2627L24.8874 17.5611L24.4666 17.0103M24.6349 17.2243L24.4051 18.0176M24.3149 17.7261L24.7799 18.4323M24.6349 19.1372L24.7837 18.4333L24.9136 17.7174L25.2251 18.1392L25.3617 17.6529L25.7976 18.1001L25.5759 18.9134L25.2699 18.4102L25.1016 18.9229L24.7875 18.4343M25.8669 19.3053L25.5843 18.9084L25.4001 19.5194L25.1476 19.091L24.9792 19.6037" stroke="#C09300" stroke-width="0.0677275" stroke-linejoin="round"/>
<path d="M23.9997 21.0033C25.0633 21.0033 26.081 20.9192 26.6777 20.7508C26.9303 20.7051 26.9303 20.575 26.9303 20.4066C27.1829 20.3224 27.0527 20.0241 27.2287 20.0241C27.0527 20.0701 27.0145 19.7258 26.8002 19.7718C26.8002 19.4733 26.5018 19.4351 26.2493 19.5191C25.7443 19.6875 24.8491 19.7258 23.9997 19.7258C23.1504 19.6875 22.2628 19.6875 21.7502 19.5191C21.4977 19.4351 21.1994 19.4733 21.1994 19.7718C20.9851 19.7258 20.9469 20.0702 20.7709 20.0242C20.9469 20.0242 20.8168 20.3224 21.0693 20.4066C21.0693 20.575 21.0693 20.7051 21.3294 20.7508C21.9185 20.9192 22.9362 21.0033 23.9997 21.0033H23.9997Z" fill="white" stroke="#C09300" stroke-width="0.126827" stroke-linejoin="round"/>
<path d="M22.5539 19.3889C22.8981 19.4349 23.2807 19.4731 23.5792 19.4349C23.7474 19.4349 23.8698 19.7256 23.5332 19.7716C23.2349 19.8097 22.7681 19.7716 22.5156 19.7256C22.3014 19.6873 21.8346 19.6032 21.5362 19.5189C21.2378 19.389 21.4521 19.1366 21.6203 19.1748C21.8805 19.2589 22.2172 19.3431 22.5539 19.389L22.5539 19.3889ZM25.4461 19.3889C25.1018 19.4349 24.7193 19.4731 24.4285 19.4349C24.2524 19.4349 24.13 19.7256 24.4667 19.7716C24.7651 19.8097 25.2319 19.7716 25.4842 19.7256C25.6986 19.6873 26.1652 19.6032 26.4636 19.5189C26.7621 19.389 26.5479 19.1366 26.3795 19.1748C26.1194 19.2589 25.7827 19.3431 25.4461 19.3889Z" fill="white" stroke="#C09300" stroke-width="0.0677275" stroke-linejoin="round"/>
<path d="M21.4979 19.2211C21.2378 19.1751 21.1153 19.4734 21.1996 19.6417C21.2378 19.5575 21.4138 19.5575 21.4521 19.4734C21.4979 19.3434 21.4138 19.3434 21.4979 19.2211ZM22.5155 20.0035C22.5155 19.8353 22.6837 19.856 22.6837 19.6876C22.6837 19.6035 22.6379 19.4734 22.5537 19.4734C22.4696 19.4734 22.3853 19.5575 22.3853 19.6417C22.3471 19.81 22.5155 19.8353 22.5155 20.0035ZM23.7267 19.5192C23.979 19.5192 23.954 19.8559 23.8315 20.0242C23.8315 19.9018 23.6173 19.8559 23.6173 19.7719C23.6173 19.6417 23.8107 19.6417 23.7267 19.5192ZM26.5016 19.2211C26.7617 19.1751 26.8842 19.4734 26.8 19.6417C26.7617 19.5575 26.5858 19.5575 26.5475 19.4734C26.5016 19.3434 26.5858 19.3434 26.5016 19.2211ZM25.484 20.0035C25.484 19.8353 25.3158 19.856 25.3158 19.6876C25.3158 19.6035 25.3617 19.4734 25.4459 19.4734C25.53 19.4734 25.6142 19.5575 25.6142 19.6417C25.6525 19.81 25.484 19.8353 25.484 20.0035ZM24.2728 19.5192C24.0204 19.5192 24.0454 19.8559 24.1679 20.0242C24.1679 19.9018 24.382 19.8559 24.382 19.7719C24.3821 19.6417 24.1886 19.6417 24.2728 19.5192Z" fill="white" stroke="#C09300" stroke-width="0.0677275" stroke-linejoin="round"/>
<path d="M21.5821 19.3053C21.6664 19.3053 21.7964 19.3436 21.8347 19.3894L21.5819 19.3052L21.5821 19.3053ZM22.0024 19.4355C22.0484 19.4355 22.2167 19.4737 22.3008 19.5195L22.0022 19.4352L22.0024 19.4355ZM23.5331 19.6035C23.4489 19.6035 23.2806 19.6035 23.2348 19.6416L23.5329 19.6032L23.5331 19.6035ZM23.0664 19.6035C23.0206 19.5575 22.8522 19.5575 22.7681 19.6035H23.0662H23.0664ZM26.4179 19.3053C26.3337 19.3053 26.2112 19.3436 26.1653 19.3894L26.4179 19.3053ZM25.997 19.4355C25.9512 19.4355 25.7828 19.4737 25.6986 19.5195L25.9973 19.4352L25.997 19.4355ZM24.4664 19.6035C24.5506 19.6035 24.7189 19.6035 24.7648 19.6416L24.4661 19.6032L24.4664 19.6035ZM24.933 19.6035C24.9789 19.5575 25.1474 19.5575 25.2315 19.6035H24.9328H24.933Z" fill="white" stroke="#C09300" stroke-width="0.0475137" stroke-linejoin="round"/>
<path d="M21.5112 19.9778C21.4827 19.9723 21.4678 19.9498 21.4749 19.9231C21.4837 19.8906 21.5097 19.872 21.5343 19.8807C21.5499 19.8863 21.5785 19.9151 21.5786 19.9255C21.5788 19.9374 21.5637 19.9656 21.5572 19.9657C21.5543 19.9657 21.55 19.9682 21.5475 19.9711C21.5422 19.9774 21.5254 19.9805 21.5112 19.9778ZM24.4408 20.1868C24.4302 20.1829 24.4133 20.1592 24.4133 20.1482C24.4134 20.1276 24.444 20.0939 24.4629 20.0938C24.4722 20.0937 24.4978 20.107 24.5074 20.1169C24.5247 20.135 24.5209 20.1645 24.4991 20.1813C24.4884 20.1896 24.4564 20.1926 24.4408 20.1868L24.4408 20.1868ZM24.46 20.3191C24.4376 20.3115 24.4294 20.3005 24.4276 20.2757C24.4257 20.2498 24.4282 20.2458 24.4555 20.2309L24.475 20.2202L24.4935 20.2285C24.5191 20.2399 24.5305 20.2522 24.5314 20.2694C24.5324 20.2879 24.5186 20.3069 24.4972 20.3165C24.4785 20.3249 24.4774 20.325 24.46 20.3191ZM21.7464 19.7383C21.7279 19.7377 21.7026 19.7547 21.6881 19.7633C21.6534 19.7714 21.6131 19.7927 21.5797 19.77C21.5468 19.7598 21.503 19.7678 21.4981 19.8083C21.5065 19.8431 21.5552 19.8629 21.5847 19.84C21.6066 19.8113 21.6664 19.7945 21.6731 19.8433C21.6487 19.8802 21.6515 19.9291 21.6314 19.9683C21.6281 19.9927 21.618 20.0159 21.6047 20.0366C21.5801 20.0391 21.5539 20.0362 21.5331 20.0516C21.4997 20.0534 21.4656 20.07 21.4464 20.0983C21.4249 20.1291 21.4043 20.1604 21.3981 20.1983C21.4038 20.237 21.4481 20.248 21.4814 20.25C21.517 20.2598 21.5526 20.2726 21.5881 20.2833C21.6459 20.2963 21.7002 20.3172 21.7581 20.33C21.8426 20.3554 21.9313 20.3671 22.0164 20.39C22.0253 20.3929 22.0337 20.3955 22.0431 20.3966C22.0784 20.404 22.0968 20.3655 22.0997 20.3366C22.1173 20.2748 22.1306 20.2119 22.1481 20.15C22.1601 20.1251 22.1745 20.069 22.1264 20.0816C22.0989 20.0981 22.0756 20.1229 22.0414 20.125C21.9948 20.1277 22.0214 20.1754 22.0397 20.195C22.0438 20.2263 22.0339 20.2637 22.0131 20.2883C21.9853 20.3059 21.9506 20.2853 21.9214 20.2783C21.8907 20.2788 21.8295 20.2632 21.8581 20.2216C21.8682 20.1909 21.8691 20.1572 21.8814 20.1266C21.897 20.0939 21.8993 20.0581 21.9064 20.0233C21.8871 19.9818 21.8542 20.0369 21.8281 20.0416C21.81 20.0541 21.7424 20.0595 21.7781 20.0916C21.8087 20.1149 21.7852 20.1555 21.7797 20.185C21.7778 20.226 21.735 20.2358 21.7014 20.2266C21.6679 20.225 21.6213 20.2001 21.6497 20.1633C21.6562 20.1326 21.6669 20.1025 21.6731 20.0716L21.7097 19.9616C21.7155 19.9286 21.7274 19.8972 21.743 19.8683C21.744 19.8317 21.7685 19.8003 21.768 19.7633C21.7656 19.7452 21.7575 19.7386 21.7464 19.7383ZM21.5547 20.125C21.5591 20.1242 21.5622 20.1249 21.5664 20.1266C21.5797 20.1323 21.5801 20.1431 21.5664 20.155C21.5604 20.1601 21.5536 20.1651 21.5514 20.165C21.5265 20.1628 21.5191 20.1591 21.5181 20.15C21.5171 20.1419 21.5197 20.1396 21.5364 20.1316C21.5447 20.1277 21.5504 20.1257 21.5547 20.125ZM21.4995 20.3927C21.473 20.3678 21.4773 20.3497 21.5164 20.3205C21.5331 20.308 21.5433 20.3095 21.5624 20.3269C21.5919 20.3538 21.5931 20.3708 21.5671 20.3938C21.5542 20.4052 21.5486 20.4076 21.5336 20.4077C21.518 20.4079 21.5135 20.4059 21.4995 20.3927ZM21.6621 20.4418C21.656 20.4403 21.6503 20.4376 21.6453 20.4339C21.6403 20.4301 21.6361 20.4254 21.633 20.4199C21.6299 20.4145 21.6279 20.4085 21.6272 20.4023C21.6265 20.396 21.6271 20.3897 21.6289 20.3838C21.6358 20.3606 21.6398 20.3583 21.6737 20.3579C21.7119 20.3576 21.7193 20.364 21.7196 20.3975C21.7198 20.4164 21.7184 20.4208 21.709 20.4295C21.6979 20.4398 21.6767 20.4454 21.6621 20.4418ZM26.4147 20.446C26.4025 20.436 26.4001 20.4314 26.4 20.4186C26.3998 20.3967 26.4124 20.3806 26.4398 20.3682C26.4761 20.3518 26.4909 20.354 26.5046 20.3781C26.5229 20.4102 26.522 20.4233 26.5002 20.4449C26.4881 20.4568 26.4859 20.4575 26.4583 20.4578C26.4312 20.458 26.4281 20.4573 26.4147 20.446ZM21.8781 20.5074C21.8587 20.5022 21.8487 20.4876 21.8484 20.4643C21.8482 20.4465 21.8495 20.4437 21.8619 20.4339C21.87 20.4276 21.8827 20.4222 21.8928 20.4209C21.907 20.4189 21.9122 20.4201 21.9237 20.4282C21.953 20.4488 21.9593 20.4693 21.9423 20.4891C21.9242 20.5102 21.907 20.5151 21.8781 20.5074ZM23.0472 20.5596C23.0429 20.5543 23.0334 20.5511 23.0324 20.5443C23.0341 20.5147 23.0355 20.4848 23.0449 20.4564C23.0501 20.4285 23.0456 20.3994 23.0553 20.3722C23.0653 20.3228 23.0653 20.2718 23.0767 20.2227C23.0773 20.1974 23.0797 20.1721 23.087 20.1477C23.0954 20.1092 23.0877 20.069 23.0991 20.031C23.0979 20.0167 23.1143 19.9785 23.1287 20.0011C23.1497 20.0319 23.1774 20.0569 23.2045 20.0819C23.2279 20.0954 23.2064 20.1153 23.1903 20.1219C23.1682 20.1307 23.1628 20.1551 23.1644 20.1764C23.1612 20.1986 23.1524 20.2195 23.1515 20.242C23.1468 20.2752 23.1477 20.309 23.1434 20.3421C23.1337 20.3746 23.1374 20.4093 23.1342 20.4428C23.1346 20.4641 23.1245 20.4834 23.1259 20.5047C23.1233 20.5263 23.1223 20.5524 23.1042 20.5672C23.0866 20.5761 23.0613 20.5745 23.0472 20.5596H23.0472ZM24.6312 20.037C24.6055 20.0564 24.5825 20.0794 24.5595 20.102C24.5279 20.1259 24.5855 20.1398 24.5928 20.1603C24.6012 20.1916 24.6007 20.2249 24.6029 20.257C24.6124 20.2864 24.6166 20.3177 24.6145 20.3486C24.6118 20.3818 24.5685 20.3748 24.5495 20.3936C24.5233 20.4047 24.5128 20.4305 24.4928 20.4486C24.4797 20.4744 24.4762 20.506 24.4745 20.5353C24.4764 20.5592 24.4584 20.5859 24.4745 20.607C24.4766 20.6099 24.4791 20.614 24.4812 20.617C24.4866 20.6247 24.4995 20.6185 24.5079 20.6203C24.5347 20.6188 24.5627 20.6228 24.5878 20.612C24.6524 20.6008 24.7175 20.5999 24.7829 20.597C24.8228 20.5982 24.8613 20.5843 24.9012 20.5853C24.9325 20.5922 24.9466 20.5583 24.9462 20.5336C24.9285 20.4988 24.9438 20.4574 24.9295 20.422C24.917 20.3861 24.9219 20.3458 24.9162 20.3086C24.9154 20.2794 24.8783 20.2685 24.8595 20.2903C24.8413 20.3087 24.8119 20.3124 24.7979 20.3353C24.782 20.3674 24.8313 20.3675 24.8395 20.392C24.8489 20.4167 24.8458 20.4443 24.8478 20.4703C24.8539 20.5019 24.8196 20.5037 24.7979 20.507C24.7692 20.5177 24.729 20.5249 24.7128 20.4903C24.7027 20.4647 24.7041 20.4374 24.7012 20.4103C24.7005 20.3627 24.689 20.316 24.6862 20.2686C24.6834 20.2101 24.6733 20.152 24.6695 20.0936C24.669 20.0693 24.6657 20.0297 24.6312 20.037V20.037ZM24.5979 20.477L24.6145 20.4786L24.6162 20.4986L24.6178 20.5186L24.5962 20.5253C24.5891 20.5274 24.5818 20.5291 24.5745 20.5303C24.5711 20.5282 24.5678 20.526 24.5645 20.5236C24.5528 20.5152 24.5558 20.5031 24.5712 20.487C24.5799 20.4779 24.5839 20.4761 24.5978 20.477H24.5979ZM22.9997 19.982C22.9795 19.9892 22.9537 20.019 22.9331 20.0187C22.8861 20.022 22.8927 20.0677 22.9264 20.0837C22.9308 20.0976 22.9267 20.115 22.9281 20.1304C22.9346 20.1725 22.908 20.2064 22.9131 20.2487C22.9107 20.2951 22.8967 20.3403 22.8947 20.387C22.8815 20.4352 22.8814 20.4847 22.8731 20.5337C22.8675 20.5776 22.8357 20.5621 22.8081 20.5504C22.8078 20.5313 22.8066 20.5127 22.8064 20.4937C22.8179 20.4501 22.7829 20.4374 22.7481 20.432C22.7115 20.4355 22.6935 20.4041 22.7014 20.372C22.7171 20.3533 22.7566 20.3585 22.7814 20.3554C22.8337 20.3662 22.8316 20.2961 22.8047 20.272C22.7863 20.2381 22.7408 20.2236 22.7281 20.1887C22.7332 20.1425 22.7025 20.0963 22.6647 20.0737C22.6067 20.0696 22.5628 20.1197 22.5414 20.1687C22.5173 20.1757 22.4932 20.1829 22.4697 20.192C22.4319 20.2015 22.378 20.2671 22.4297 20.292C22.4587 20.3 22.5471 20.3202 22.5081 20.3604C22.4861 20.3981 22.444 20.3987 22.4064 20.3887C22.3678 20.3887 22.3248 20.3699 22.3264 20.3254C22.3185 20.2854 22.3198 20.2423 22.3014 20.2054C22.2935 20.1606 22.2427 20.1711 22.2397 20.212C22.2006 20.2405 22.2058 20.2866 22.2331 20.3204C22.2501 20.3592 22.2332 20.4045 22.2164 20.4404C22.2062 20.487 22.1547 20.4886 22.1181 20.5037C22.1001 20.5107 22.0312 20.4995 22.0564 20.5387C22.0966 20.5529 22.1445 20.5656 22.1864 20.5554C22.2303 20.5499 22.2684 20.5199 22.2897 20.482C22.3192 20.4522 22.3698 20.4678 22.4081 20.467C22.4493 20.4669 22.4914 20.496 22.5314 20.477C22.543 20.4469 22.5966 20.3973 22.6131 20.4487C22.6103 20.4947 22.6509 20.5194 22.6931 20.5137C22.7391 20.5111 22.7221 20.5463 22.7214 20.5737C22.7244 20.6235 22.7566 20.6497 22.7981 20.6704C22.8122 20.6742 22.8271 20.6729 22.8414 20.6704C22.8813 20.6578 22.9242 20.64 22.9364 20.5954C22.9526 20.5591 22.953 20.518 22.9647 20.4804C22.9742 20.4201 22.9864 20.3598 22.9881 20.2987C23.0028 20.2433 22.9986 20.1848 23.0097 20.1287C23.0168 20.087 23.022 20.0453 23.0264 20.0037C23.0215 19.9815 23.0119 19.9777 22.9997 19.982ZM22.6381 20.2037C22.6461 20.2047 22.6506 20.2146 22.6514 20.232C22.6522 20.2514 22.6624 20.2673 22.6747 20.2704C22.6845 20.2728 22.6836 20.2831 22.6731 20.2904C22.6669 20.2946 22.656 20.2971 22.6364 20.297C22.6056 20.2969 22.5865 20.2889 22.5697 20.272L22.5597 20.262L22.5747 20.252C22.5852 20.2437 22.5953 20.2348 22.6047 20.2254C22.6199 20.2099 22.63 20.2027 22.6381 20.2037ZM26.1597 19.7836C26.1295 19.785 26.0991 19.7899 26.0714 19.797C26.0159 19.7935 25.9881 19.8517 26.0414 19.8803C26.0735 19.9621 26.1235 19.8634 26.1747 19.8703C26.2514 19.8852 26.2579 19.968 26.2697 20.0303C26.274 20.092 26.2918 20.152 26.3097 20.2103C26.361 20.2673 26.2713 20.3031 26.2331 20.2586C26.2005 20.2232 26.1306 20.1797 26.0914 20.2286C26.0432 20.249 26.0412 20.3134 26.0014 20.332C25.9369 20.3516 25.9288 20.2723 25.8947 20.2386C25.8634 20.1947 25.8035 20.1908 25.7547 20.1753C25.7318 20.129 25.7438 20.0502 25.6964 20.0186C25.6566 20.0349 25.5837 20.1094 25.6447 20.1436C25.7043 20.1949 25.6187 20.2183 25.5914 20.2536C25.5524 20.2971 25.5461 20.3569 25.5397 20.412C25.4726 20.4491 25.4595 20.3699 25.4514 20.3203C25.4462 20.261 25.3961 20.2784 25.3614 20.3003C25.3106 20.3209 25.2852 20.3691 25.2497 20.407C25.2455 20.4415 25.2517 20.4793 25.2514 20.5153C25.2629 20.5586 25.3155 20.5382 25.3481 20.5353C25.4003 20.5135 25.4216 20.5688 25.3797 20.6003C25.3514 20.6364 25.2613 20.6175 25.2697 20.6753C25.2987 20.6787 25.3289 20.6776 25.3581 20.6753C25.4162 20.6594 25.4787 20.6184 25.4847 20.5536C25.4924 20.4972 25.5737 20.5075 25.618 20.4953C25.6736 20.4793 25.7404 20.4752 25.7531 20.5453C25.7909 20.585 25.873 20.6298 25.9147 20.5753C25.9571 20.5494 25.9774 20.5039 25.9747 20.4553C25.9661 20.4134 26.0424 20.4119 26.0614 20.4353C26.0892 20.481 26.1761 20.4675 26.218 20.442C26.2626 20.409 26.2723 20.351 26.3364 20.3503C26.4314 20.3218 26.5302 20.3054 26.623 20.2703C26.6983 20.2539 26.6119 20.2064 26.593 20.1786C26.5358 20.1503 26.4859 20.2662 26.4214 20.2086C26.3715 20.1704 26.3749 20.0979 26.3564 20.0419C26.3437 19.9696 26.3469 19.8861 26.2947 19.8286C26.2588 19.7905 26.2101 19.7813 26.1597 19.7836H26.1597ZM25.7964 20.2886C25.8031 20.2885 25.8107 20.2918 25.8231 20.2986C25.8464 20.3115 25.8631 20.3329 25.863 20.3503C25.863 20.3616 25.8602 20.3624 25.8431 20.3703C25.8325 20.3751 25.8206 20.3804 25.8164 20.3803C25.8067 20.3802 25.7831 20.3613 25.7831 20.3536C25.783 20.3505 25.78 20.3383 25.7764 20.3286C25.7701 20.3115 25.7711 20.3118 25.7797 20.3003C25.7852 20.293 25.7897 20.2888 25.7964 20.2886ZM26.1447 20.307C26.1646 20.3057 26.1764 20.3119 26.1847 20.327C26.1944 20.3445 26.1878 20.358 26.163 20.3686C26.1522 20.3733 26.1413 20.3771 26.1397 20.377C26.1381 20.3768 26.1291 20.3715 26.1197 20.3653C26.1053 20.3558 26.1032 20.3512 26.1031 20.3403C26.1029 20.3235 26.1217 20.3085 26.1447 20.307H26.1447ZM25.668 20.312C25.6739 20.3111 25.6792 20.3141 25.6864 20.3203C25.696 20.3285 25.699 20.3352 25.7014 20.352C25.7031 20.3636 25.7028 20.3787 25.7014 20.3853C25.6988 20.3973 25.6985 20.3968 25.6714 20.397C25.6372 20.3973 25.6341 20.3936 25.6347 20.362C25.6351 20.3419 25.6353 20.3365 25.6464 20.3253C25.6549 20.3166 25.6622 20.3129 25.668 20.312ZM25.3747 20.3886C25.3854 20.3911 25.3954 20.3992 25.3981 20.412C25.4015 20.4289 25.3985 20.4366 25.3847 20.4436C25.3729 20.4497 25.3456 20.4517 25.338 20.447C25.3356 20.4454 25.3306 20.4415 25.3281 20.437C25.3244 20.4305 25.3251 20.4274 25.3297 20.4236C25.333 20.421 25.3364 20.4172 25.3364 20.4153C25.3364 20.4134 25.34 20.4066 25.3447 20.4003C25.3525 20.3899 25.3641 20.3861 25.3747 20.3886ZM25.868 20.452C25.8775 20.4519 25.8856 20.4552 25.8914 20.4603C25.9013 20.469 25.9009 20.4816 25.8897 20.4903C25.8825 20.4959 25.8432 20.4953 25.8297 20.4903C25.8237 20.488 25.8214 20.485 25.8214 20.4786C25.8213 20.4711 25.8234 20.4665 25.8364 20.4603C25.8473 20.4551 25.8586 20.452 25.8681 20.452H25.868ZM24.9523 20.709C24.9471 20.7056 24.9396 20.7027 24.9472 20.6971C24.9564 20.681 24.9748 20.6754 24.9912 20.6694C25.0204 20.6568 25.0456 20.6353 25.0644 20.6098C25.0671 20.592 25.087 20.5824 25.0869 20.5638C25.0871 20.5385 25.0886 20.5125 25.0824 20.4878C25.0756 20.4651 25.0583 20.4477 25.0383 20.4358C25.0247 20.4251 25.0024 20.4221 24.9973 20.4031C24.9945 20.3848 25.0109 20.3709 25.0166 20.3546C25.0285 20.3321 25.0385 20.3085 25.0513 20.2866C25.0651 20.2712 25.0864 20.2857 25.0936 20.3006C25.1037 20.3154 25.1126 20.3313 25.1176 20.3484C25.1337 20.3661 25.148 20.3869 25.1538 20.4104C25.1618 20.427 25.1743 20.4425 25.1735 20.4619C25.1735 20.4841 25.1861 20.5039 25.1853 20.5262C25.186 20.5561 25.186 20.5873 25.1751 20.6155C25.1676 20.6312 25.1526 20.6406 25.1427 20.6546C25.1257 20.6704 25.107 20.6855 25.0851 20.6939C25.0697 20.6988 25.0608 20.7166 25.0414 20.7123C25.014 20.7127 24.9861 20.7165 24.9589 20.712C24.9606 20.7149 24.9506 20.7072 24.9523 20.709V20.709ZM24.5869 20.733C24.574 20.7196 24.5712 20.714 24.571 20.7009C24.5709 20.6877 24.5734 20.6825 24.5861 20.6697C24.6095 20.6461 24.6209 20.6455 24.6612 20.6659C24.6998 20.6855 24.7128 20.6872 24.7163 20.6734C24.7196 20.6601 24.7418 20.6479 24.7629 20.6478C24.7763 20.6477 24.7838 20.6503 24.7945 20.6586C24.8079 20.6691 24.8085 20.6707 24.8089 20.6949C24.8091 20.7196 24.8088 20.7205 24.7934 20.7341C24.7786 20.7471 24.7762 20.7479 24.7579 20.7461C24.7346 20.7438 24.7206 20.7331 24.7168 20.7147C24.714 20.7014 24.7094 20.6982 24.7059 20.7073C24.7047 20.7102 24.699 20.7138 24.6931 20.7152C24.6823 20.718 24.6638 20.7296 24.6508 20.7419C24.6458 20.7466 24.6371 20.7488 24.6231 20.7489C24.6041 20.7491 24.6015 20.7479 24.5869 20.733H24.5869ZM23.5299 20.2583C23.4944 20.2587 23.4562 20.2885 23.4515 20.3233C23.4596 20.3634 23.493 20.4027 23.4715 20.445C23.4863 20.499 23.4309 20.5195 23.3932 20.4883C23.3704 20.4365 23.3589 20.3797 23.3249 20.3333C23.282 20.3212 23.2633 20.3897 23.2332 20.4133C23.2481 20.4536 23.2916 20.4897 23.2965 20.54C23.3069 20.5888 23.2772 20.6429 23.2349 20.6683C23.1983 20.7032 23.1482 20.6907 23.1032 20.6983C23.0486 20.7302 23.1433 20.7419 23.1682 20.7433C23.2241 20.749 23.2821 20.7416 23.3232 20.7C23.3642 20.6804 23.361 20.6094 23.4099 20.6016C23.4946 20.5978 23.5785 20.6146 23.6632 20.6166C23.7085 20.6275 23.7786 20.6112 23.8099 20.645C23.81 20.704 23.86 20.7404 23.9082 20.7633C23.9348 20.7707 23.9628 20.7377 23.9899 20.7316C24.0413 20.7152 24.0257 20.6515 24.0565 20.6266C24.1445 20.6219 24.2334 20.6229 24.3215 20.6216C24.3383 20.622 24.3432 20.5982 24.3549 20.5883C24.3529 20.5542 24.3517 20.5204 24.3465 20.4866C24.3295 20.4436 24.3493 20.3882 24.3182 20.3516C24.2739 20.3396 24.2363 20.3801 24.1915 20.3833C24.1421 20.4053 24.1005 20.4509 24.0982 20.5066C24.0689 20.5544 24.022 20.4981 24.0382 20.4583C24.0363 20.4409 24.0419 20.4207 24.0365 20.405C24.0095 20.3725 23.9621 20.3831 23.9249 20.3783C23.8705 20.3805 23.8175 20.3687 23.7632 20.37C23.7156 20.3664 23.666 20.3741 23.6198 20.3616C23.5648 20.3601 23.5724 20.3063 23.5632 20.2683C23.5534 20.2611 23.5417 20.2582 23.5299 20.2583ZM23.6365 20.455C23.6548 20.4553 23.6721 20.4577 23.6899 20.46C23.7128 20.4637 23.7373 20.4521 23.7599 20.46C23.8119 20.4688 23.864 20.4667 23.9165 20.4716C23.9304 20.4714 23.9403 20.4815 23.9498 20.49V20.6C23.9483 20.6137 23.9539 20.6319 23.9415 20.6416C23.9375 20.6444 23.9331 20.6473 23.9282 20.6483C23.9138 20.6446 23.8985 20.6351 23.8915 20.6216C23.8893 20.6026 23.8925 20.5841 23.8932 20.565C23.8928 20.56 23.8953 20.5523 23.8932 20.5483C23.8818 20.5402 23.869 20.535 23.8549 20.535C23.8096 20.5334 23.7651 20.5301 23.7198 20.5283C23.6822 20.5259 23.6434 20.5315 23.6065 20.5216C23.5922 20.5164 23.5736 20.5182 23.5649 20.5033C23.5524 20.4888 23.5704 20.4715 23.5832 20.465C23.6002 20.4572 23.6182 20.4546 23.6365 20.455L23.6365 20.455ZM24.2382 20.4683C24.2466 20.4682 24.2493 20.471 24.2532 20.4866L24.2598 20.5133C24.2618 20.5196 24.2587 20.5216 24.2498 20.525C24.2235 20.5349 24.1973 20.5339 24.1882 20.5216C24.184 20.5161 24.1889 20.4985 24.1965 20.4916C24.212 20.4778 24.229 20.4683 24.2382 20.4683Z" fill="#C09300"/>
<path d="M24.6562 13.4982C24.6918 13.5003 24.6081 13.3079 24.6081 13.3079C24.7023 13.4041 25.0577 13.4271 25.0577 13.4271C24.8444 13.3329 24.6312 12.622 24.6562 12.0553C24.6793 11.4866 24.5748 11.2628 24.4911 11.1792C24.3844 11.0725 24.0415 10.9784 23.8157 10.9659C23.6881 10.9596 23.709 11.0621 23.709 11.0621C23.4727 11.0014 23.2365 10.9784 23.1298 11.0495C23.0294 11.1165 23.0085 11.451 23.0817 11.3925C23.2594 11.2503 23.4142 11.3799 23.5208 11.5346C23.6149 11.6706 23.6086 12.0553 23.4727 12.5049C23.3305 12.9775 22.9415 13.4501 22.9415 13.4501C23.1527 13.4501 23.4497 13.2619 23.4497 13.2619L23.3786 13.5567C23.6023 13.4501 23.7801 13.2849 23.7801 13.2849L23.9934 13.5086C24.0645 13.4145 24.2067 13.2849 24.2067 13.2849C24.2067 13.2849 24.3844 13.4731 24.6562 13.4982Z" fill="white" stroke="#C09300" stroke-width="0.0649598"/>
<path d="M23.7928 12.1372C23.7928 12.1372 23.6736 13.0133 23.4498 13.2622M23.981 12.1143C23.981 12.1143 23.935 13.0008 23.7803 13.2852M24.148 12.15C24.148 12.15 24.148 13.1202 24.2065 13.2854M24.3592 12.198C24.3592 12.198 24.4073 13.0135 24.608 13.3083" stroke="#C09300" stroke-width="0.0677331"/>
<path d="M23.5773 11.7125C23.5669 11.6352 23.548 11.5745 23.5208 11.5348C23.4142 11.3801 23.2595 11.2504 23.0817 11.3926C23.0817 11.3926 23.1424 11.2044 23.272 11.1982C23.3724 11.1919 23.6003 11.2734 23.8011 11.6163C23.8011 11.6163 23.6526 11.5829 23.6171 11.6143C23.5501 11.6728 23.5773 11.7125 23.5773 11.7125ZM23.0632 11.1606C23.0778 11.1124 23.1008 11.0686 23.1301 11.0497C23.2368 10.9786 23.473 11.0016 23.7093 11.0623C23.7093 11.0623 23.6884 10.9598 23.816 10.9661C24.0418 10.9786 24.3847 11.0728 24.4913 11.1794C24.5164 11.2066 24.5457 11.2463 24.5708 11.3069H24.5666C24.5144 11.2337 24.3659 11.2379 24.3303 11.2421C24.2738 11.2484 24.2383 11.2463 24.163 11.2651C24.1275 11.2735 24.0731 11.2839 24.0438 11.3069C24.0209 11.3257 24.002 11.3947 23.9665 11.3947C23.91 11.3947 23.9142 11.3801 23.8995 11.3634C23.8807 11.3404 23.8703 11.3069 23.8514 11.309C23.7929 11.3195 23.6988 11.2735 23.5797 11.1794C23.4605 11.0853 23.4144 11.0623 23.2597 11.0727C23.1071 11.0852 23.059 11.171 23.059 11.171L23.0632 11.1606Z" fill="#C09300" stroke="#C09300" stroke-width="0.0188799"/>
<path d="M23.937 11.2985C23.9716 11.2985 23.9997 11.2705 23.9997 11.2358C23.9997 11.2012 23.9716 11.1731 23.937 11.1731C23.9023 11.1731 23.8743 11.2012 23.8743 11.2358C23.8743 11.2705 23.9023 11.2985 23.937 11.2985Z" fill="white"/>
<path d="M23.9987 17.4523C25.7396 16.1134 25.5903 14.1519 25.5903 14.1519C25.5444 14.1611 25.5007 14.1657 25.4548 14.1657C25.0896 14.1657 24.2186 13.9568 24.0154 13.6914C23.7978 13.9316 22.9077 14.1657 22.5448 14.1657C22.4989 14.1657 22.453 14.1611 22.4093 14.1519C22.4093 14.1519 22.2577 16.1133 23.9987 17.4523H23.9987Z" fill="white" stroke="#C09300" stroke-width="0.0613376"/>
<path d="M25.4515 14.2955L25.4063 14.2969C25.0753 14.2969 24.3066 14.1271 24.0103 13.8726C23.6999 14.1077 22.9185 14.2969 22.5929 14.2969C22.5776 14.2969 22.5625 14.2951 22.5476 14.2923C22.5468 14.3665 22.5506 14.4434 22.5553 14.5133C22.5725 14.7747 22.6183 15.037 22.6879 15.2894C22.907 16.0838 23.3554 16.7589 23.9984 17.271C24.642 16.7585 25.0909 16.0828 25.3105 15.2878C25.3802 15.0354 25.4262 14.7731 25.4436 14.5118C25.4477 14.4386 25.4517 14.349 25.4515 14.2955Z" stroke="#C09300" stroke-width="0.0488563"/>
<mask id="mask0_0_609" style="mask-type:luminance" maskUnits="userSpaceOnUse" x="22" y="13" width="4" height="5">
<path d="M25.4362 14.3063L25.3915 14.3077C25.0641 14.3077 24.3036 14.1398 24.0105 13.8879C23.7034 14.1207 22.9304 14.3077 22.6081 14.3077C22.593 14.3076 22.578 14.3061 22.5632 14.3032L22.5708 14.5217C22.5877 14.7804 22.6332 15.0398 22.702 15.2895C22.9188 16.0755 23.3625 16.7434 23.9985 17.2501C24.6351 16.743 25.0794 16.0745 25.2966 15.2879C25.3662 15.0371 25.4103 14.7798 25.4282 14.5201C25.4326 14.4489 25.4352 14.3775 25.436 14.3061L25.4362 14.3063Z" fill="white"/>
</mask>
<g mask="url(#mask0_0_609)">
<path d="M22.5391 13.854H23.5129V17.2838H22.5391V13.854Z" fill="#C09300"/>
<path fill-rule="evenodd" clip-rule="evenodd" d="M23.5129 13.854H24.4867V17.2838H23.5129V13.854Z" fill="white"/>
<path fill-rule="evenodd" clip-rule="evenodd" d="M24.4867 13.854H25.4605V17.2838H24.4867V13.854Z" fill="#C09300"/>
</g>
</g>
<defs>
<clipPath id="clip0_0_609">
<rect width="48" height="32" rx="4" fill="white"/>
</clipPath>
</defs>
</svg>
