<svg width="36" height="36" viewBox="0 0 36 36" fill="none" xmlns="http://www.w3.org/2000/svg">
<g clip-path="url(#clip0_0_528)">
<path d="M18 8C16.0222 8 14.0888 8.58649 12.4443 9.6853C10.7998 10.7841 9.51809 12.3459 8.76121 14.1732C8.00433 16.0004 7.8063 18.0111 8.19215 19.9509C8.578 21.8907 9.53041 23.6725 10.9289 25.0711C12.3275 26.4696 14.1093 27.422 16.0491 27.8079C17.9889 28.1937 19.9996 27.9957 21.8268 27.2388C23.6541 26.4819 25.2159 25.2002 26.3147 23.5557C27.4135 21.9112 28 19.9778 28 18C27.9971 15.3487 26.9426 12.8068 25.0679 10.9321C23.1932 9.05736 20.6513 8.00287 18 8ZM25.2058 13.8333H22.5217C21.9208 12.4408 21.1297 11.1384 20.1708 9.96333C22.2929 10.5408 24.1019 11.9312 25.2058 13.8333ZM21.75 18C21.7432 18.8484 21.6095 19.6911 21.3533 20.5H14.6467C14.3905 19.6911 14.2568 18.8484 14.25 18C14.2568 17.1516 14.3905 16.3089 14.6467 15.5H21.3533C21.6095 16.3089 21.7432 17.1516 21.75 18ZM15.315 22.1667H20.685C19.9777 23.5631 19.0735 24.8507 18 25.99C16.9261 24.851 16.0219 23.5634 15.315 22.1667ZM15.315 13.8333C16.0223 12.4369 16.9265 11.1493 18 10.01C19.0739 11.149 19.9781 12.4366 20.685 13.8333H15.315ZM15.8333 9.96333C14.8731 11.1382 14.0805 12.4406 13.4783 13.8333H10.7942C11.899 11.9304 13.7097 10.5398 15.8333 9.96333ZM10.0508 15.5H12.9167C12.7006 16.316 12.5886 17.1559 12.5833 18C12.5886 18.8441 12.7006 19.684 12.9167 20.5H10.0508C9.53862 18.8727 9.53862 17.1273 10.0508 15.5ZM10.7942 22.1667H13.4783C14.0805 23.5594 14.8731 24.8618 15.8333 26.0367C13.7097 25.4602 11.899 24.0696 10.7942 22.1667ZM20.1708 26.0367C21.1297 24.8616 21.9208 23.5592 22.5217 22.1667H25.2058C24.1019 24.0688 22.2929 25.4592 20.1708 26.0367ZM25.9492 20.5H23.0833C23.2994 19.684 23.4114 18.8441 23.4167 18C23.4114 17.1559 23.2994 16.316 23.0833 15.5H25.9475C26.4597 17.1273 26.4597 18.8727 25.9475 20.5H25.9492Z" fill="#DF1C26"/>
</g>
<defs>
<clipPath id="clip0_0_528">
<rect width="20" height="20" fill="white" transform="translate(8 8)"/>
</clipPath>
</defs>
</svg>
