<svg width="36" height="36" viewBox="0 0 36 36" fill="none" xmlns="http://www.w3.org/2000/svg">
<g clip-path="url(#clip0_0_520)">
<path d="M15.5 18C18.2575 18 20.5 15.7575 20.5 13C20.5 10.2425 18.2575 8 15.5 8C12.7425 8 10.5 10.2425 10.5 13C10.5 15.7575 12.7425 18 15.5 18ZM15.5 9.66667C17.3383 9.66667 18.8333 11.1617 18.8333 13C18.8333 14.8383 17.3383 16.3333 15.5 16.3333C13.6617 16.3333 12.1667 14.8383 12.1667 13C12.1667 11.1617 13.6617 9.66667 15.5 9.66667ZM16.9583 21.5167C16.485 21.395 15.9942 21.3333 15.5 21.3333C12.2833 21.3333 9.66667 23.95 9.66667 27.1667C9.66667 27.6267 9.29333 28 8.83333 28C8.37333 28 8 27.6267 8 27.1667C8 23.0317 11.365 19.6667 15.5 19.6667C16.135 19.6667 16.7658 19.7458 17.375 19.9033C17.8208 20.0183 18.0883 20.4725 17.9742 20.9183C17.86 21.3642 17.4075 21.6317 16.9592 21.5175L16.9583 21.5167ZM27.2675 17.8992C26.3225 16.9542 24.6758 16.9542 23.7317 17.8992L18.1425 23.4883C17.5133 24.1175 17.1658 24.955 17.1658 25.8458V27.1675C17.1658 27.6275 17.5392 28.0008 17.9992 28.0008H19.3208C20.2117 28.0008 21.0483 27.6533 21.6775 27.0242L27.2667 21.435C27.7392 20.9625 27.9992 20.335 27.9992 19.6667C27.9992 18.9983 27.7392 18.3708 27.2675 17.8992ZM26.0883 20.2558L20.4983 25.845C20.1842 26.16 19.7658 26.3333 19.32 26.3333H18.8317V25.845C18.8317 25.4 19.005 24.9817 19.32 24.6667L24.91 19.0775C25.2242 18.7625 25.7733 18.7625 26.0883 19.0775C26.2458 19.2342 26.3325 19.4433 26.3325 19.6667C26.3325 19.89 26.2458 20.0983 26.0883 20.2558Z" fill="#DF1C26"/>
</g>
<defs>
<clipPath id="clip0_0_520">
<rect width="20" height="20" fill="white" transform="translate(8 8)"/>
</clipPath>
</defs>
</svg>
