<svg width="36" height="36" viewBox="0 0 36 36" fill="none" xmlns="http://www.w3.org/2000/svg">
<g clip-path="url(#clip0_0_546)">
<path d="M18 8C16.0222 8 14.0888 8.58649 12.4443 9.6853C10.7998 10.7841 9.51809 12.3459 8.76121 14.1732C8.00433 16.0004 7.8063 18.0111 8.19215 19.9509C8.578 21.8907 9.53041 23.6725 10.9289 25.0711C12.3275 26.4696 14.1093 27.422 16.0491 27.8079C17.9889 28.1937 19.9996 27.9957 21.8268 27.2388C23.6541 26.4819 25.2159 25.2002 26.3147 23.5557C27.4135 21.9112 28 19.9778 28 18C27.9971 15.3487 26.9426 12.8068 25.0679 10.9321C23.1932 9.05736 20.6513 8.00287 18 8ZM18 26.3333C16.3518 26.3333 14.7407 25.8446 13.3703 24.9289C11.9998 24.0132 10.9317 22.7117 10.301 21.189C9.67028 19.6663 9.50525 17.9908 9.82679 16.3742C10.1483 14.7577 10.942 13.2729 12.1074 12.1074C13.2729 10.942 14.7577 10.1483 16.3743 9.82679C17.9908 9.50525 19.6663 9.67027 21.189 10.301C22.7118 10.9317 24.0132 11.9998 24.9289 13.3702C25.8446 14.7407 26.3333 16.3518 26.3333 18C26.3309 20.2094 25.4522 22.3276 23.8899 23.8899C22.3276 25.4522 20.2094 26.3309 18 26.3333Z" fill="#DF1C26"/>
<path d="M18 16.3333H17.1667C16.9457 16.3333 16.7337 16.4211 16.5775 16.5774C16.4212 16.7337 16.3334 16.9457 16.3334 17.1667C16.3334 17.3877 16.4212 17.5997 16.5775 17.7559C16.7337 17.9122 16.9457 18 17.1667 18H18V23C18 23.221 18.0878 23.433 18.2441 23.5893C18.4004 23.7455 18.6124 23.8333 18.8334 23.8333C19.0544 23.8333 19.2663 23.7455 19.4226 23.5893C19.5789 23.433 19.6667 23.221 19.6667 23V18C19.6667 17.558 19.4911 17.1341 19.1786 16.8215C18.866 16.5089 18.4421 16.3333 18 16.3333Z" fill="#DF1C26"/>
<path d="M18 14.6667C18.6904 14.6667 19.25 14.107 19.25 13.4167C19.25 12.7263 18.6904 12.1667 18 12.1667C17.3096 12.1667 16.75 12.7263 16.75 13.4167C16.75 14.107 17.3096 14.6667 18 14.6667Z" fill="#DF1C26"/>
</g>
<defs>
<clipPath id="clip0_0_546">
<rect width="20" height="20" fill="white" transform="translate(8 8)"/>
</clipPath>
</defs>
</svg>
