<svg width="12" height="12" viewBox="0 0 12 12" fill="none" xmlns="http://www.w3.org/2000/svg">
<path d="M6.355 6.70001C6.30852 6.74687 6.25322 6.78407 6.19229 6.80945C6.13136 6.83484 6.066 6.84791 6 6.84791C5.93399 6.84791 5.86864 6.83484 5.80771 6.80945C5.74678 6.78407 5.69148 6.74687 5.645 6.70001L3.355 4.40501C3.30852 4.35814 3.25322 4.32095 3.19229 4.29556C3.13136 4.27018 3.06601 4.25711 3 4.25711C2.93399 4.25711 2.86864 4.27018 2.80771 4.29556C2.74678 4.32095 2.69148 4.35814 2.645 4.40501C2.55187 4.49869 2.4996 4.62542 2.4996 4.75751C2.4996 4.8896 2.55187 5.01633 2.645 5.11001L4.94 7.40501C5.22125 7.68591 5.6025 7.84369 6 7.84369C6.3975 7.84369 6.77875 7.68591 7.06 7.40501L9.355 5.11001C9.44737 5.01688 9.49945 4.89118 9.5 4.76001C9.50038 4.6942 9.48777 4.62897 9.46288 4.56805C9.438 4.50714 9.40134 4.45173 9.355 4.40501C9.30852 4.35814 9.25322 4.32095 9.19229 4.29556C9.13136 4.27018 9.066 4.25711 9 4.25711C8.93399 4.25711 8.86864 4.27018 8.80771 4.29556C8.74678 4.32095 8.69148 4.35814 8.645 4.40501L6.355 6.70001Z" fill="white"/>
</svg>
