<svg width="36" height="36" viewBox="0 0 36 36" fill="none" xmlns="http://www.w3.org/2000/svg">
<path d="M25.5 18.3533V17.1667C25.5 15.1775 24.7098 13.2699 23.3033 11.8634C21.8968 10.4568 19.9891 9.66666 18 9.66666C16.0109 9.66666 14.1032 10.4568 12.6967 11.8634C11.2902 13.2699 10.5 15.1775 10.5 17.1667V18.3533C9.62597 18.7382 8.91067 19.4116 8.47385 20.2609C8.03704 21.1101 7.90522 22.0837 8.10046 23.0185C8.29571 23.9534 8.80617 24.7928 9.54639 25.3962C10.2866 25.9996 11.2117 26.3305 12.1667 26.3333C12.6087 26.3333 13.0326 26.1577 13.3452 25.8452C13.6577 25.5326 13.8333 25.1087 13.8333 24.6667V19.6667C13.8333 19.2246 13.6577 18.8007 13.3452 18.4881C13.0326 18.1756 12.6087 18 12.1667 18V17.1667C12.1667 15.6196 12.7812 14.1358 13.8752 13.0419C14.9692 11.9479 16.4529 11.3333 18 11.3333C19.5471 11.3333 21.0308 11.9479 22.1248 13.0419C23.2188 14.1358 23.8333 15.6196 23.8333 17.1667V18C23.3913 18 22.9674 18.1756 22.6548 18.4881C22.3423 18.8007 22.1667 19.2246 22.1667 19.6667V24.6667H19.6667C19.4457 24.6667 19.2337 24.7545 19.0774 24.9107C18.9211 25.067 18.8333 25.279 18.8333 25.5C18.8333 25.721 18.9211 25.933 19.0774 26.0892C19.2337 26.2455 19.4457 26.3333 19.6667 26.3333H23.8333C24.7883 26.3305 25.7134 25.9996 26.4536 25.3962C27.1938 24.7928 27.7043 23.9534 27.8995 23.0185C28.0948 22.0837 27.963 21.1101 27.5261 20.2609C27.0893 19.4116 26.374 18.7382 25.5 18.3533ZM12.1667 24.6667C11.5036 24.6667 10.8677 24.4033 10.3989 23.9344C9.93006 23.4656 9.66667 22.8297 9.66667 22.1667C9.66667 21.5036 9.93006 20.8677 10.3989 20.3989C10.8677 19.93 11.5036 19.6667 12.1667 19.6667V24.6667ZM23.8333 24.6667V19.6667C24.4964 19.6667 25.1323 19.93 25.6011 20.3989C26.0699 20.8677 26.3333 21.5036 26.3333 22.1667C26.3333 22.8297 26.0699 23.4656 25.6011 23.9344C25.1323 24.4033 24.4964 24.6667 23.8333 24.6667Z" fill="#DF1C26"/>
</svg>
