<svg width="16" height="16" viewBox="0 0 16 16" fill="none" xmlns="http://www.w3.org/2000/svg">
<g clip-path="url(#clip0_0_168)">
<path d="M12 4C12 1.794 10.206 0 8 0C5.794 0 4 1.794 4 4C4.00121 4.94495 4.33641 5.85905 4.94638 6.58076C5.55635 7.30247 6.4018 7.78533 7.33333 7.944V15.3333C7.33333 15.5101 7.40357 15.6797 7.5286 15.8047C7.65362 15.9298 7.82319 16 8 16C8.17681 16 8.34638 15.9298 8.4714 15.8047C8.59643 15.6797 8.66667 15.5101 8.66667 15.3333V7.944C9.5982 7.78533 10.4437 7.30247 11.0536 6.58076C11.6636 5.85905 11.9988 4.94495 12 4ZM8 6.66667C6.52933 6.66667 5.33333 5.47067 5.33333 4C5.33333 2.52933 6.52933 1.33333 8 1.33333C9.47067 1.33333 10.6667 2.52933 10.6667 4C10.6667 5.47067 9.47067 6.66667 8 6.66667Z" fill="white"/>
</g>
<defs>
<clipPath id="clip0_0_168">
<rect width="16" height="16" fill="white"/>
</clipPath>
</defs>
</svg>
