<svg width="20" height="20" viewBox="0 0 20 20" fill="none" xmlns="http://www.w3.org/2000/svg">
<g clip-path="url(#clip0_0_558)">
<path d="M10.0083 19.725C9.60833 19.725 9.20833 19.5833 8.89167 19.3L5.76667 16.6667H3.33333C1.49167 16.6667 0 15.175 0 13.3333V3.33333C0 1.49167 1.49167 0 3.33333 0H16.6667C18.5083 0 20 1.49167 20 3.33333V13.3333C20 15.175 18.5083 16.6667 16.6667 16.6667H14.2917L11.0833 19.3167C10.7833 19.5833 10.3917 19.725 10.0083 19.725ZM3.33333 1.66667C2.41667 1.66667 1.66667 2.41667 1.66667 3.33333V13.3333C1.66667 14.25 2.41667 15 3.33333 15H6.075C6.275 15 6.45833 15.0667 6.60833 15.2L9.98333 18.0417L13.4583 15.1917C13.6083 15.0667 13.7917 15 13.9917 15H16.6667C17.5833 15 18.3333 14.25 18.3333 13.3333V3.33333C18.3333 2.41667 17.5833 1.66667 16.6667 1.66667H3.33333ZM7.50833 12.7917C7.35 12.7917 7.18333 12.7417 7.05 12.6417C6.92344 12.5466 6.82972 12.4144 6.78191 12.2635C6.73411 12.1126 6.7346 11.9506 6.78333 11.8L7.5 9.5L5.68333 8.025C5.56484 7.92412 5.47985 7.78957 5.43966 7.63923C5.39947 7.48889 5.40598 7.32988 5.45833 7.18333C5.56667 6.88333 5.85833 6.68333 6.175 6.68333H8.46667L9.275 4.50833C9.38333 4.20833 9.675 4.00833 9.99167 4.00833C10.3083 4.00833 10.6 4.20833 10.7083 4.50833L11.5167 6.68333H13.8083C14.125 6.68333 14.4167 6.88333 14.525 7.18333C14.6333 7.48333 14.5417 7.825 14.3 8.03333L12.4917 9.50833L13.2417 11.7833C13.3417 12.0917 13.2417 12.4333 12.9833 12.625C12.725 12.825 12.375 12.8333 12.1 12.6583L10 11.2917L7.93333 12.675C7.80833 12.7583 7.65833 12.8 7.50833 12.8V12.7917Z" fill="#DF1C26"/>
</g>
<defs>
<clipPath id="clip0_0_558">
<rect width="20" height="20" fill="white"/>
</clipPath>
</defs>
</svg>
