<svg width="197" height="150" viewBox="0 0 197 150" fill="none" xmlns="http://www.w3.org/2000/svg">
<path d="M162.327 21.9338C162.327 21.9338 147.098 1.52589 121.819 0.0847223C96.5392 -1.35645 82.4393 15.8903 72.0913 28.8278C61.7432 41.7653 30.4155 34.2853 11.444 54.1215C-7.52748 73.9577 1.67238 85.4492 10.0264 96.9455C18.3805 108.442 26.3707 110.181 26.3707 119.659C26.3707 129.138 30.973 141.792 49.0798 144.665C67.1866 147.538 85.8698 130.017 98.8025 136.632C111.735 143.247 133.438 148.417 146.734 144.665C160.031 140.913 156 127.13 170.36 122.532C184.72 117.935 198.527 103.561 196.514 88.0386C194.501 72.5165 183.005 69.6436 178.119 54.698C173.233 39.7523 166.353 28.2561 162.327 21.9338Z" fill="#EEEEEE"/>
<path opacity="0.7" d="M162.327 21.9338C162.327 21.9338 147.098 1.52589 121.819 0.0847223C96.5392 -1.35645 82.4393 15.8903 72.0913 28.8278C61.7432 41.7653 30.4155 34.2853 11.444 54.1215C-7.52748 73.9577 1.67238 85.4492 10.0264 96.9455C18.3805 108.442 26.3707 110.181 26.3707 119.659C26.3707 129.138 30.973 141.792 49.0798 144.665C67.1866 147.538 85.8698 130.017 98.8025 136.632C111.735 143.247 133.438 148.417 146.734 144.665C160.031 140.913 156 127.13 170.36 122.532C184.72 117.935 198.527 103.561 196.514 88.0386C194.501 72.5165 183.005 69.6436 178.119 54.698C173.233 39.7523 166.353 28.2561 162.327 21.9338Z" fill="white"/>
<path d="M179.645 147.897C179.645 148.733 153.184 149.409 120.581 149.409C87.9772 149.409 61.5164 148.733 61.5164 147.897C61.5164 147.06 87.9772 146.389 120.581 146.389C153.184 146.389 179.645 147.065 179.645 147.897Z" fill="#777777"/>
<path d="M132.914 7.76306H77.4169C75.6893 7.76306 74.2888 9.16354 74.2888 10.8911V32.5843C74.2888 34.3118 75.6893 35.7123 77.4169 35.7123H132.914C134.641 35.7123 136.042 34.3118 136.042 32.5843V10.8911C136.042 9.16354 134.641 7.76306 132.914 7.76306Z" fill="#EEEEEE"/>
<path d="M74.2888 30.7981V40.8863L79.9165 34.4081" fill="#EEEEEE"/>
<path d="M132.918 7.76312H77.4024C76.9918 7.76312 76.5853 7.84407 76.206 8.00132C75.8268 8.15858 75.4823 8.38907 75.1922 8.67959C74.9021 8.97012 74.6721 9.31499 74.5155 9.69448C74.3588 10.074 74.2784 10.4806 74.2791 10.8912V40.8864L78.7774 35.7124H132.918C133.329 35.7124 133.735 35.6314 134.114 35.4742C134.494 35.3169 134.838 35.0864 135.128 34.7959C135.418 34.5054 135.648 34.1605 135.805 33.781C135.962 33.4015 136.042 32.9949 136.041 32.5843V10.8912C136.042 10.4806 135.962 10.074 135.805 9.69448C135.648 9.31499 135.418 8.97012 135.128 8.67959C134.838 8.38907 134.494 8.15858 134.114 8.00132C133.735 7.84407 133.329 7.76312 132.918 7.76312Z" fill="#EEEEEE"/>
<path opacity="0.1" d="M132.918 7.76312H77.4024C76.9918 7.76312 76.5853 7.84407 76.206 8.00132C75.8268 8.15858 75.4823 8.38907 75.1922 8.67959C74.9021 8.97012 74.6721 9.31499 74.5155 9.69448C74.3588 10.074 74.2784 10.4806 74.2791 10.8912V40.8864L78.7774 35.7124H132.918C133.329 35.7124 133.735 35.6314 134.114 35.4742C134.494 35.3169 134.838 35.0864 135.128 34.7959C135.418 34.5054 135.648 34.1605 135.805 33.781C135.962 33.4015 136.042 32.9949 136.041 32.5843V10.8912C136.042 10.4806 135.962 10.074 135.805 9.69448C135.648 9.31499 135.418 8.97012 135.128 8.67959C134.838 8.38907 134.494 8.15858 134.114 8.00132C133.735 7.84407 133.329 7.76312 132.918 7.76312Z" fill="#EEEEEE"/>
<path d="M121.819 23.0961H81.9433C81.6475 23.0961 81.3639 22.9787 81.1547 22.7695C80.9456 22.5604 80.8281 22.2768 80.8281 21.981C80.8294 21.6861 80.9474 21.4037 81.1564 21.1955C81.3654 20.9874 81.6483 20.8706 81.9433 20.8706H121.819C122.114 20.8706 122.397 20.9874 122.606 21.1955C122.815 21.4037 122.933 21.6861 122.934 21.981C122.934 22.1275 122.905 22.2725 122.849 22.4078C122.793 22.5431 122.711 22.666 122.607 22.7695C122.504 22.8731 122.381 22.9552 122.246 23.0113C122.11 23.0673 121.965 23.0961 121.819 23.0961Z" fill="white"/>
<path d="M121.819 28.2182H81.9433C81.7968 28.2182 81.6518 28.1894 81.5165 28.1333C81.3812 28.0773 81.2583 27.9952 81.1547 27.8916C81.0512 27.7881 80.969 27.6651 80.913 27.5298C80.857 27.3945 80.8281 27.2495 80.8281 27.1031C80.8294 26.8081 80.9474 26.5257 81.1564 26.3176C81.3654 26.1095 81.6483 25.9927 81.9433 25.9927H121.819C122.114 25.9927 122.397 26.1095 122.606 26.3176C122.815 26.5257 122.933 26.8081 122.934 27.1031C122.934 27.2495 122.905 27.3945 122.849 27.5298C122.793 27.6651 122.711 27.7881 122.607 27.8916C122.504 27.9952 122.381 28.0773 122.246 28.1333C122.11 28.1894 121.965 28.2182 121.819 28.2182Z" fill="white"/>
<path d="M84.1688 17.9741C86.3818 17.9741 88.1757 16.1801 88.1757 13.9671C88.1757 11.7542 86.3818 9.96021 84.1688 9.96021C81.9558 9.96021 80.1619 11.7542 80.1619 13.9671C80.1619 16.1801 81.9558 17.9741 84.1688 17.9741Z" fill="white"/>
<path d="M132.914 45.5879H77.4169C75.6893 45.5879 74.2888 46.9884 74.2888 48.7159V70.4091C74.2888 72.1367 75.6893 73.5371 77.4169 73.5371H132.914C134.641 73.5371 136.042 72.1367 136.042 70.4091V48.7159C136.042 46.9884 134.641 45.5879 132.914 45.5879Z" fill="#EEEEEE"/>
<path d="M74.2888 68.6183V78.7112L79.9165 72.2283" fill="#EEEEEE"/>
<path d="M132.918 45.5879H77.4024C76.574 45.5879 75.7796 45.917 75.1939 46.5027C74.6081 47.0884 74.2791 47.8829 74.2791 48.7112V78.7112L78.7774 73.5135H132.918C133.746 73.5135 134.541 73.1844 135.127 72.5987C135.712 72.013 136.041 71.2185 136.041 70.3902V48.7112C136.041 47.8829 135.712 47.0884 135.127 46.5027C134.541 45.917 133.746 45.5879 132.918 45.5879Z" fill="#EEEEEE"/>
<path opacity="0.1" d="M132.918 45.5879H77.4024C76.574 45.5879 75.7796 45.917 75.1939 46.5027C74.6081 47.0884 74.2791 47.8829 74.2791 48.7112V78.7112L78.7774 73.5135H132.918C133.746 73.5135 134.541 73.1844 135.127 72.5987C135.712 72.013 136.041 71.2185 136.041 70.3902V48.7112C136.041 47.8829 135.712 47.0884 135.127 46.5027C134.541 45.917 133.746 45.5879 132.918 45.5879Z" fill="#EEEEEE"/>
<path d="M121.819 60.9163H81.9433C81.6483 60.9163 81.3654 60.7994 81.1564 60.5913C80.9474 60.3832 80.8294 60.1008 80.8281 59.8059C80.8281 59.5101 80.9456 59.2265 81.1547 59.0173C81.3639 58.8082 81.6475 58.6907 81.9433 58.6907H121.819C121.965 58.6907 122.11 58.7196 122.246 58.7756C122.381 58.8317 122.504 58.9138 122.607 59.0173C122.711 59.1209 122.793 59.2438 122.849 59.3791C122.905 59.5144 122.934 59.6594 122.934 59.8059C122.933 60.1008 122.815 60.3832 122.606 60.5913C122.397 60.7994 122.114 60.9163 121.819 60.9163Z" fill="white"/>
<path d="M121.819 66.0383H81.9433C81.6483 66.0383 81.3654 65.9215 81.1564 65.7134C80.9474 65.5052 80.8294 65.2228 80.8281 64.9279C80.8281 64.6321 80.9456 64.3485 81.1547 64.1394C81.3639 63.9302 81.6475 63.8127 81.9433 63.8127H121.819C121.965 63.8127 122.11 63.8416 122.246 63.8976C122.381 63.9537 122.504 64.0358 122.607 64.1394C122.711 64.2429 122.793 64.3658 122.849 64.5011C122.905 64.6364 122.934 64.7814 122.934 64.9279C122.933 65.2228 122.815 65.5052 122.606 65.7134C122.397 65.9215 122.114 66.0383 121.819 66.0383Z" fill="white"/>
<path d="M84.1688 55.7941C86.3818 55.7941 88.1757 54.0002 88.1757 51.7872C88.1757 49.5742 86.3818 47.7803 84.1688 47.7803C81.9558 47.7803 80.1619 49.5742 80.1619 51.7872C80.1619 54.0002 81.9558 55.7941 84.1688 55.7941Z" fill="white"/>
<path d="M31.4033 100.967C31.3608 100.967 31.1718 98.004 31.1813 97.815C31.2899 95.6273 32.7925 91.4597 35.1693 90.8266C35.566 90.7317 35.9783 90.7216 36.3792 90.7969C36.7802 90.8722 37.1607 91.0312 37.496 91.2635C37.8313 91.4958 38.1139 91.7962 38.3252 92.1451C38.5366 92.494 38.672 92.8836 38.7226 93.2884C38.9966 94.9989 37.8815 96.8228 36.7522 98.0135C35.4197 99.3932 31.4033 100.967 31.4033 100.967Z" fill="#777777"/>
<path d="M28.3035 89.5508C28.261 89.5508 28.5209 86.5928 28.5587 86.4038C29.0028 84.2586 31.1197 80.3651 33.5579 80.1005C33.9645 80.0671 34.3736 80.1198 34.7585 80.2551C35.1435 80.3904 35.4956 80.6052 35.792 80.8855C36.0884 81.1659 36.3225 81.5056 36.4789 81.8824C36.6354 82.2592 36.7108 82.6647 36.7001 83.0726C36.7001 84.8067 35.3345 86.4416 34.0398 87.4386C32.5136 88.6104 28.3035 89.5508 28.3035 89.5508Z" fill="#777777"/>
<path d="M27.5193 76.0793C27.4767 76.0793 27.7413 73.1214 27.7791 72.9324C28.2186 70.7872 30.3354 66.8937 32.7783 66.6291C33.1848 66.5957 33.5937 66.6484 33.9784 66.7837C34.3631 66.919 34.7149 67.1339 35.011 67.4143C35.307 67.6948 35.5406 68.0345 35.6965 68.4113C35.8524 68.7881 35.9272 69.1935 35.9158 69.6012C35.9158 71.3353 34.555 72.9655 33.2556 73.9672C31.7294 75.139 27.524 76.0793 27.5193 76.0793Z" fill="#777777"/>
<path d="M26.1631 63.4018C26.1205 63.4018 26.3851 60.4391 26.4229 60.2548C26.8624 58.1049 28.9792 54.2161 31.4222 53.9468C31.8288 53.9141 32.2378 53.9674 32.6225 54.1033C33.0072 54.2392 33.359 54.4545 33.6549 54.7353C33.9509 55.0161 34.1844 55.3561 34.3403 55.7331C34.4962 56.1102 34.5709 56.5158 34.5596 56.9236C34.5596 58.653 33.1988 60.2879 31.8994 61.2849C30.3732 62.4568 26.1678 63.4018 26.1631 63.4018Z" fill="#777777"/>
<path d="M22.1181 53.2285C22.0803 53.2285 21.5511 50.3131 21.5369 50.1241C21.3952 47.9363 22.4111 43.6223 24.6933 42.7245C25.0765 42.5846 25.4849 42.5271 25.8919 42.5557C26.2988 42.5844 26.6951 42.6985 27.055 42.8907C27.4148 43.0829 27.7301 43.3488 27.9802 43.6711C28.2303 43.9934 28.4097 44.3648 28.5065 44.761C28.979 46.429 28.0812 48.3663 27.089 49.6705C25.936 51.2061 22.1181 53.2285 22.1181 53.2285Z" fill="#777777"/>
<path d="M30.1514 101C30.1987 101 28.9087 98.3017 28.8048 98.1411C27.6377 96.2888 24.2875 93.3876 21.9108 93.9971C21.5189 94.1091 21.1551 94.3023 20.8429 94.5642C20.5307 94.8261 20.2772 95.1509 20.0989 95.5173C19.9206 95.8838 19.8214 96.2836 19.808 96.6909C19.7945 97.0982 19.867 97.5038 20.0207 97.8812C20.6161 99.5114 22.4778 100.556 24.0466 101.033C25.8988 101.595 30.1514 101 30.1514 101Z" fill="#777777"/>
<path d="M27.6703 88.0245C27.7176 88.0245 26.0307 85.5485 25.9079 85.4067C24.4903 83.7482 20.7102 81.3904 18.4657 82.3496C18.0943 82.519 17.7629 82.7649 17.493 83.0712C17.2231 83.3775 17.0209 83.7372 16.8996 84.127C16.7783 84.5168 16.7406 84.9278 16.789 85.3332C16.8374 85.7385 16.9708 86.1291 17.1805 86.4793C18.0121 87.9961 20.0156 88.7474 21.6363 88.9837C23.5358 89.2577 27.6703 88.0245 27.6703 88.0245Z" fill="#777777"/>
<path d="M26.957 75.3139C26.9996 75.3139 25.3174 72.8379 25.1946 72.6962C23.777 71.0376 19.9969 68.6798 17.7477 69.6437C17.3723 69.812 17.0369 70.058 16.7637 70.3656C16.4905 70.6732 16.2857 71.0352 16.1628 71.4278C16.04 71.8205 16.0019 72.2347 16.0511 72.6431C16.1004 73.0516 16.2357 73.4449 16.4483 73.7971C17.2847 75.3139 19.2834 76.0652 20.9088 76.2967C22.8225 76.5519 26.957 75.3186 26.957 75.3139Z" fill="#777777"/>
<path d="M25.7331 63.6522C25.7803 63.6522 24.0935 61.1762 23.9706 61.0345C22.5531 59.376 18.7729 57.0181 16.5285 57.9773C16.1571 58.1467 15.8256 58.3926 15.5557 58.6989C15.2859 59.0052 15.0837 59.365 14.9623 59.7548C14.841 60.1446 14.8034 60.5556 14.8518 60.9609C14.9002 61.3663 15.0336 61.7568 15.2433 62.1071C16.0749 63.6286 18.0783 64.3752 19.6991 64.6114C21.5986 64.8855 25.7331 63.6522 25.7331 63.6522Z" fill="#777777"/>
<path d="M22.1466 53.6113C22.1891 53.6113 20.2565 51.3338 20.1053 51.2014C18.4988 49.713 14.5108 47.7804 12.3703 48.9854C12.0188 49.1946 11.7156 49.4758 11.4805 49.8105C11.2454 50.1452 11.0838 50.5258 11.0061 50.9274C10.9285 51.329 10.9366 51.7425 11.03 52.1407C11.1234 52.5389 11.3 52.9128 11.5481 53.238C12.5451 54.6555 14.6147 55.1848 16.2732 55.2367C18.1727 55.2934 22.1466 53.616 22.1466 53.6113Z" fill="#777777"/>
<path d="M16.9916 45.3139C17.0341 45.3139 16.3537 42.4126 16.2923 42.2331C15.5504 40.1682 12.9044 36.6196 10.4473 36.6999C10.04 36.7247 9.64257 36.8349 9.28074 37.0234C8.91891 37.2119 8.60083 37.4745 8.34721 37.7941C8.09359 38.1137 7.91011 38.4831 7.80871 38.8783C7.70731 39.2735 7.69026 39.6857 7.75868 40.0879C7.99494 41.8078 9.58731 43.2254 11.0143 44.0287C12.6917 44.9737 16.9869 45.3139 16.9916 45.3139Z" fill="#777777"/>
<path d="M35.5332 116.276C35.5332 116.276 35.0277 115.118 34.2338 113.091C33.44 111.064 32.3438 108.139 31.1814 104.586C30.6002 102.809 30.0096 100.872 29.4331 98.8072C29.1401 97.7677 28.8755 96.7234 28.5873 95.6036C28.4644 95.0555 28.3463 94.5026 28.2234 93.9451C28.1006 93.3875 28.0155 92.7969 27.9116 92.2157C27.5386 89.832 27.2973 87.4295 27.1886 85.0193C27.0705 82.5669 27.0233 80.0862 26.9618 77.6055C26.9004 75.1248 26.839 72.6535 26.6405 70.2343C26.4674 67.865 26.128 65.5108 25.6246 63.1891C25.1176 61.0269 24.4187 58.9142 23.5361 56.8763C22.7479 55.0427 21.8533 53.2567 20.8569 51.5274C19.945 49.9067 19.0094 48.4844 18.1731 47.2275C17.3367 45.9706 16.5523 44.9122 15.8955 44.0475C14.5819 42.3181 13.7598 41.392 13.7598 41.392C13.7598 41.392 14.6008 42.3039 15.957 44.0003C16.6279 44.8555 17.4312 45.8903 18.3195 47.1377C19.2079 48.3852 20.1529 49.7838 21.1026 51.3904C22.1499 53.1091 23.0965 54.8872 23.9377 56.7156C24.8802 58.7584 25.6408 60.8804 26.2105 63.0568C26.7714 65.3887 27.1677 67.7571 27.3965 70.1445C27.647 72.5874 27.7746 75.0728 27.8691 77.5535C27.9636 80.0342 28.0817 82.5055 28.2518 84.9295C28.411 87.2932 28.6981 89.6467 29.1118 91.9794C29.2299 92.5417 29.3008 93.0898 29.4473 93.6474C29.5937 94.2049 29.7166 94.7531 29.8489 95.2965C30.1419 96.3313 30.4395 97.4086 30.7514 98.4151C31.3609 100.442 31.9894 102.346 32.6037 104.085C33.8227 107.582 34.9662 110.445 35.8026 112.439C36.6389 114.433 37.154 115.539 37.154 115.539C37.2319 115.743 37.2295 115.97 37.1472 116.172C37.065 116.375 36.909 116.539 36.7108 116.631C36.5125 116.723 36.2866 116.737 36.0787 116.669C35.8707 116.602 35.6961 116.458 35.5899 116.267L35.5332 116.276Z" fill="#777777"/>
<path d="M46.6606 97.9615C46.6181 97.9615 47.2844 95.0555 47.3458 94.876C48.0735 92.8111 50.7006 89.2436 53.153 89.3097C53.5603 89.3315 53.9583 89.439 54.3213 89.625C54.6842 89.811 55.0039 90.0715 55.2594 90.3894C55.5148 90.7073 55.7004 91.0755 55.804 91.47C55.9076 91.8645 55.9268 92.2764 55.8605 92.6788C55.6384 94.3987 54.0555 95.8305 52.6332 96.6432C50.9416 97.5977 46.689 97.9615 46.6606 97.9615Z" fill="#777777"/>
<path d="M46.9346 86.1392C46.892 86.1392 47.9883 83.3608 48.078 83.1954C49.1128 81.2581 52.2456 78.1301 54.6602 78.5695C55.0596 78.653 55.4369 78.8197 55.7676 79.0587C56.0982 79.2978 56.3749 79.6038 56.5795 79.9568C56.7841 80.3098 56.912 80.702 56.955 81.1077C56.998 81.5135 56.9551 81.9237 56.829 82.3118C56.3565 83.9798 54.5657 85.1469 53.0489 85.7375C51.2392 86.4274 46.9393 86.1392 46.9346 86.1392Z" fill="#777777"/>
<path d="M49.9968 72.9986C49.9496 72.9986 51.0458 70.2202 51.1356 70.0548C52.1704 68.1222 55.3079 64.9942 57.7225 65.4289C58.122 65.5129 58.4993 65.6801 58.8299 65.9197C59.1604 66.1593 59.4368 66.4658 59.641 66.8193C59.8452 67.1728 59.9726 67.5654 60.0149 67.9714C60.0572 68.3775 60.0135 68.7879 59.8866 69.1759C59.4141 70.8392 57.6232 72.011 56.1065 72.6017C54.3204 73.2915 49.9968 72.9986 49.9968 72.9986Z" fill="#777777"/>
<path d="M52.3167 60.4627C52.2694 60.4627 53.3657 57.689 53.4554 57.5189C54.4902 55.5864 57.6277 52.4583 60.0423 52.8977C60.4416 52.9812 60.8189 53.1478 61.1494 53.3869C61.48 53.626 61.7564 53.9322 61.9606 54.2853C62.1648 54.6385 62.2923 55.0307 62.3346 55.4365C62.377 55.8422 62.3333 56.2523 62.2064 56.6401C61.7339 58.308 59.9431 59.4751 58.4263 60.0658C56.6118 60.7557 52.3167 60.4627 52.3167 60.4627Z" fill="#777777"/>
<path d="M51.3384 49.5524C51.2912 49.5524 51.6172 46.5992 51.6597 46.4149C52.1322 44.2744 54.3436 40.4281 56.7912 40.2155C57.1983 40.1912 57.6059 40.2528 57.9876 40.3964C58.3693 40.5399 58.7165 40.7622 59.0067 41.0488C59.2968 41.3354 59.5234 41.6798 59.6717 42.0597C59.8199 42.4396 59.8866 42.8464 59.8673 43.2538C59.8673 44.9879 58.4498 46.5897 57.1173 47.5584C55.5674 48.6971 51.3384 49.5524 51.3384 49.5524Z" fill="#777777"/>
<path d="M45.4699 97.6402C45.5124 97.6402 45.0399 94.7011 44.9973 94.5216C44.4067 92.4095 42.0205 88.6766 39.5681 88.5821C39.1599 88.5775 38.7552 88.659 38.3805 88.8212C38.0058 88.9835 37.6696 89.2229 37.3936 89.5238C37.1177 89.8247 36.9082 90.1804 36.7789 90.5677C36.6496 90.955 36.6034 91.3652 36.6433 91.7716C36.752 93.501 38.2404 95.0319 39.6059 95.9344C41.203 96.9976 45.4651 97.6402 45.4699 97.6402Z" fill="#777777"/>
<path d="M46.7647 84.4949C46.812 84.4949 45.8953 81.6598 45.8197 81.4802C44.9125 79.4815 41.9876 76.155 39.5494 76.4338C39.1454 76.4914 38.758 76.6335 38.4126 76.8508C38.0672 77.0681 37.7714 77.3558 37.5445 77.695C37.3176 78.0342 37.1647 78.4174 37.0957 78.8197C37.0268 79.2219 37.0433 79.6342 37.1443 80.0296C37.5129 81.7212 39.2187 83.0112 40.7023 83.6963C42.4365 84.5043 46.76 84.4949 46.7647 84.4949Z" fill="#777777"/>
<path d="M49.6941 72.1054C49.7367 72.1054 48.8247 69.2703 48.7491 69.0908C47.8466 67.0968 44.9217 63.7703 42.4836 64.0491C42.0781 64.1059 41.6892 64.2478 41.3424 64.4655C40.9956 64.6831 40.6987 64.9716 40.4712 65.312C40.2437 65.6524 40.0907 66.037 40.0222 66.4407C39.9537 66.8444 39.9712 67.2579 40.0737 67.6543C40.447 69.3507 42.1481 70.6359 43.6365 71.3211C45.3801 72.1149 49.6894 72.1054 49.6941 72.1054Z" fill="#777777"/>
<path d="M51.8348 60.5667C51.882 60.5667 50.9653 57.7316 50.8897 57.552C49.9825 55.558 47.0624 52.2268 44.6195 52.5103C44.2156 52.5673 43.8284 52.7089 43.4829 52.9257C43.1375 53.1425 42.8417 53.4297 42.6147 53.7686C42.3878 54.1074 42.2348 54.4903 42.1658 54.8923C42.0968 55.2943 42.1134 55.7062 42.2144 56.1014C42.5829 57.7977 44.2887 59.083 45.7771 59.7681C47.5207 60.5667 51.8348 60.5667 51.8348 60.5667Z" fill="#777777"/>
<path d="M51.2489 49.9304C51.2962 49.9304 50.0771 47.204 49.9779 47.0386C48.858 45.1486 45.5882 42.167 43.1926 42.7151C42.7972 42.8163 42.4277 42.9998 42.1081 43.2536C41.7885 43.5073 41.5261 43.8257 41.3379 44.1878C41.1497 44.5499 41.04 44.9476 41.016 45.355C40.992 45.7624 41.0542 46.1702 41.1986 46.5519C41.7514 48.1916 43.5848 49.2831 45.1393 49.8028C46.9632 50.4124 51.2489 49.9304 51.2489 49.9304Z" fill="#777777"/>
<path d="M48.669 40.5084C48.7068 40.5084 48.8816 37.5457 48.8675 37.3567C48.7446 35.1643 47.2184 31.0061 44.8416 30.3871C44.4442 30.2954 44.0318 30.2883 43.6314 30.3664C43.231 30.4445 42.8516 30.606 42.5177 30.8405C42.1839 31.0749 41.9031 31.377 41.6938 31.7271C41.4844 32.0773 41.3511 32.4675 41.3025 32.8726C41.0379 34.5878 42.1625 36.4022 43.3012 37.5977C44.6385 38.9586 48.6643 40.5037 48.669 40.5084Z" fill="#777777"/>
<path d="M46.2734 113.814C46.2734 113.814 46.1127 112.562 45.9284 110.389C45.7441 108.215 45.5221 105.106 45.4228 101.368C45.3709 99.4783 45.352 97.4748 45.3898 95.3296C45.3898 94.2522 45.4465 93.1749 45.489 92.022C45.5268 91.4644 45.5693 90.8974 45.6071 90.3304C45.6449 89.7633 45.7394 89.168 45.8008 88.5821C46.1248 86.1968 46.5775 83.8307 47.157 81.4943C47.7382 79.1081 48.3997 76.7125 49.047 74.3216C49.6944 71.9306 50.3323 69.5397 50.8331 67.1582C51.3403 64.8385 51.683 62.4858 51.8585 60.1178C51.9801 57.8993 51.9042 55.6745 51.6317 53.4695C51.3983 51.4865 51.048 49.519 50.5827 47.5772C50.1669 45.7628 49.6802 44.1326 49.236 42.6914C48.7919 41.2503 48.3335 40.0075 47.9555 38.9964C47.1853 36.9646 46.6608 35.84 46.6608 35.84C46.6608 35.84 47.2089 36.9551 48.0217 38.968C48.428 39.9745 48.8958 41.2077 49.3872 42.6395C49.8786 44.0712 50.389 45.7013 50.8426 47.5111C51.3527 49.4551 51.7488 51.4273 52.0286 53.4175C52.3538 55.6447 52.4803 57.8965 52.4066 60.1461C52.2803 62.5485 51.9851 64.9391 51.523 67.3C51.0505 69.7098 50.4835 72.1291 49.8834 74.5389C49.2833 76.9488 48.6785 79.3491 48.154 81.7211C47.6331 84.0321 47.2387 86.3698 46.9727 88.7238C46.9254 89.2956 46.8404 89.839 46.8215 90.4154C46.8026 90.9919 46.7648 91.5542 46.7364 92.1118C46.7364 93.1891 46.7033 94.3042 46.7364 95.3579C46.7364 97.4795 46.8073 99.483 46.9018 101.331C47.0766 105.03 47.3743 108.106 47.5964 110.247C47.8185 112.387 48.0075 113.606 48.0075 113.606C48.0239 113.718 48.0182 113.833 47.9905 113.942C47.9628 114.052 47.9138 114.155 47.8462 114.246C47.7787 114.337 47.6939 114.414 47.5967 114.472C47.4995 114.53 47.3918 114.568 47.2798 114.585C47.1678 114.601 47.0537 114.595 46.9439 114.568C46.8341 114.54 46.7309 114.491 46.6401 114.423C46.5492 114.356 46.4726 114.271 46.4145 114.174C46.3565 114.077 46.3181 113.969 46.3017 113.857V113.833L46.2734 113.814Z" fill="#777777"/>
<path d="M51.7545 145.057H31.7483L26.1206 112.293H57.3822L51.7545 145.057Z" fill="#777777"/>
<path d="M86.9942 148.157C111.021 148.157 130.499 128.679 130.499 104.652C130.499 80.6254 111.021 61.1478 86.9942 61.1478C62.9673 61.1478 43.4897 80.6254 43.4897 104.652C43.4897 128.679 62.9673 148.157 86.9942 148.157Z" fill="#EEEEEE"/>
<path d="M86.9943 148.374C78.3469 148.374 69.8938 145.81 62.7037 141.006C55.5137 136.201 49.9098 129.373 46.6006 121.384C43.2914 113.395 42.4256 104.604 44.1126 96.1225C45.7996 87.6413 49.9637 79.8509 56.0783 73.7363C62.1929 67.6217 69.9834 63.4576 78.4646 61.7705C86.9458 60.0835 95.7368 60.9494 103.726 64.2586C111.715 67.5678 118.543 73.1717 123.348 80.3617C128.152 87.5517 130.716 96.0049 130.716 104.652C130.702 116.244 126.091 127.357 117.895 135.553C109.699 143.749 98.5858 148.36 86.9943 148.374ZM86.9943 61.3604C78.432 61.3604 70.0619 63.8994 62.9426 68.6564C55.8233 73.4134 50.2745 80.1746 46.9979 88.0852C43.7212 95.9957 42.8639 104.7 44.5343 113.098C46.2047 121.496 50.3279 129.21 56.3823 135.264C62.4368 141.319 70.1507 145.442 78.5485 147.112C86.9462 148.783 95.6508 147.925 103.561 144.649C111.472 141.372 118.233 135.823 122.99 128.704C127.747 121.585 130.286 113.215 130.286 104.652C130.275 93.174 125.71 82.1691 117.594 74.0527C109.477 65.9364 98.4725 61.3717 86.9943 61.3604Z" fill="#777777"/>
<path d="M75.4699 133.263C71.7896 131.905 68.4165 129.828 65.5471 127.153C62.6524 124.371 60.4095 120.982 58.9791 117.231C57.3571 113.024 56.5537 108.546 56.6118 104.038C56.5808 100.189 57.26 96.3668 58.6153 92.7638C59.8406 89.4588 61.6759 86.4134 64.0256 83.7861C68.669 78.6946 74.6736 75.0396 81.3291 73.2537C84.5946 72.3777 87.9607 71.9329 91.3417 71.9306C94.147 71.9204 96.943 72.2536 99.6674 72.9229C102.3 73.5745 104.82 74.6178 107.143 76.0179C109.438 77.3997 111.495 79.1438 113.233 81.1825C115.052 83.373 116.439 85.8887 117.321 88.5962C118.341 91.6786 118.844 94.9086 118.809 98.1552C118.774 104.401 116.537 110.435 112.491 115.194C110.743 117.191 108.665 118.874 106.349 120.17C104.355 121.326 102.099 121.954 99.795 121.994C98.2133 122.013 96.6687 121.515 95.3958 120.576C94.7532 120.104 94.23 119.488 93.8682 118.777C93.5063 118.067 93.3159 117.281 93.3121 116.484C90.6156 120.283 86.9678 122.183 82.3686 122.183C78.6231 122.183 75.6306 120.902 73.3908 118.341C71.1511 115.78 70.036 112.63 70.0454 108.891C70.0556 106.046 70.551 103.224 71.5102 100.546C72.4488 97.8385 73.7935 95.2893 75.4983 92.9859C77.1903 90.7145 79.3513 88.8338 81.8347 87.4717C84.3112 86.0727 87.1082 85.3401 89.9525 85.3453C91.9286 85.3253 93.8782 85.8013 95.6227 86.7298C97.3225 87.6315 98.7009 89.038 99.5682 90.7556L99.9367 89.5555C100.105 89.0513 100.39 88.5941 100.769 88.2211C101.148 87.8481 101.61 87.5699 102.116 87.4091C102.623 87.2484 103.16 87.2096 103.685 87.2961C104.209 87.3825 104.706 87.5916 105.134 87.9064C105.408 88.1295 105.625 88.4139 105.768 88.7366C105.91 89.0592 105.975 89.411 105.957 89.7634C105.957 90.101 105.901 90.4364 105.791 90.7556L99.9273 110.247C99.2657 112.477 98.935 114.007 98.935 114.835C98.935 116.24 99.6516 116.941 101.085 116.938C102.956 116.938 104.794 116.078 106.599 114.358C108.544 112.417 110.045 110.078 110.998 107.502C112.121 104.683 112.695 101.676 112.69 98.6419C112.717 95.9689 112.327 93.308 111.532 90.7556C110.873 88.5548 109.822 86.4913 108.428 84.6649C107.105 83.0009 105.506 81.5754 103.703 80.4501C101.902 79.316 99.9365 78.4665 97.8765 77.9316C95.766 77.3814 93.5937 77.1035 91.4125 77.1047C88.6393 77.1082 85.8801 77.4978 83.2144 78.2624C80.4776 79.0455 77.8689 80.2218 75.4699 81.7542C73.0506 83.282 70.8599 85.1449 68.9634 87.2874C67.0073 89.5434 65.4825 92.1397 64.465 94.9468C63.3335 98.0073 62.7668 101.248 62.7923 104.511C62.731 108.376 63.4326 112.215 64.8572 115.808C66.0731 118.925 68.004 121.712 70.4943 123.945C72.8951 126.034 75.6684 127.652 78.6688 128.713C81.8317 129.832 85.1656 130.392 88.5208 130.367C92.1073 130.373 95.6737 129.83 99.0956 128.755C99.4409 128.639 99.8038 128.583 100.168 128.59C100.515 128.576 100.86 128.637 101.181 128.769C101.501 128.901 101.789 129.101 102.025 129.355C102.478 129.826 102.731 130.455 102.729 131.108C102.774 131.634 102.627 132.158 102.315 132.584C102.003 133.01 101.548 133.308 101.033 133.424C96.7624 134.73 92.3251 135.411 87.8592 135.446C83.6311 135.478 79.4326 134.738 75.4699 133.263ZM90.4014 114.514C92.183 113.228 93.5074 111.407 94.1815 109.316L97.9616 96.0195L97.7112 95.4808C97.4708 95.0425 97.1806 94.6334 96.8465 94.2617C96.3946 93.7426 95.9033 93.2592 95.3769 92.8158C94.7007 92.2713 93.9326 91.8521 93.1089 91.5778C90.9696 90.8206 88.6229 90.9016 86.5409 91.8046C85.409 92.2924 84.3687 92.97 83.4648 93.8081C82.5215 94.6868 81.6828 95.6714 80.9652 96.7424C80.2161 97.8512 79.5828 99.034 79.0752 100.272C78.5666 101.506 78.1728 102.784 77.8986 104.09C77.628 105.332 77.4886 106.599 77.4828 107.87C77.4778 108.685 77.5267 109.5 77.6293 110.308C77.7171 111.025 77.8754 111.73 78.1018 112.416C78.3018 113.036 78.5864 113.626 78.9476 114.169C79.281 114.671 79.7 115.111 80.1856 115.468C80.7023 115.846 81.2836 116.126 81.9008 116.295C82.6267 116.497 83.3777 116.594 84.1311 116.583C86.3928 116.608 88.5985 115.88 90.4014 114.514Z" fill="#777777"/>
<path d="M146.158 68.0654C146.158 68.0654 144.741 70.7021 144.533 71.0706C144.325 71.4392 143.564 73.4332 143.791 73.9057C144.018 74.3782 144.235 74.6476 144.684 74.7232C145.133 74.7988 145.501 75.6162 146.243 75.7627C146.71 75.8552 147.185 75.9058 147.661 75.9139C147.777 75.9997 147.912 76.0575 148.055 76.0829C148.197 76.1083 148.344 76.1006 148.483 76.0604C148.927 75.9139 149.3 75.6918 149.598 74.4255C149.78 73.7983 149.83 73.1403 149.744 72.4929L149.612 69.9366L146.158 68.0654Z" fill="white"/>
<path d="M148.218 76.3344C147.994 76.3314 147.774 76.266 147.585 76.1454C147.118 76.1328 146.654 76.0806 146.196 75.9895C145.771 75.8738 145.391 75.6335 145.104 75.2996C144.977 75.1472 144.815 75.0274 144.632 74.95C144.389 74.8958 144.164 74.7805 143.978 74.6152C143.792 74.4498 143.651 74.2398 143.569 74.005C143.262 73.3954 144.155 71.2266 144.32 70.9525C144.537 70.5887 145.927 67.9804 145.941 67.952C145.972 67.8975 146.022 67.857 146.082 67.8386C146.14 67.8155 146.204 67.8155 146.262 67.8386L149.711 69.7051C149.747 69.7254 149.776 69.7541 149.798 69.7888C149.819 69.8234 149.832 69.8629 149.834 69.9035L149.967 72.4551C150.053 73.125 150 73.8055 149.811 74.4539C149.518 75.7155 149.135 76.0651 148.54 76.2636C148.437 76.304 148.328 76.3279 148.218 76.3344ZM146.257 68.3868C145.917 69.0199 144.925 70.8769 144.736 71.1935C144.476 71.6235 143.852 73.4994 143.999 73.7923C144.235 74.2648 144.414 74.4349 144.722 74.4869C145.001 74.5696 145.25 74.7342 145.435 74.9594C145.658 75.2284 145.956 75.4257 146.29 75.5265C146.741 75.6136 147.197 75.6626 147.656 75.6729C147.711 75.6729 147.764 75.6912 147.807 75.7249C147.892 75.7865 147.989 75.8282 148.092 75.847C148.195 75.8658 148.301 75.8612 148.402 75.8336C148.729 75.7249 149.069 75.6115 149.348 74.3688C149.519 73.7737 149.569 73.1502 149.494 72.5354L149.366 70.0784L146.257 68.3868Z" fill="#777777"/>
<path d="M154.351 139.061C154.351 139.061 152.334 142.345 152.334 143.139C152.334 143.932 155.112 145.392 156.303 145.922C157.494 146.451 159.61 146.867 161.33 147.112C163.05 147.358 166.623 148.057 165.583 146.715C164.544 145.374 158.155 141.839 157.891 141.419C157.563 141.026 157.195 140.668 156.794 140.351L154.351 139.061Z" fill="white"/>
<path d="M164.723 147.746C163.714 147.705 162.71 147.593 161.718 147.41L161.292 147.344C158.892 146.975 157.181 146.569 156.208 146.134C156.038 146.059 152.097 144.296 152.097 143.139C152.097 142.302 153.94 139.278 154.148 138.933C154.18 138.883 154.23 138.846 154.287 138.831C154.345 138.815 154.406 138.821 154.46 138.848L156.903 140.143C157.341 140.478 157.739 140.864 158.089 141.291C158.202 141.423 159.242 142.075 160.248 142.709C162.393 144.046 165.058 145.714 165.748 146.574C165.999 146.886 166.06 147.155 165.928 147.377C165.795 147.599 165.38 147.746 164.723 147.746ZM154.422 139.373C153.656 140.639 152.556 142.638 152.556 143.153C152.556 143.668 154.578 144.915 156.383 145.719C157.328 146.134 158.991 146.527 161.354 146.89L161.774 146.956C162.644 147.094 165.29 147.514 165.507 147.146C165.507 147.146 165.507 147.051 165.365 146.876C164.727 146.078 161.987 144.362 159.983 143.096C158.372 142.09 157.796 141.721 157.678 141.546C157.364 141.172 157.013 140.832 156.629 140.53L154.422 139.373Z" fill="#777777"/>
<path d="M157.513 144.235L158.221 145.293C158.984 146.45 160.019 147.401 161.236 148.062C163.126 149.083 166.037 150.25 168.579 149.551C172.747 148.402 162.257 142.075 162.257 142.075C162.257 142.075 158.519 144.674 157.513 144.235Z" fill="white"/>
<path d="M166.925 149.999C164.827 149.999 162.672 149.121 161.123 148.27C159.873 147.592 158.809 146.619 158.023 145.435L157.314 144.372C157.284 144.331 157.269 144.283 157.269 144.232C157.269 144.182 157.284 144.133 157.314 144.093C157.347 144.054 157.392 144.026 157.443 144.014C157.493 144.002 157.545 144.007 157.593 144.027C158.202 144.291 160.598 142.935 162.105 141.891C162.143 141.865 162.187 141.852 162.233 141.852C162.278 141.852 162.323 141.865 162.361 141.891C163.15 142.364 170.067 146.616 169.77 148.771C169.703 149.243 169.297 149.603 168.626 149.792C168.071 149.937 167.499 150.007 166.925 149.999ZM157.976 144.499L158.415 145.166C159.158 146.287 160.164 147.21 161.345 147.854C163.272 148.894 166.07 149.995 168.517 149.324C169.254 149.116 169.302 148.795 169.316 148.691C169.529 147.145 164.416 143.672 162.261 142.359C161.51 142.86 159.251 144.348 157.976 144.499Z" fill="#777777"/>
<path d="M158.712 144.736C159.861 146.472 161.6 147.733 163.608 148.284C167.033 149.262 168.016 149.017 168.749 148.039" fill="white"/>
<path d="M166.878 149.144C165.744 149.08 164.624 148.867 163.546 148.511C161.475 147.952 159.683 146.65 158.509 144.854C158.493 144.827 158.483 144.798 158.479 144.767C158.474 144.736 158.476 144.705 158.484 144.675C158.492 144.645 158.506 144.617 158.525 144.593C158.544 144.568 158.567 144.548 158.595 144.533C158.649 144.501 158.714 144.493 158.775 144.509C158.836 144.524 158.888 144.564 158.921 144.618C160.044 146.295 161.73 147.515 163.674 148.057C167.015 149.003 167.927 148.766 168.56 147.897C168.598 147.848 168.654 147.815 168.716 147.807C168.777 147.798 168.84 147.813 168.891 147.85C168.941 147.887 168.974 147.943 168.983 148.005C168.992 148.067 168.975 148.13 168.938 148.18C168.706 148.505 168.395 148.764 168.034 148.933C167.673 149.102 167.275 149.174 166.878 149.144Z" fill="#777777"/>
<path d="M152.594 142.534C152.594 142.534 156.374 145.241 158.221 145.293L152.594 142.534Z" fill="white"/>
<path d="M158.202 145.53C156.312 145.478 152.603 142.836 152.447 142.728C152.397 142.69 152.364 142.634 152.354 142.573C152.345 142.511 152.359 142.448 152.395 142.397C152.413 142.371 152.435 142.35 152.461 142.333C152.487 142.317 152.516 142.305 152.546 142.3C152.577 142.295 152.608 142.295 152.638 142.302C152.668 142.309 152.696 142.322 152.721 142.34C152.759 142.368 156.468 145.01 158.216 145.057C158.28 145.06 158.339 145.087 158.382 145.133C158.426 145.179 158.449 145.24 158.448 145.303C158.447 145.334 158.439 145.364 158.426 145.393C158.413 145.421 158.395 145.446 158.372 145.467C158.349 145.488 158.323 145.505 158.293 145.515C158.264 145.526 158.233 145.531 158.202 145.53Z" fill="#777777"/>
<path d="M144.386 68.9727C144.386 68.9727 147.741 74.5342 148.459 75.8242C149.177 77.1142 158.231 87.467 161.822 96.3786C165.413 105.29 168.867 113.332 168.72 115.922C168.574 118.511 156.785 140.351 156.785 140.351L154.342 139.061C154.342 139.061 158.075 118.506 157.649 116.352C157.224 114.197 144.027 92.7827 144.027 92.7827C144.027 92.7827 137.846 88.4734 135.262 83.4411" fill="#777777"/>
<path d="M144.863 82.8693C144.863 82.8693 142.997 86.8904 142.997 87.4668C142.997 88.0433 153.487 118.941 156.506 125.982C158.417 130.491 160.095 135.097 161.534 139.779C161.534 139.779 162.687 141.196 161.822 142.652C160.957 144.107 157.512 145.095 156.794 143.8C156.076 142.505 149.031 135.767 146.016 129.001C143.002 122.234 138.687 110.748 136.24 106.438C133.016 100.921 130.137 95.2079 127.621 89.3333C124.455 81.8628 121.2 73.7639 121.2 73.7639C125.467 74.1205 129.762 73.6389 133.844 72.3464C140.459 70.1917 143.295 66.0667 143.295 66.0667C143.295 66.0667 144.977 70.3665 145.407 71.1982" fill="#777777"/>
<path d="M145.851 95.0035C145.818 95.0031 145.787 94.993 145.76 94.9745C145.733 94.956 145.712 94.9299 145.7 94.8996L142.392 86.2998C142.381 86.2679 142.379 86.2333 142.388 86.2005C142.396 86.1676 142.414 86.1381 142.439 86.1155L146.144 82.9402C146.175 82.911 146.217 82.8948 146.26 82.8948C146.303 82.8948 146.344 82.911 146.375 82.9402C146.404 82.9709 146.42 83.0115 146.42 83.0536C146.42 83.0958 146.404 83.1364 146.375 83.167L142.756 86.2715L146.021 94.7767C146.037 94.8169 146.036 94.8616 146.019 94.9013C146.003 94.941 145.971 94.9726 145.931 94.9894L145.851 95.0035Z" fill="white"/>
<path d="M142.539 86.3991C142.498 86.3995 142.46 86.3842 142.43 86.3565C142.414 86.3415 142.401 86.3232 142.392 86.3029C142.383 86.2826 142.378 86.2606 142.378 86.2384C142.378 86.2148 142.378 83.6207 141.216 81.9858C140.928 81.5652 140.696 81.2345 140.502 80.9651C139.897 80.1052 139.713 79.8453 139.605 79.4153C139.53 78.9125 139.53 78.4013 139.605 77.8985C139.613 77.8568 139.636 77.8196 139.67 77.7942C139.704 77.7689 139.747 77.7572 139.789 77.7615C139.81 77.7644 139.83 77.7715 139.849 77.7823C139.867 77.7932 139.883 77.8077 139.896 77.8248C139.909 77.842 139.918 77.8615 139.923 77.8823C139.928 77.9031 139.929 77.9246 139.926 77.9458C139.859 78.408 139.859 78.8774 139.926 79.3397C140.02 79.7083 140.181 79.9351 140.776 80.7809C140.965 81.0502 141.202 81.381 141.49 81.8015C142.539 83.3088 142.685 85.4729 142.709 86.0919L149.423 85.832C149.466 85.8319 149.507 85.8479 149.539 85.8768C149.57 85.9057 149.59 85.9454 149.593 85.988C149.595 86.0092 149.592 86.0305 149.584 86.0505C149.577 86.0706 149.566 86.0889 149.551 86.1044C149.537 86.1199 149.519 86.1322 149.499 86.1406C149.48 86.1491 149.459 86.1534 149.438 86.1533L142.558 86.418L142.539 86.3991Z" fill="white"/>
<path d="M165.04 116.99C162.049 116.99 158.25 115.052 158.08 114.967C158.042 114.947 158.014 114.913 158.002 114.872C157.989 114.832 157.993 114.788 158.014 114.75C158.023 114.731 158.036 114.714 158.052 114.7C158.068 114.686 158.087 114.676 158.107 114.669C158.128 114.662 158.149 114.66 158.17 114.662C158.191 114.663 158.212 114.669 158.231 114.679C158.273 114.703 162.592 116.905 165.55 116.645C165.572 116.643 165.593 116.645 165.614 116.652C165.634 116.658 165.653 116.669 165.67 116.683C165.686 116.697 165.699 116.715 165.709 116.734C165.718 116.753 165.724 116.774 165.725 116.796C165.727 116.817 165.725 116.838 165.718 116.859C165.712 116.879 165.702 116.898 165.688 116.914C165.675 116.93 165.658 116.943 165.639 116.953C165.62 116.963 165.6 116.969 165.578 116.971C165.404 116.985 165.224 116.99 165.04 116.99Z" fill="white"/>
<path d="M164.638 119.485H164.6C161.949 118.818 158.973 116.38 158.845 116.276C158.816 116.245 158.8 116.205 158.8 116.163C158.8 116.121 158.816 116.08 158.845 116.049C158.858 116.033 158.875 116.019 158.893 116.009C158.912 115.999 158.932 115.993 158.954 115.99C158.975 115.988 158.996 115.99 159.016 115.996C159.037 116.002 159.055 116.012 159.072 116.026C159.1 116.049 162.12 118.525 164.7 119.168C164.72 119.173 164.739 119.183 164.756 119.196C164.773 119.209 164.787 119.225 164.798 119.243C164.808 119.262 164.815 119.282 164.818 119.303C164.82 119.325 164.819 119.346 164.813 119.366C164.804 119.404 164.781 119.438 164.749 119.46C164.716 119.481 164.677 119.49 164.638 119.485Z" fill="white"/>
<path d="M142.406 83.8852C142.381 83.8852 142.355 83.8792 142.332 83.8678C142.309 83.8563 142.289 83.8396 142.274 83.8191C142.261 83.8015 142.253 83.7816 142.248 83.7606C142.243 83.7395 142.243 83.7178 142.247 83.6967C142.251 83.6755 142.259 83.6554 142.271 83.6374C142.283 83.6195 142.298 83.6041 142.316 83.5923C142.954 83.1481 143.965 82.2928 143.965 81.8723C143.965 81.5935 143.621 81.2628 143.252 80.9273C142.844 80.5866 142.507 80.1692 142.26 79.6987C142.019 79.1364 141.154 76.9298 141.315 76.3911C141.321 76.3709 141.331 76.3522 141.345 76.336C141.359 76.3198 141.376 76.3065 141.395 76.2968C141.413 76.2871 141.434 76.2813 141.455 76.2797C141.476 76.278 141.498 76.2806 141.518 76.2872C141.559 76.3012 141.593 76.3309 141.613 76.3698C141.632 76.4087 141.635 76.4537 141.622 76.4951C141.523 76.7833 142.038 78.3851 142.543 79.557C142.774 79.9841 143.086 80.3627 143.46 80.6721C143.899 81.0927 144.277 81.4518 144.277 81.8676C144.277 82.5952 142.671 83.7246 142.487 83.8521C142.463 83.8699 142.435 83.8813 142.406 83.8852Z" fill="white"/>
<path d="M126.662 84.8114C126.628 84.8127 126.594 84.8032 126.566 84.7841C126.537 84.7651 126.516 84.7375 126.504 84.7053C126.493 84.6732 126.492 84.6382 126.501 84.6055C126.511 84.5727 126.531 84.5439 126.558 84.5231L127.881 83.4647C129.152 82.4535 129.936 79.8689 129.946 79.8405C129.959 79.7995 129.987 79.7652 130.025 79.745C130.063 79.7247 130.108 79.72 130.149 79.7318C130.19 79.7449 130.224 79.7734 130.244 79.8114C130.265 79.8493 130.269 79.8936 130.258 79.935C130.225 80.0437 129.431 82.6425 128.084 83.7151L126.761 84.7736C126.733 84.7974 126.698 84.8108 126.662 84.8114Z" fill="white"/>
<path d="M158.075 144.443C158.051 144.442 158.028 144.436 158.007 144.425C157.986 144.415 157.967 144.4 157.952 144.381C156.26 142.307 154.733 140.105 153.383 137.794C151.554 134.525 146.295 125.58 146.238 125.509C145.751 124.433 145.39 123.304 145.161 122.145C145.128 121.965 145.104 121.8 145.081 121.672C144.906 120.481 144.83 119.99 143.247 118.969C141.664 117.949 141.565 116.172 141.433 114.268C141.405 113.819 141.371 113.356 141.319 112.898C141.107 111.008 136.089 102.502 132.427 96.3218C131.595 94.9042 130.839 93.6379 130.225 92.5842C126.946 86.9423 124.678 79.5239 124.654 79.4483C124.642 79.4069 124.647 79.3626 124.667 79.3246C124.687 79.2867 124.722 79.2582 124.763 79.2451C124.783 79.2386 124.804 79.2363 124.825 79.2383C124.846 79.2403 124.867 79.2466 124.885 79.2568C124.904 79.2669 124.92 79.2808 124.933 79.2975C124.946 79.3141 124.956 79.3333 124.961 79.3538C124.985 79.4294 127.243 86.8148 130.504 92.4188C131.118 93.4725 131.874 94.753 132.706 96.1564C136.386 102.37 141.423 110.885 141.641 112.86C141.693 113.332 141.726 113.805 141.759 114.249C141.886 116.139 141.995 117.783 143.422 118.7C145.128 119.796 145.213 120.368 145.402 121.62C145.402 121.776 145.449 121.937 145.478 122.116C145.702 123.241 146.054 124.336 146.527 125.381C146.569 125.462 151.833 134.406 153.666 137.667C155.008 139.959 156.524 142.144 158.202 144.202C158.216 144.218 158.226 144.237 158.232 144.257C158.238 144.278 158.24 144.299 158.238 144.32C158.236 144.341 158.229 144.362 158.219 144.38C158.209 144.399 158.195 144.415 158.179 144.428C158.147 144.444 158.11 144.449 158.075 144.443Z" fill="white"/>
<path d="M121.2 73.764C121.2 73.764 121.502 77.1094 122.825 78.1678C124.148 79.2262 128.117 80.1524 133.542 79.1128C138.966 78.0733 144.92 73.4426 145.449 71.8361C145.978 70.2295 143.285 66.0714 143.285 66.0714C143.285 66.0714 140.157 70.5131 131.425 71.9684C122.693 73.4237 121.2 73.764 121.2 73.764Z" fill="white"/>
<path d="M128.944 79.798C125.745 79.798 123.553 79.0562 122.674 78.3521C121.289 77.2417 120.978 73.9294 120.963 73.7876C120.958 73.7313 120.974 73.675 121.007 73.6291C121.04 73.5831 121.088 73.5505 121.143 73.5372C121.204 73.5372 122.745 73.1544 131.387 71.7133C139.892 70.2957 143.058 65.958 143.091 65.9155C143.113 65.8849 143.143 65.86 143.176 65.8428C143.21 65.8255 143.247 65.8165 143.285 65.8163C143.324 65.8171 143.362 65.8275 143.395 65.8464C143.429 65.8654 143.458 65.8924 143.479 65.925C143.762 66.3597 146.219 70.2437 145.671 71.8928C145.09 73.6317 138.999 78.2671 133.584 79.3255C132.056 79.6315 130.502 79.7898 128.944 79.798ZM121.459 73.953C121.549 74.6807 121.932 77.1472 122.972 77.9835C124.153 78.9286 127.938 79.9492 133.494 78.8624C138.957 77.7945 144.754 73.1592 145.227 71.7416C145.6 70.617 144.074 67.7772 143.261 66.4636C142.42 67.4701 139.046 70.9194 131.448 72.1811C124.446 73.3529 122.093 73.7971 121.459 73.953Z" fill="#777777"/>
<path d="M156.076 41.3353C153.917 39.9177 137.105 26.8196 135.522 26.2431C133.939 25.6667 130.796 26.2431 130.796 26.2431C130.796 26.2431 121.053 27.4339 119.012 28.2561C118.818 28.3317 114.429 30.8549 114.287 30.9872C112.704 32.2819 105.782 35.4666 103.92 39.4925C101.808 44.0475 120.368 71.4723 121.233 73.7687C122.097 76.0651 126.629 76.6321 130.796 76.0556C134.964 75.4792 138.621 74.6381 141.641 71.184C142.188 70.496 142.647 69.742 143.006 68.9396C143.438 68.043 143.548 67.0253 143.318 66.0572C142.241 61.5683 139.491 48.6262 137.676 40.0689C140.7 42.0204 146.99 45.9848 150.647 47.3835C155.533 49.2735 159.27 47.9599 159.27 46.377C159.27 44.7941 158.231 42.7717 156.076 41.3353Z" fill="white"/>
<path d="M150.24 44.1278C147.36 43.8435 144.569 42.9633 142.047 41.5432C142.047 41.5432 145.785 39.8185 145.926 38.9538C146.068 38.0891 140.752 38.812 141.471 38.5238C142.189 38.2356 143.195 37.5173 141.471 37.5173C140.096 37.4269 138.741 37.1372 137.449 36.6573L137.643 40.0547C139.288 41.1179 141.896 42.767 144.514 44.279C146.976 45.5735 149.511 46.7236 152.107 47.7236C152.107 47.7236 155.268 44.7043 150.24 44.1278Z" fill="#EEEEEE"/>
<g style="mix-blend-mode:multiply">
<path d="M130.763 76.051L131.297 75.9754C132.45 75.4178 134.402 75.0682 136.301 74.5957C139.174 73.8775 136.013 73.8775 131.269 71.4346C126.525 68.9917 124.654 65.4005 120.345 60.2265C116.035 55.0525 114.311 52.4631 115.175 51.8913C116.04 51.3196 113.451 51.3149 112.444 50.7384C111.438 50.1619 113.862 50.1667 115.893 48.1538C117.925 46.1408 112.009 48.5837 111.438 48.442C110.866 48.3002 112.009 46.4291 112.009 46.4291L107.842 50.7384L117.902 67.9852L118.478 68.4152L119.14 69.3602L121.03 73.4238C121.105 73.5656 121.157 73.6837 121.19 73.7641C122.06 76.0652 126.596 76.6322 130.763 76.051Z" fill="#EEEEEE"/>
</g>
<path d="M111.712 35.8683C114.892 35.3958 123.756 40.4517 123.756 40.4517C118.885 37.1441 114.623 34.0444 111.707 32.6458L106.335 36.4259L105.966 36.7708C106.59 36.648 108.981 36.2558 111.712 35.8683Z" fill="#EEEEEE"/>
<path opacity="0.5" d="M150.24 44.1278C147.36 43.8435 144.569 42.9633 142.047 41.5432C142.047 41.5432 145.785 39.8185 145.926 38.9538C146.068 38.0891 140.752 38.812 141.471 38.5238C142.189 38.2356 143.195 37.5173 141.471 37.5173C140.096 37.4269 138.741 37.1372 137.449 36.6573L137.643 40.0547C139.288 41.1179 141.896 42.767 144.514 44.279C146.976 45.5735 149.511 46.7236 152.107 47.7236C152.107 47.7236 155.268 44.7043 150.24 44.1278Z" fill="white"/>
<path opacity="0.5" d="M130.763 76.051L131.297 75.9754C132.45 75.4178 134.402 75.0682 136.301 74.5957C139.174 73.8775 136.013 73.8775 131.269 71.4346C126.525 68.9917 124.654 65.4005 120.345 60.2265C116.035 55.0525 114.311 52.4631 115.175 51.8913C116.04 51.3196 113.451 51.3149 112.444 50.7384C111.438 50.1619 113.862 50.1667 115.893 48.1538C117.925 46.1408 112.009 48.5837 111.438 48.442C110.866 48.3002 112.009 46.4291 112.009 46.4291L107.842 50.7384L117.902 67.9852L118.478 68.4152L119.14 69.3602L121.03 73.4238C121.105 73.5656 121.157 73.6837 121.19 73.7641C122.06 76.0652 126.596 76.6322 130.763 76.051Z" fill="white"/>
<path opacity="0.5" d="M111.712 35.8683C114.892 35.3958 123.756 40.4517 123.756 40.4517C118.885 37.1441 114.623 34.0444 111.707 32.6458L106.335 36.4259L105.966 36.7708C106.59 36.648 108.981 36.2558 111.712 35.8683Z" fill="white"/>
<path d="M127.739 76.4998C124.555 76.4998 121.686 75.739 120.978 73.849C120.77 73.2914 119.371 71.0139 117.599 68.1504C110.072 55.9406 102.167 42.6346 103.674 39.3885C105.092 36.3266 109.283 33.7986 112.057 32.1259C112.763 31.7244 113.446 31.2826 114.103 30.8029C114.273 30.6658 118.672 28.1332 118.908 28.0387C120.959 27.2118 130.352 26.0588 130.754 26.0116C130.872 25.9879 133.981 25.4304 135.602 26.0116C136.651 26.3943 143.838 31.8329 149.612 36.2037C152.74 38.5663 155.438 40.617 156.204 41.1273C158.613 42.7339 159.473 44.8791 159.473 46.3533C159.456 46.627 159.371 46.892 159.226 47.1246C159.081 47.3572 158.88 47.5501 158.642 47.6858C157.248 48.6308 154.2 48.9852 150.529 47.5819C147.963 46.599 143.635 44.175 137.993 40.5508C139.883 49.5522 142.477 61.677 143.512 65.9863C143.755 67.008 143.64 68.0824 143.186 69.0293C142.817 69.8539 142.34 70.6261 141.768 71.3257C138.612 74.931 134.77 75.7248 130.782 76.2729C129.774 76.4182 128.758 76.494 127.739 76.4998ZM133.599 26.2242C132.669 26.2382 131.742 26.3219 130.825 26.4746C130.711 26.4746 121.077 27.6701 119.083 28.4734C118.823 28.5915 114.613 31.0155 114.4 31.1714C113.728 31.6658 113.025 32.1187 112.298 32.5275C109.576 34.1719 105.465 36.6573 104.104 39.6153C102.573 42.9229 112.609 59.1821 118.001 67.9283C119.924 71.0469 121.195 73.126 121.422 73.7072C122.258 75.9375 126.832 76.3769 130.73 75.8382C134.629 75.2996 138.38 74.5294 141.428 71.0469C141.964 70.3758 142.412 69.639 142.761 68.8545C143.167 68.0075 143.27 67.0468 143.054 66.1328C141.995 61.729 139.33 49.1837 137.412 40.1445C137.402 40.0983 137.407 40.0504 137.425 40.0068C137.442 39.9631 137.472 39.9256 137.511 39.8988C137.55 39.8734 137.595 39.8598 137.641 39.8598C137.687 39.8598 137.732 39.8734 137.771 39.8988C143.621 43.6789 148.091 46.1974 150.699 47.1897C154.186 48.5269 157.125 48.2103 158.372 47.3503C158.544 47.2534 158.691 47.1173 158.8 46.9531C158.909 46.7889 158.978 46.6012 159.001 46.4053C159.001 45.0539 158.198 43.0741 155.944 41.5715C155.164 41.0517 152.461 39.0057 149.329 36.6337C143.88 32.5134 136.424 26.8668 135.441 26.5077C134.847 26.3133 134.224 26.2176 133.599 26.2242Z" fill="#777777"/>
<path d="M106.197 36.5487C106.197 36.5487 104.473 38.4388 103.802 39.3129C100.201 43.9388 88.7427 58.7616 88.6152 59.9571C88.4876 61.1526 89.031 61.9558 91.833 63.0332C94.635 64.1105 113.38 45.328 113.38 45.328" fill="white"/>
<g style="mix-blend-mode:multiply" opacity="0.8">
<path d="M106.226 36.6055L105.985 36.7614C105.635 37.1489 104.879 37.9947 104.293 38.6893L95.5894 50.1052C95.5894 50.1052 95.3201 50.4076 94.8948 50.9085C91.6298 55.2604 88.7852 59.187 88.6104 59.8863C88.6104 59.9099 88.6104 59.9335 88.6104 59.9524C88.497 61.0817 89.0451 61.9417 91.8329 63.0143C92.3291 63.2033 93.3119 62.7781 94.6019 61.9512C93.9465 61.8194 93.3205 61.5696 92.7543 61.214C91.1714 60.2076 92.4661 59.2011 92.4661 59.2011C92.4661 59.2011 94.5216 60.0233 96.5486 60.5761C96.9692 60.2596 97.4086 59.9193 97.8575 59.5602C97.4257 59.2774 97.0165 58.9614 96.6337 58.6152C94.909 57.037 93.4726 55.4541 93.4726 55.4541L106.646 37.0685L106.226 36.6055Z" fill="#EEEEEE"/>
</g>
<path opacity="0.5" d="M106.226 36.6055L105.985 36.7614C105.635 37.1489 104.879 37.9947 104.293 38.6893L95.5894 50.1052C95.5894 50.1052 95.3201 50.4076 94.8948 50.9085C91.6298 55.2604 88.7852 59.187 88.6104 59.8863C88.6104 59.9099 88.6104 59.9335 88.6104 59.9524C88.497 61.0817 89.0451 61.9417 91.8329 63.0143C92.3291 63.2033 93.3119 62.7781 94.6019 61.9512C93.9465 61.8194 93.3205 61.5696 92.7543 61.214C91.1714 60.2076 92.4661 59.2011 92.4661 59.2011C92.4661 59.2011 94.5216 60.0233 96.5486 60.5761C96.9692 60.2596 97.4086 59.9193 97.8575 59.5602C97.4257 59.2774 97.0165 58.9614 96.6337 58.6152C94.909 57.037 93.4726 55.4541 93.4726 55.4541L106.646 37.0685L106.226 36.6055Z" fill="white"/>
<path d="M92.0504 63.3072C91.9442 63.3085 91.8386 63.2909 91.7386 63.2553C89.1303 62.2488 88.2136 61.3652 88.3696 59.9476C88.4971 58.7711 97.9711 46.4337 103.603 39.1854C104.274 38.3254 105.942 36.4873 106.013 36.4117C106.033 36.3866 106.058 36.3659 106.087 36.3508C106.115 36.3357 106.147 36.3267 106.179 36.3241C106.211 36.3216 106.243 36.3256 106.274 36.336C106.304 36.3464 106.332 36.3629 106.356 36.3845C106.38 36.4061 106.399 36.4324 106.412 36.4617C106.426 36.491 106.433 36.5227 106.434 36.5549C106.434 36.5871 106.428 36.6191 106.416 36.6489C106.404 36.6787 106.386 36.7057 106.363 36.7283C106.363 36.7283 104.634 38.6183 103.977 39.4783C94.8761 51.1872 88.9318 59.2436 88.8562 59.9996C88.7476 61.0061 89.2154 61.7905 91.9276 62.8347C93.8791 63.586 105.73 52.6851 113.219 45.1768C113.264 45.1323 113.324 45.1074 113.387 45.1074C113.45 45.1074 113.51 45.1323 113.555 45.1768C113.599 45.2213 113.624 45.2817 113.624 45.3446C113.624 45.4075 113.599 45.4678 113.555 45.5123C111.679 47.3646 95.6699 63.3072 92.0504 63.3072Z" fill="#777777"/>
<path d="M144.126 35.6887L137.643 40.0548C138.588 39.9224 143.068 38.3348 143.068 38.3348" fill="white"/>
<path d="M137.643 40.291C137.596 40.2917 137.549 40.2775 137.51 40.2504C137.471 40.2233 137.442 40.1846 137.426 40.1398C137.406 40.0906 137.404 40.0361 137.419 39.9853C137.434 39.9346 137.467 39.8907 137.511 39.861L143.999 35.495C144.024 35.4772 144.052 35.4647 144.083 35.4581C144.113 35.4516 144.144 35.4512 144.175 35.4569C144.205 35.4626 144.234 35.4744 144.26 35.4915C144.285 35.5085 144.307 35.5306 144.325 35.5564C144.359 35.6092 144.371 35.6734 144.359 35.7353C144.347 35.7971 144.311 35.8516 144.258 35.8872L138.943 39.4688C140.573 38.968 142.959 38.1269 142.992 38.1127C143.055 38.092 143.123 38.0971 143.182 38.1268C143.241 38.1565 143.286 38.2083 143.306 38.271C143.327 38.3337 143.322 38.402 143.292 38.4609C143.263 38.5198 143.211 38.5645 143.148 38.5852C142.964 38.6466 138.617 40.1823 137.676 40.3146L137.643 40.291Z" fill="#777777"/>
<path d="M143.862 38.4387C143.807 38.4376 143.754 38.4178 143.712 38.3826C143.67 38.3474 143.641 38.2988 143.63 38.245C143.619 38.1836 143.633 38.1204 143.668 38.069C143.704 38.0177 143.758 37.9824 143.819 37.9709L145.275 37.7063C145.337 37.6952 145.4 37.7087 145.452 37.744C145.505 37.7794 145.541 37.8337 145.553 37.8953C145.559 37.9264 145.559 37.9584 145.553 37.9894C145.546 38.0204 145.534 38.0498 145.516 38.0758C145.497 38.1018 145.474 38.1239 145.448 38.1408C145.421 38.1577 145.391 38.169 145.36 38.1741L143.904 38.4387H143.862Z" fill="#777777"/>
<path d="M95.8305 55.3689C94.83 55.3391 93.8351 55.5277 92.915 55.9217L95.8305 55.3689Z" fill="white"/>
<path d="M92.915 56.1723C92.8524 56.1842 92.7875 56.1707 92.7348 56.1348C92.6821 56.0989 92.6458 56.0436 92.6339 55.9809C92.622 55.9182 92.6354 55.8534 92.6713 55.8007C92.7072 55.748 92.7626 55.7117 92.8252 55.6998C93.7792 55.29 94.8116 55.0948 95.8493 55.128C95.8804 55.1304 95.9107 55.1389 95.9384 55.153C95.9662 55.1672 95.9909 55.1867 96.0111 55.2104C96.0313 55.2341 96.0466 55.2616 96.0561 55.2912C96.0657 55.3209 96.0693 55.3521 96.0667 55.3832C96.0607 55.4454 96.0307 55.5029 95.9831 55.5435C95.9355 55.584 95.874 55.6045 95.8115 55.6005C94.8498 55.5726 93.8936 55.7548 93.0095 56.1345C92.9813 56.1541 92.949 56.167 92.915 56.1723Z" fill="#777777"/>
<path d="M109.958 48.8907C109.958 48.8907 113.602 47.7756 114.566 47.0338L109.958 48.8907Z" fill="white"/>
<path d="M109.959 49.127C109.896 49.1357 109.832 49.1193 109.782 49.0812C109.731 49.0431 109.698 48.9864 109.689 48.9238C109.681 48.8611 109.697 48.7976 109.735 48.747C109.773 48.6965 109.83 48.6632 109.893 48.6545C109.926 48.6545 113.503 47.5488 114.424 46.84C114.473 46.8019 114.536 46.785 114.598 46.7929C114.66 46.8009 114.716 46.8331 114.755 46.8825C114.792 46.9325 114.808 46.9948 114.8 47.0564C114.792 47.1181 114.761 47.1743 114.712 47.2133C113.72 47.974 110.181 49.0608 110.03 49.1033C110.008 49.116 109.984 49.124 109.959 49.127Z" fill="#777777"/>
<path d="M115.458 46.6652C115.458 46.6652 116.054 46.1454 116.276 46.1454L115.458 46.6652Z" fill="white"/>
<path d="M115.459 46.9015C115.425 46.9012 115.392 46.8939 115.361 46.88C115.33 46.8662 115.302 46.8462 115.279 46.8211C115.236 46.7762 115.211 46.716 115.211 46.6534C115.211 46.5908 115.236 46.5306 115.279 46.4856C115.547 46.21 115.883 46.011 116.253 45.9092C116.315 45.9092 116.376 45.9341 116.42 45.9784C116.464 46.0227 116.489 46.0828 116.489 46.1454C116.488 46.2077 116.463 46.2671 116.418 46.3112C116.374 46.3552 116.315 46.3805 116.253 46.3817C116.009 46.5044 115.786 46.6637 115.591 46.8542C115.553 46.8836 115.507 46.9001 115.459 46.9015Z" fill="#777777"/>
<path d="M137.643 40.291C137.585 40.2902 137.529 40.2683 137.485 40.2291C137.442 40.19 137.414 40.1364 137.407 40.0784L136.816 34.0065C136.813 33.9755 136.816 33.9442 136.825 33.9143C136.834 33.8845 136.849 33.8567 136.869 33.8326C136.889 33.8084 136.913 33.7884 136.94 33.7737C136.968 33.7589 136.998 33.7498 137.029 33.7467C137.06 33.7436 137.091 33.7466 137.121 33.7556C137.151 33.7646 137.179 33.7794 137.203 33.7992C137.227 33.8189 137.247 33.8432 137.262 33.8707C137.277 33.8982 137.286 33.9283 137.289 33.9593L137.884 40.0358C137.888 40.0666 137.885 40.0978 137.876 40.1274C137.867 40.157 137.852 40.1846 137.832 40.2084C137.812 40.2321 137.788 40.2517 137.76 40.2659C137.733 40.2801 137.702 40.2886 137.672 40.291H137.643Z" fill="#777777"/>
<path d="M88.601 60.0186C88.601 60.0186 87.7646 63.2175 93.1277 64.5453C95.6745 65.1737 112.529 69.2704 112.529 69.2704C112.529 69.2704 114.036 66.0384 113.176 66.0384C112.316 66.0384 96.7755 55.7045 96.7755 55.7045" fill="white"/>
<path d="M91.1053 63.8412L110.649 68.8309L111.168 67.5929C111.168 67.5929 103.807 66.1187 99.209 63.8128C94.6114 61.507 94.3184 62.2299 92.7402 61.2282C91.162 60.2264 92.452 59.2153 92.452 59.2153C92.452 59.2153 96.7661 60.9399 99.0672 61.0817C101.368 61.2234 98.349 60.2217 96.6243 58.6388C95.9108 57.9867 95.2493 57.3299 94.7342 56.7913L88.5916 60.0138C88.5916 60.0138 87.9962 62.3339 91.1053 63.8412Z" fill="#EEEEEE"/>
<path opacity="0.5" d="M91.1053 63.8412L110.649 68.8309L111.168 67.5929C111.168 67.5929 103.807 66.1187 99.209 63.8128C94.6114 61.507 94.3184 62.2299 92.7402 61.2282C91.162 60.2264 92.452 59.2153 92.452 59.2153C92.452 59.2153 96.7661 60.9399 99.0672 61.0817C101.368 61.2234 98.349 60.2217 96.6243 58.6388C95.9108 57.9867 95.2493 57.3299 94.7342 56.7913L88.5916 60.0138C88.5916 60.0138 87.9962 62.3339 91.1053 63.8412Z" fill="white"/>
<path d="M112.529 69.5444H112.472C112.472 69.5444 95.6177 65.4288 93.0708 64.8193C90.9445 64.2948 89.5033 63.4017 88.7898 62.2157C88.3742 61.5586 88.2255 60.7675 88.374 60.0044C88.3907 59.9442 88.43 59.8928 88.4838 59.8611C88.5376 59.8294 88.6015 59.8197 88.6623 59.8342C88.7222 59.8508 88.7732 59.8904 88.8042 59.9444C88.8351 59.9983 88.8436 60.0623 88.8276 60.1225C88.7207 60.7684 88.8552 61.4311 89.2056 61.9842C89.853 63.071 91.1949 63.8742 93.1842 64.3468C95.5468 64.9374 110.535 68.5994 112.397 69.0436C112.978 67.7583 113.342 66.5109 113.176 66.3171C112.279 66.3171 99.2608 57.6701 96.6619 55.9218C96.6098 55.8863 96.5737 55.8318 96.5613 55.7699C96.549 55.7081 96.5613 55.6439 96.5958 55.5911C96.6129 55.5653 96.635 55.5432 96.6607 55.5261C96.6865 55.509 96.7154 55.4973 96.7458 55.4916C96.7762 55.4858 96.8074 55.4862 96.8377 55.4928C96.8679 55.4993 96.8965 55.5119 96.9218 55.5296C103.041 59.6074 112.425 65.7171 113.186 65.8352C113.263 65.8364 113.338 65.8563 113.406 65.8934C113.473 65.9305 113.531 65.9835 113.573 66.0478C113.965 66.6668 113.035 68.7742 112.737 69.4074C112.718 69.4473 112.689 69.4813 112.652 69.5055C112.616 69.5297 112.573 69.5432 112.529 69.5444Z" fill="#777777"/>
<path d="M113.176 66.0526C113.176 66.0526 118.709 68.6419 119.139 69.3602C119.569 70.0784 120.557 73.8112 120.557 74.9642C120.557 76.1171 120.415 76.1124 119.697 76.1124C118.979 76.1124 117.107 73.3813 116.677 72.8048C116.247 72.2283 115.26 72.2283 113.946 71.3872C113.58 71.155 113.266 70.8504 113.022 70.492C112.778 70.1336 112.61 69.7291 112.529 69.3035L113.176 66.0526Z" fill="white"/>
<path d="M119.716 76.3486C119.097 76.3486 118.077 75.1154 116.735 73.2631C116.64 73.1308 116.565 73.0221 116.508 72.9512C116.238 72.6828 115.9 72.4933 115.53 72.4031C114.934 72.1913 114.364 71.9106 113.833 71.5668C113.436 71.3167 113.094 70.9876 112.829 70.5999C112.564 70.2122 112.382 69.7741 112.293 69.3129C112.291 69.2893 112.291 69.2656 112.293 69.242L112.94 66.0053C112.948 65.9705 112.962 65.9376 112.984 65.9091C113.005 65.8805 113.032 65.8569 113.063 65.8399C113.095 65.8237 113.131 65.8152 113.167 65.8152C113.203 65.8152 113.239 65.8237 113.271 65.8399C114.216 66.2746 118.894 68.4954 119.338 69.2373C119.782 69.9791 120.808 73.7781 120.808 74.9642C120.808 76.1502 120.59 76.3486 119.716 76.3486ZM112.77 69.294C112.854 69.6816 113.015 70.0485 113.243 70.373C113.471 70.6976 113.762 70.9733 114.098 71.184C114.6 71.5069 115.137 71.7701 115.7 71.9684C116.155 72.0866 116.566 72.3326 116.886 72.6772C116.943 72.7481 117.023 72.8567 117.117 72.9938C118.847 75.3847 119.48 75.8856 119.716 75.8856C120.34 75.8856 120.34 75.8856 120.34 74.9736C120.34 73.8585 119.357 70.187 118.922 69.4877C118.648 69.0152 115.459 67.4086 113.333 66.4022L112.77 69.294Z" fill="#777777"/>
<path d="M110.814 68.968C110.791 68.9724 110.767 68.9724 110.743 68.968C110.713 68.9589 110.686 68.9439 110.662 68.9238C110.638 68.9038 110.618 68.8791 110.604 68.8513C110.59 68.8235 110.582 68.7932 110.58 68.7621C110.578 68.731 110.582 68.6997 110.592 68.6703L111.452 66.0006C111.461 65.97 111.475 65.9416 111.495 65.9169C111.515 65.8922 111.54 65.8717 111.568 65.8568C111.596 65.8419 111.627 65.8328 111.659 65.83C111.69 65.8273 111.722 65.831 111.752 65.8408C111.783 65.8507 111.811 65.8665 111.834 65.8874C111.858 65.9083 111.878 65.9338 111.892 65.9624C111.906 65.991 111.914 66.0221 111.915 66.0538C111.917 66.0855 111.912 66.1173 111.901 66.1471L111.041 68.8168C111.023 68.8619 110.991 68.9005 110.951 68.9275C110.91 68.9545 110.863 68.9686 110.814 68.968Z" fill="#777777"/>
<path d="M152.768 45.9187C152.768 45.9187 151.351 50.8045 150.756 53.6773C150.16 56.5502 146.158 68.0512 146.158 68.0512L149.607 70.2059C149.607 70.2059 157.224 54.4239 158.675 50.9651C160.125 47.5063 159.681 44.9264 158.245 43.4899" fill="white"/>
<path d="M149.607 70.4563C149.564 70.4553 149.521 70.4422 149.485 70.4185L146.035 68.2638C145.989 68.2356 145.955 68.1926 145.937 68.1419C145.918 68.0912 145.918 68.0359 145.936 67.985C145.974 67.8716 149.962 56.4698 150.524 53.6489C151.086 50.828 152.532 45.9186 152.532 45.8666C152.55 45.804 152.592 45.7508 152.648 45.7189C152.705 45.687 152.772 45.679 152.835 45.6965C152.897 45.7141 152.95 45.7558 152.982 45.8125C153.014 45.8692 153.022 45.9363 153.005 45.9989C153.005 46.0462 151.564 50.9083 150.997 53.7387C150.458 56.4368 146.985 66.4446 146.451 67.9661L149.518 69.8798C150.463 67.8905 157.13 54.0458 158.453 50.8705C159.729 47.8039 159.592 45.2004 158.075 43.6552C158.031 43.6114 158.006 43.5519 158.006 43.4899C158.006 43.4278 158.031 43.3683 158.075 43.3245C158.119 43.2806 158.178 43.256 158.24 43.256C158.302 43.256 158.362 43.2806 158.406 43.3245C160.069 44.983 160.244 47.8039 158.878 51.0548C157.461 54.4711 149.9 70.1633 149.82 70.324C149.806 70.3539 149.786 70.3804 149.76 70.4016C149.735 70.4228 149.705 70.4383 149.674 70.4468L149.607 70.4563Z" fill="#777777"/>
<path d="M146.81 66.4069C147.07 66.4069 150.344 68.2119 150.344 68.2119L146.81 66.4069Z" fill="#777777"/>
<path d="M124.148 40.4517C123.354 40.3194 119.116 37.541 116.205 35.2918C113.294 33.0427 111.707 32.6458 111.707 32.6458L109.722 33.9688C109.422 33.0018 109.517 31.9551 109.987 31.0581C110.781 29.6028 113.559 28.1474 116.337 27.089C119.116 26.0306 122.291 25.1281 124.28 25.1281C126.27 25.1281 126.794 25.9219 126.794 26.9803C126.794 28.0387 126.794 31.3463 126.133 33.8601C125.471 36.3739 124.148 40.4517 124.148 40.4517Z" fill="white"/>
<g style="mix-blend-mode:multiply">
<path d="M122.901 26.6542C122.901 26.6542 121.677 30.3209 120.453 31.4219C119.508 32.2143 118.485 32.9093 117.401 33.4962C117.401 33.4962 116.668 30.9304 114.835 30.9304C113.002 30.9304 110.19 32.1542 110.19 32.1542C110.19 32.1542 110.19 31.1761 112.51 29.9523L114.835 28.7332L120.212 26.6542H122.901Z" fill="#EEEEEE"/>
</g>
<path opacity="0.5" d="M122.901 26.6542C122.901 26.6542 121.677 30.3209 120.453 31.4219C119.508 32.2143 118.485 32.9093 117.401 33.4962C117.401 33.4962 116.668 30.9304 114.835 30.9304C113.002 30.9304 110.19 32.1542 110.19 32.1542C110.19 32.1542 110.19 31.1761 112.51 29.9523L114.835 28.7332L120.212 26.6542H122.901Z" fill="white"/>
<path d="M124.148 40.6879H124.106C123.227 40.5414 118.875 37.6544 116.073 35.4902C113.64 33.6002 112.137 33.0379 111.754 32.915L109.864 34.1767C109.833 34.1953 109.799 34.2074 109.763 34.2123C109.727 34.2172 109.691 34.2147 109.656 34.205C109.622 34.1933 109.592 34.1741 109.566 34.1487C109.541 34.1233 109.521 34.0925 109.51 34.0585C109.348 33.5485 109.289 33.0113 109.337 32.4783C109.385 31.9453 109.538 31.4271 109.789 30.9541C110.734 29.1869 114.259 27.6465 116.267 26.8763C117.845 26.2762 121.786 24.8776 124.3 24.8776C126.147 24.8776 127.05 25.558 127.05 26.9661C127.05 28.0529 127.05 31.3652 126.379 33.9073C125.708 36.4495 124.403 40.4942 124.389 40.5225C124.374 40.5736 124.342 40.6179 124.298 40.648C124.254 40.6782 124.201 40.6922 124.148 40.6879ZM111.707 32.4095H111.764C111.83 32.4095 113.436 32.8442 116.352 35.0981C119.088 37.2102 122.901 39.724 123.992 40.154C124.276 39.2656 125.339 35.9013 125.882 33.7656C126.539 31.2849 126.539 28.0198 126.539 26.9472C126.539 26.1486 126.27 25.3312 124.262 25.3312C122.551 25.3312 119.688 26.0494 116.404 27.3016C113.12 28.5537 110.828 29.9665 110.176 31.162C109.785 31.9046 109.668 32.761 109.845 33.5813L111.556 32.4425C111.601 32.4145 111.654 32.4028 111.707 32.4095Z" fill="#777777"/>
<path d="M112.368 23.6585C113.919 25.368 115.007 27.4449 115.53 29.6925C116.39 33.4301 121.795 37.8245 123.09 37.8245C124.384 37.8245 124.295 31.4172 123.865 29.5508C123.435 27.6844 121.71 22.6521 121.71 22.6521C121.71 22.6521 114.83 19.3445 112.368 23.6585Z" fill="white"/>
<path d="M123.109 38.0608C121.719 38.0608 116.191 33.5436 115.317 29.7445C114.799 27.5415 113.732 25.505 112.217 23.8239C112.181 23.7873 112.157 23.7397 112.151 23.6885C112.144 23.6373 112.154 23.5853 112.179 23.5404C114.703 19.0893 121.757 22.4017 121.828 22.4395C121.857 22.4529 121.882 22.472 121.903 22.4955C121.925 22.5191 121.941 22.5466 121.951 22.5765C122.022 22.7797 123.685 27.6371 124.115 29.4988C124.488 31.1337 124.663 36.5062 123.671 37.7584C123.607 37.849 123.523 37.9235 123.426 37.976C123.328 38.0285 123.219 38.0575 123.109 38.0608ZM112.68 23.6255C114.196 25.342 115.26 27.4094 115.775 29.6406C116.635 33.3498 122.008 37.5883 123.109 37.5883C123.109 37.5883 123.198 37.5883 123.298 37.4607C124.101 36.4543 124.049 31.318 123.652 29.6028C123.255 27.8876 121.762 23.531 121.535 22.8222C120.746 22.4725 114.911 20.0296 112.68 23.6255Z" fill="#777777"/>
<g style="mix-blend-mode:multiply">
<path d="M122.901 26.6543C122.901 26.6543 121.677 30.321 120.453 31.422C119.508 32.2144 118.485 32.9094 117.401 33.4963C117.401 33.4963 116.668 30.9306 114.835 30.9306C113.002 30.9306 110.19 32.1544 110.19 32.1544C110.19 32.1544 110.19 31.1763 112.51 29.9525L114.835 28.7334L120.212 26.6543H122.901Z" fill="#EEEEEE"/>
</g>
<path opacity="0.5" d="M122.901 26.6543C122.901 26.6543 121.677 30.321 120.453 31.422C119.508 32.2144 118.485 32.9094 117.401 33.4963C117.401 33.4963 116.668 30.9306 114.835 30.9306C113.002 30.9306 110.19 32.1544 110.19 32.1544C110.19 32.1544 110.19 31.1763 112.51 29.9525L114.835 28.7334L120.212 26.6543H122.901Z" fill="white"/>
<path d="M112.368 23.6585C113.919 25.368 115.007 27.4449 115.53 29.6925C116.39 33.4301 121.795 37.8245 123.09 37.8245C124.384 37.8245 124.295 31.4172 123.865 29.5508C123.435 27.6844 121.71 22.6521 121.71 22.6521C121.71 22.6521 114.83 19.3445 112.368 23.6585Z" fill="white"/>
<path d="M123.109 38.0608C121.719 38.0608 116.191 33.5436 115.317 29.7445C114.799 27.5415 113.732 25.505 112.217 23.8239C112.181 23.7873 112.157 23.7397 112.151 23.6885C112.144 23.6373 112.154 23.5853 112.179 23.5404C114.703 19.0893 121.757 22.4017 121.828 22.4395C121.857 22.4529 121.882 22.472 121.903 22.4955C121.925 22.5191 121.941 22.5466 121.951 22.5765C122.022 22.7797 123.685 27.6371 124.115 29.4988C124.488 31.1337 124.663 36.5062 123.671 37.7584C123.607 37.849 123.523 37.9235 123.426 37.976C123.328 38.0285 123.219 38.0575 123.109 38.0608ZM112.68 23.6255C114.196 25.342 115.26 27.4094 115.775 29.6406C116.635 33.3498 122.008 37.5883 123.109 37.5883C123.109 37.5883 123.198 37.5883 123.298 37.4607C124.101 36.4543 124.049 31.318 123.652 29.6028C123.255 27.8876 121.762 23.531 121.535 22.8222C120.746 22.4725 114.911 20.0296 112.68 23.6255Z" fill="#777777"/>
<path d="M107.827 16.7314C108.841 19.4883 110.095 22.1509 111.574 24.6886C113.757 28.275 117.972 30.3068 120.311 29.3712C122.65 28.4356 124.242 25.4163 123.619 20.7384C123.482 19.7083 122.584 19.2877 122.296 18.3758C121.261 15.0682 120.207 11.8787 119.843 10.6643C119.371 9.10032 115.628 7.54102 111.73 8.63253C107.832 9.72404 107.204 12.9844 107.827 16.7314Z" fill="white"/>
<path d="M120.779 13.868C120.779 13.868 119.362 14.9217 116.177 14.3121C112.992 13.7026 110.8 13.8396 110.922 14.6807C111.045 15.5218 111.291 16.6322 111.291 16.6322C111.291 16.6322 107.468 13.3246 110.932 12.4457C113.427 11.7984 114.868 12.7812 115.478 12.9182C116.087 13.0553 120.779 13.868 120.779 13.868Z" fill="#EEEEEE"/>
<path opacity="0.5" d="M120.779 13.868C120.779 13.868 119.362 14.9217 116.177 14.3121C112.992 13.7026 110.8 13.8396 110.922 14.6807C111.045 15.5218 111.291 16.6322 111.291 16.6322C111.291 16.6322 107.468 13.3246 110.932 12.4457C113.427 11.7984 114.868 12.7812 115.478 12.9182C116.087 13.0553 120.779 13.868 120.779 13.868Z" fill="white"/>
<path d="M119.007 29.8532C116.47 29.8532 113.167 27.7789 111.371 24.8257C109.879 22.2734 108.614 19.595 107.591 16.8213C107.589 16.8088 107.589 16.7959 107.591 16.7835C106.812 12.1292 108.144 9.38389 111.66 8.40106C115.738 7.25758 119.57 8.93973 120.066 10.5888C120.236 11.1606 120.538 12.1623 120.959 13.4239C121.431 14.8414 121.965 16.5567 122.513 18.3144C122.651 18.6641 122.853 18.9848 123.109 19.2595C123.491 19.6606 123.747 20.1649 123.846 20.7101C124.545 25.9597 122.523 28.7428 120.397 29.5933C119.954 29.7678 119.483 29.856 119.007 29.8532ZM108.059 16.6701C109.066 19.4047 110.309 22.0465 111.773 24.5658C113.97 28.1711 118.124 29.9903 120.226 29.1492C122.187 28.3648 124.049 25.7518 123.383 20.7668C123.296 20.3114 123.081 19.8901 122.764 19.5524C122.465 19.225 122.235 18.841 122.088 18.4231C121.54 16.6701 120.987 14.9501 120.534 13.5373C120.132 12.2899 119.811 11.2834 119.636 10.7022C119.239 9.38862 115.747 7.73009 111.811 8.81215C108.56 9.74773 107.336 12.3088 108.059 16.6701Z" fill="#777777"/>
<path d="M110.639 21.8771C110.639 21.8771 108.14 20.7856 107.984 21.8771C107.828 22.9687 108.929 23.7672 110.011 24.2397C110.28 24.3873 110.588 24.4513 110.894 24.4235C111.201 24.3958 111.492 24.2775 111.731 24.0838" fill="white"/>
<path d="M110.8 24.6556C110.497 24.6518 110.197 24.5858 109.921 24.4618C108.376 23.8003 107.606 22.8789 107.752 21.8677C107.764 21.7521 107.805 21.6413 107.87 21.545C107.935 21.4486 108.023 21.3696 108.125 21.3149C108.877 20.8943 110.545 21.6031 110.734 21.6882C110.787 21.7162 110.827 21.7635 110.847 21.8203C110.866 21.8772 110.864 21.9394 110.839 21.9942C110.814 22.0491 110.769 22.0924 110.714 22.1154C110.658 22.1385 110.596 22.1394 110.54 22.1182C109.916 21.8441 108.768 21.4992 108.352 21.726C108.314 21.7466 108.282 21.7765 108.259 21.8129C108.236 21.8492 108.222 21.8909 108.22 21.9339C108.069 22.9876 109.335 23.6964 110.11 24.0271C110.337 24.1535 110.597 24.2106 110.856 24.1913C111.116 24.172 111.364 24.0771 111.57 23.9184C111.615 23.88 111.674 23.8602 111.733 23.8629C111.793 23.8656 111.849 23.8907 111.891 23.933C111.932 23.9754 111.957 24.032 111.959 24.0915C111.96 24.151 111.94 24.209 111.901 24.2539C111.598 24.5221 111.204 24.6656 110.8 24.6556Z" fill="#777777"/>
<path d="M120.841 15.7061C120.841 15.7061 118.058 15.0446 119.248 18.7538C119.485 19.4862 121.105 20.3415 121.105 20.3415C121.105 20.3415 120.973 21.5322 120.312 21.6645" fill="white"/>
<path d="M120.307 21.9008C120.252 21.8999 120.2 21.8808 120.158 21.8465C120.116 21.8122 120.087 21.7647 120.075 21.7118C120.069 21.681 120.069 21.6494 120.075 21.6186C120.081 21.5879 120.094 21.5587 120.111 21.5328C120.129 21.5068 120.151 21.4846 120.178 21.4675C120.204 21.4504 120.233 21.4386 120.264 21.433C120.604 21.3621 120.779 20.7998 120.845 20.4879C120.411 20.2422 119.248 19.5429 119.026 18.8436C118.582 17.4638 118.62 16.481 119.135 15.9234C119.768 15.2383 120.845 15.4887 120.893 15.4982C120.953 15.5128 121.006 15.5508 121.039 15.6039C121.071 15.657 121.082 15.7209 121.067 15.7817C121.061 15.8121 121.048 15.8408 121.03 15.8661C121.012 15.8915 120.989 15.913 120.963 15.9293C120.936 15.9456 120.907 15.9564 120.876 15.9611C120.845 15.9658 120.814 15.9642 120.784 15.9565C120.784 15.9565 119.924 15.7628 119.48 16.2448C119.036 16.7267 119.092 17.5111 119.48 18.6971C119.631 19.1696 120.628 19.8359 121.219 20.1477C121.26 20.1711 121.293 20.2059 121.315 20.2478C121.337 20.2897 121.346 20.337 121.342 20.384C121.342 20.5257 121.167 21.7543 120.359 21.9149L120.307 21.9008Z" fill="#777777"/>
<path d="M118.851 24.3106C118.851 24.3106 116.867 24.7075 116.073 23.7814L118.851 24.3106Z" fill="white"/>
<path d="M117.901 24.6556C117.536 24.6845 117.169 24.6373 116.824 24.5169C116.478 24.3965 116.161 24.2056 115.893 23.9562C115.873 23.9327 115.858 23.9053 115.848 23.8758C115.838 23.8463 115.835 23.8152 115.837 23.7843C115.84 23.7534 115.848 23.7232 115.862 23.6956C115.876 23.6679 115.896 23.6433 115.919 23.6231C115.943 23.603 115.97 23.5876 116 23.578C116.029 23.5684 116.06 23.5647 116.091 23.5671C116.122 23.5695 116.152 23.578 116.18 23.5921C116.207 23.6061 116.232 23.6255 116.252 23.6491C116.947 24.4618 118.79 24.1216 118.809 24.1216C118.839 24.1148 118.87 24.1142 118.9 24.1198C118.931 24.1255 118.96 24.1373 118.985 24.1546C119.011 24.1718 119.033 24.1942 119.05 24.2202C119.066 24.2462 119.078 24.2754 119.083 24.3059C119.089 24.3363 119.089 24.3676 119.083 24.3981C119.077 24.4286 119.065 24.4576 119.048 24.4835C119.031 24.5094 119.009 24.5316 118.983 24.549C118.958 24.5664 118.929 24.5785 118.898 24.5847C118.569 24.6369 118.235 24.6607 117.901 24.6556Z" fill="#777777"/>
<path d="M115.941 18.0923C115.941 18.0923 114.485 17.563 113.691 18.2246C113.266 18.5203 112.938 18.9344 112.746 19.4153" fill="white"/>
<path d="M112.765 19.6469H112.708C112.678 19.6391 112.65 19.6256 112.625 19.6069C112.6 19.5882 112.579 19.5648 112.564 19.5381C112.548 19.5113 112.537 19.4816 112.533 19.4509C112.529 19.4201 112.531 19.3887 112.538 19.3586C112.736 18.8319 113.084 18.375 113.54 18.045C114.428 17.3079 115.959 17.8513 116.021 17.8749C116.05 17.8849 116.078 17.9008 116.101 17.9216C116.124 17.9424 116.143 17.9677 116.156 17.9959C116.169 18.0242 116.177 18.0548 116.178 18.086C116.179 18.1172 116.174 18.1482 116.163 18.1773C116.141 18.2362 116.097 18.2842 116.041 18.3108C115.984 18.3374 115.919 18.3404 115.86 18.3191C115.86 18.3191 114.523 17.8466 113.842 18.4089C113.468 18.6806 113.175 19.05 112.997 19.4768C112.981 19.5262 112.951 19.5695 112.909 19.6001C112.867 19.6307 112.817 19.6471 112.765 19.6469Z" fill="#777777"/>
<path d="M115.903 20.3556C116.092 20.795 116.054 21.2297 115.818 21.329C115.582 21.4282 115.242 21.1589 115.053 20.7194C114.864 20.28 114.906 19.85 115.142 19.746C115.379 19.6421 115.719 19.9303 115.903 20.3556Z" fill="#777777"/>
<path d="M120.661 18.0403C120.85 18.475 120.808 18.9097 120.576 19.0136C120.345 19.1176 119.995 18.8388 119.811 18.4041C119.626 17.9694 119.659 17.5299 119.896 17.4307C120.132 17.3315 120.472 17.6055 120.661 18.0403Z" fill="#777777"/>
<path d="M109.945 22.5055C109.945 22.5055 111.523 21.3573 111.234 20.3509C110.946 19.3444 110.374 19.3444 110.951 18.7727C111.527 18.2009 111.953 17.908 111.811 17.048C111.669 16.188 109.368 14.7469 110.086 13.8869C110.804 13.0269 110.516 11.9968 116.409 13.4522C122.301 14.9075 126.038 12.5922 124.314 10.4375C122.589 8.28286 121.153 7.99462 121.153 7.99462C121.153 7.99462 124.46 6.57708 121.729 5.11701C118.998 3.65694 112.817 3.69946 109.368 6.4117C105.919 9.12393 106.637 11.4251 106.637 11.4251C106.637 11.4251 104.77 11.7133 104.624 14.5909C104.478 17.4685 109.945 22.5055 109.945 22.5055Z" fill="#777777"/>
<path d="M119.347 12.8804C118.091 12.8277 116.855 12.5525 115.695 12.0677C114.786 11.6801 113.818 11.45 112.831 11.3873C110.549 11.3873 110.077 12.682 110.058 12.7387C110.051 12.7588 110.041 12.7775 110.027 12.7935C110.013 12.8096 109.997 12.8226 109.978 12.8319C109.959 12.8412 109.938 12.8465 109.917 12.8475C109.896 12.8486 109.874 12.8453 109.855 12.8379C109.834 12.8315 109.816 12.8211 109.799 12.8074C109.783 12.7936 109.77 12.7769 109.76 12.758C109.751 12.7391 109.745 12.7185 109.743 12.6973C109.742 12.6761 109.744 12.6549 109.751 12.6347C109.774 12.5733 110.304 11.0612 112.831 11.0612C113.856 11.1218 114.861 11.36 115.804 11.7653C117.273 12.2898 118.799 12.8332 120.718 12.4079C121.757 12.1764 122.367 11.8031 122.518 11.3069C122.716 10.669 122.102 10.0028 122.097 9.99335C122.067 9.96324 122.051 9.92246 122.051 9.87995C122.051 9.83743 122.067 9.79665 122.097 9.76654C122.129 9.73731 122.17 9.72107 122.213 9.72107C122.256 9.72107 122.298 9.73731 122.329 9.76654C122.357 9.79962 123.076 10.5793 122.825 11.3967C122.631 12.0157 121.946 12.4599 120.784 12.7198C120.312 12.8241 119.831 12.8779 119.347 12.8804Z" fill="white"/>
<path d="M108.806 12.4836C108.763 12.4799 108.723 12.4596 108.695 12.427C108.666 12.3943 108.652 12.3519 108.655 12.3087C108.655 12.2757 108.933 9.15706 111.698 8.45774C113.328 8.04665 115.213 8.35378 116.73 8.59949C117.675 8.75542 118.521 8.89245 118.875 8.75542C118.914 8.74709 118.955 8.75306 118.989 8.77224C119.024 8.79142 119.051 8.82252 119.065 8.85985C119.079 8.89718 119.079 8.93822 119.064 8.97545C119.05 9.01268 119.023 9.04361 118.988 9.06256C118.554 9.22321 117.727 9.09091 116.678 8.9208C115.189 8.67509 113.337 8.37741 111.778 8.7696C109.236 9.41694 108.981 12.304 108.976 12.3324C108.975 12.3535 108.969 12.3741 108.96 12.3932C108.951 12.4122 108.938 12.4292 108.922 12.4433C108.906 12.4573 108.888 12.4681 108.868 12.475C108.848 12.4819 108.827 12.4848 108.806 12.4836Z" fill="white"/>
<path d="M106.977 17.3599C106.945 17.3593 106.914 17.3495 106.888 17.3315C106.463 16.9758 106.134 16.5199 105.931 16.0051C105.727 15.4902 105.655 14.9328 105.72 14.383C105.853 12.304 107.45 12.2803 107.469 12.2803C107.507 12.2869 107.542 12.3069 107.567 12.3367C107.592 12.3665 107.606 12.4043 107.606 12.4434C107.606 12.4824 107.592 12.5202 107.567 12.55C107.542 12.5798 107.507 12.5998 107.469 12.6064C107.412 12.6064 106.155 12.6347 106.051 14.4019C105.987 14.8964 106.047 15.3989 106.226 15.8642C106.406 16.3295 106.698 16.7429 107.077 17.0669C107.094 17.0787 107.109 17.0939 107.12 17.1116C107.132 17.1293 107.139 17.1491 107.143 17.1699C107.146 17.1906 107.146 17.2119 107.141 17.2324C107.136 17.2528 107.127 17.2721 107.114 17.289C107.1 17.312 107.08 17.3307 107.056 17.3432C107.031 17.3557 107.004 17.3614 106.977 17.3599Z" fill="white"/>
<path d="M107.955 16.0179C107.924 16.0179 107.894 16.009 107.868 15.9923C107.842 15.9755 107.821 15.9516 107.809 15.9234C107.692 15.7079 107.623 15.4699 107.606 15.2254C107.589 14.9809 107.624 14.7356 107.709 14.5059C107.918 14.0555 108.289 13.7009 108.749 13.5136C108.768 13.5052 108.789 13.5009 108.811 13.501C108.832 13.501 108.853 13.5054 108.872 13.5138C108.892 13.5222 108.909 13.5344 108.924 13.5498C108.938 13.5653 108.95 13.5835 108.957 13.6034C108.972 13.6429 108.972 13.6869 108.955 13.7258C108.938 13.7648 108.906 13.7955 108.867 13.8113C108.491 13.9706 108.185 14.2611 108.007 14.6287C107.94 14.8174 107.914 15.0182 107.93 15.2177C107.947 15.4172 108.005 15.611 108.102 15.7864C108.119 15.8259 108.121 15.8708 108.106 15.9115C108.091 15.9521 108.06 15.9853 108.021 16.0038C108 16.013 107.978 16.0178 107.955 16.0179Z" fill="white"/>
<path d="M108.319 18.579C108.293 18.5785 108.267 18.5718 108.244 18.5594C108.221 18.5471 108.202 18.5295 108.187 18.5081L107.577 17.6576C107.552 17.6225 107.542 17.5789 107.549 17.5364C107.556 17.4938 107.58 17.4559 107.615 17.4308C107.65 17.4057 107.694 17.3956 107.736 17.4027C107.779 17.4098 107.817 17.4335 107.842 17.4686L108.451 18.3239C108.475 18.3584 108.485 18.4011 108.478 18.4426C108.471 18.4842 108.448 18.5213 108.414 18.5459C108.387 18.5677 108.353 18.5794 108.319 18.579Z" fill="white"/>
</svg>
