<svg width="32" height="24" viewBox="0 0 32 24" fill="none" xmlns="http://www.w3.org/2000/svg">
<path d="M15.0042 1.5013C15.7674 0.740164 16.5829 0.815615 17.4506 1.72766C17.5028 1.78238 17.5644 1.80974 17.6355 1.80974C22.106 1.81306 26.5779 1.81389 31.0513 1.81223C32.1939 1.81223 32.4921 4.04839 30.8859 4.05088C26.4952 4.05254 22.1046 4.05254 17.7139 4.05088C17.6399 4.05088 17.579 4.08239 17.5311 4.1454C15.8073 6.48106 13.102 3.40167 15.0042 1.5013Z" fill="#242021"/>
<path d="M0.0340099 4.55834C-0.10746 3.53354 0.177661 2.7525 1.16795 2.75001C5.12477 2.74172 9.08085 2.74089 13.0362 2.74752C13.1102 2.74752 13.1465 2.79064 13.145 2.87687C13.1349 3.59324 13.3054 4.24576 13.6565 4.83444C13.716 4.93394 13.6928 4.98369 13.5869 4.98369H2.31713C2.19234 4.98369 2.13938 5.05416 2.15824 5.19512C2.77926 9.90955 3.39448 14.6488 4.00389 19.413C4.13883 20.4776 4.89406 20.7736 5.78641 20.7736C12.6292 20.7803 19.4727 20.7811 26.317 20.7761C27.1636 20.7761 27.6076 20.0548 27.7317 19.1145C28.3237 14.6173 28.9135 10.121 29.5012 5.62543C29.5128 5.53589 29.5578 5.49028 29.6361 5.48863L31.436 5.46375C31.4868 5.46209 31.5086 5.48945 31.5013 5.54584C30.9064 10.0994 30.313 14.6547 29.721 19.2115C29.3488 22.077 28.0081 23.0148 25.5748 23.0148C19.2674 23.0181 12.9608 23.0189 6.65482 23.0173C3.52941 23.0173 2.36936 22.2511 1.91883 18.7539C1.30797 14.0195 0.679694 9.2877 0.0340099 4.55834Z" fill="#242021"/>
<path d="M11.2263 10.8217H11.1567C10.6362 10.8217 10.2143 11.3039 10.2143 11.8988V16.8885C10.2143 17.4833 10.6362 17.9655 11.1567 17.9655H11.2263C11.7468 17.9655 12.1687 17.4833 12.1687 16.8885V11.8988C12.1687 11.3039 11.7468 10.8217 11.2263 10.8217Z" fill="#DF1C26"/>
<path d="M16.0656 10.8217H15.996C15.4755 10.8217 15.0536 11.3039 15.0536 11.8988V16.8885C15.0536 17.4833 15.4755 17.9655 15.996 17.9655H16.0656C16.5861 17.9655 17.008 17.4833 17.008 16.8885V11.8988C17.008 11.3039 16.5861 10.8217 16.0656 10.8217Z" fill="#DF1C26"/>
<path d="M20.9058 10.8165H20.8405C20.3188 10.8165 19.8959 11.2998 19.8959 11.8961V16.8858C19.8959 17.482 20.3188 17.9653 20.8405 17.9653H20.9058C21.4275 17.9653 21.8504 17.482 21.8504 16.8858V11.8961C21.8504 11.2998 21.4275 10.8165 20.9058 10.8165Z" fill="#DF1C26"/>
</svg>
