<svg width="41" height="34" viewBox="0 0 41 34" fill="none" xmlns="http://www.w3.org/2000/svg">
<path d="M0.973877 10.7079C0.973877 4.79403 5.768 6.10352e-05 11.6817 6.10352e-05C14.3047 6.10352e-05 16.7055 0.944561 18.5664 2.51085C19.6849 3.4523 21.3152 3.4523 22.4336 2.51085C24.2944 0.944485 26.6953 6.10352e-05 29.3183 6.10352e-05C35.232 6.10352e-05 40.0261 4.79403 40.0261 10.7079V10.393C40.0261 20.7775 27.3972 30.1434 22.4522 33.4128C21.8731 33.7958 21.1942 34 20.5 34C19.8057 34 19.1268 33.7958 18.5478 33.4128C13.6029 30.1434 0.973877 20.7775 0.973877 10.393" fill="#FF6464"/>
<path d="M0.973877 10.7079C0.973877 10.6626 0.980131 10.6189 0.980665 10.5737C0.97975 10.5134 0.973877 10.4534 0.973877 10.3929V10.7079ZM9.7318 11.4113C9.73135 11.46 9.727 11.5072 9.727 11.5561V11.2162C9.727 11.2814 9.73119 11.3461 9.7318 11.4113C9.7733 6.30961 11.9766 2.00509 15.0104 0.539104C13.9617 0.195414 12.8457 0 11.6817 0C5.81323 0 1.05328 4.72235 0.980665 10.5737C1.12627 20.8859 13.6317 30.1625 18.5478 33.4127C19.0523 33.7462 19.6209 33.9288 20.1986 33.9782C16.1421 29.4198 9.8186 20.815 9.7318 11.4113Z" fill="#D2555A"/>
<path d="M35.2616 11.6598C36.6115 11.6598 37.7057 10.5655 37.7057 9.21567C37.7057 7.86582 36.6115 6.77155 35.2616 6.77155C33.9118 6.77155 32.8175 7.86582 32.8175 9.21567C32.8175 10.5655 33.9118 11.6598 35.2616 11.6598Z" fill="#FF8B8B"/>
<path d="M32.1273 6.08312C32.971 6.08312 33.655 5.39919 33.655 4.55551C33.655 3.71183 32.971 3.02789 32.1273 3.02789C31.2837 3.02789 30.5997 3.71183 30.5997 4.55551C30.5997 5.39919 31.2837 6.08312 32.1273 6.08312Z" fill="#FFC1C1"/>
</svg>
