<svg width="49" height="48" viewBox="0 0 49 48" fill="none" xmlns="http://www.w3.org/2000/svg">
<path fill-rule="evenodd" clip-rule="evenodd" d="M24.8193 39.5923C16.2148 39.5923 9.21301 32.5905 9.21301 23.986C9.21301 15.3814 16.2148 8.37964 24.8193 8.37964C33.4239 8.37964 40.4257 15.3814 40.4257 23.986C40.4257 32.5905 33.4239 39.5923 24.8193 39.5923Z" fill="#FFC107"/>
<path fill-rule="evenodd" clip-rule="evenodd" d="M24.8193 6.01757C24.4256 6.01757 24.0882 5.70826 24.0882 5.28647V0.731107C24.0882 0.337434 24.4256 0 24.8193 0C25.2411 0 25.5504 0.337434 25.5504 0.731107V5.28647C25.5504 5.70826 25.2411 6.01757 24.8193 6.01757ZM34.1831 8.52021C34.0425 8.52021 33.93 8.49209 33.8176 8.43585C33.452 8.23902 33.3395 7.7891 33.5364 7.45167L35.8422 3.48682C36.039 3.12127 36.4889 3.00879 36.8263 3.20562C37.1638 3.40246 37.3044 3.85237 37.0794 4.21793L34.8017 8.15466C34.6611 8.40773 34.4362 8.52021 34.1831 8.52021ZM41.0162 15.3814C40.7631 15.3814 40.51 15.2408 40.3975 15.0158C40.2007 14.6503 40.3132 14.2285 40.6506 14.0035L44.6154 11.7258C44.9529 11.529 45.4028 11.6415 45.5996 12.007C45.7965 12.3445 45.684 12.7944 45.3466 12.9912L41.3817 15.2689C41.2692 15.3533 41.1567 15.3814 41.0162 15.3814ZM48.1023 24.717H43.5188C43.1251 24.717 42.7877 24.4077 42.7877 23.9859C42.7877 23.5923 43.1251 23.2548 43.5188 23.2548H48.1023C48.4959 23.2548 48.8334 23.5923 48.8334 23.9859C48.8334 24.4077 48.4959 24.717 48.1023 24.717ZM44.981 36.3585C44.8404 36.3585 44.7279 36.3304 44.6154 36.246L40.6506 33.9684C40.3132 33.7715 40.2007 33.3216 40.3975 32.9842C40.5944 32.6186 41.0443 32.5062 41.3817 32.703L45.3466 35.0088C45.684 35.2056 45.7965 35.6555 45.5996 35.993C45.4872 36.2179 45.2341 36.3585 44.981 36.3585ZM36.4608 44.8787C36.2077 44.8787 35.9546 44.7381 35.8422 44.5132L33.5364 40.5483C33.3395 40.2109 33.452 39.761 33.8176 39.5641C34.155 39.3673 34.6049 39.4798 34.8017 39.8172L37.0794 43.7821C37.3044 44.1195 37.1638 44.5694 36.8263 44.7663C36.7139 44.8506 36.5733 44.8787 36.4608 44.8787ZM24.8193 48C24.4256 48 24.0882 47.6626 24.0882 47.2689V42.6854C24.0882 42.2917 24.4256 41.9543 24.8193 41.9543C25.2411 41.9543 25.5504 42.2917 25.5504 42.6854V47.2689C25.5504 47.6626 25.2411 48 24.8193 48ZM13.206 44.8787C13.0654 44.8787 12.9529 44.8506 12.8404 44.7663C12.4749 44.5694 12.3624 44.1195 12.5592 43.7821L14.8369 39.8172C15.0618 39.4798 15.4836 39.3392 15.8492 39.5641C16.1866 39.761 16.2991 40.2109 16.1023 40.5483L13.8246 44.5132C13.684 44.7381 13.459 44.8787 13.206 44.8787ZM4.68575 36.3585C4.43267 36.3585 4.1796 36.2179 4.039 35.993C3.84216 35.6555 3.95464 35.2056 4.32019 35.0088L8.28504 32.703C8.62248 32.5062 9.07239 32.6186 9.26923 32.9842C9.46606 33.3216 9.35359 33.7715 9.01615 33.9684L5.0513 36.246C4.93882 36.3304 4.79822 36.3585 4.68575 36.3585ZM6.11984 24.717H1.56448C1.17081 24.717 0.833374 24.4077 0.833374 23.9859C0.833374 23.5923 1.17081 23.2548 1.56448 23.2548H6.11984C6.54163 23.2548 6.85095 23.5923 6.85095 23.9859C6.85095 24.4077 6.54163 24.717 6.11984 24.717ZM8.6506 15.3814C8.51 15.3814 8.39752 15.3533 8.28504 15.2689L4.32019 12.9912C3.95464 12.7944 3.84216 12.3445 4.039 12.007C4.23583 11.6415 4.68575 11.529 5.0513 11.7258L9.01615 14.0035C9.35359 14.2285 9.46606 14.6503 9.26923 15.0158C9.12863 15.2408 8.87555 15.3814 8.6506 15.3814ZM15.4836 8.52021C15.2306 8.52021 14.9775 8.40773 14.8369 8.18278L12.5592 4.21793C12.3624 3.85237 12.4749 3.40246 12.8404 3.20562C13.1778 3.00879 13.6278 3.12127 13.8246 3.48682L16.1023 7.45167C16.2991 7.7891 16.1866 8.23902 15.8492 8.43585C15.7367 8.49209 15.5961 8.52021 15.4836 8.52021Z" fill="#FF9D05"/>
<path fill-rule="evenodd" clip-rule="evenodd" d="M30.1058 32.8436C30.0215 32.8436 29.9371 32.8436 29.8527 32.7874L24.8194 30.8471L19.8141 32.7874C19.5891 32.8998 19.3079 32.8436 19.1111 32.703C18.9143 32.5624 18.8018 32.3375 18.8299 32.0844L19.1392 26.7136L15.7086 22.5519C15.568 22.355 15.5118 22.102 15.5962 21.8489C15.6805 21.6239 15.8492 21.4271 16.1023 21.3708L21.3044 20.0211L24.2288 15.4657C24.3413 15.2689 24.5944 15.1564 24.8194 15.1564C25.0724 15.1564 25.2974 15.2689 25.438 15.4657L28.3624 20.0211L33.5645 21.3708C33.7895 21.4271 33.9863 21.6239 34.0707 21.8489C34.155 22.102 34.0988 22.355 33.9301 22.5519L30.5276 26.7136L30.8369 32.0844C30.8369 32.3375 30.7244 32.5624 30.5276 32.703C30.4151 32.8155 30.2464 32.8436 30.1058 32.8436Z" fill="white"/>
</svg>
