<svg width="8" height="4" viewBox="0 0 8 4" fill="none" xmlns="http://www.w3.org/2000/svg">
<path d="M4.355 2.70001C4.30852 2.74687 4.25322 2.78407 4.19229 2.80945C4.13136 2.83484 4.066 2.84791 4 2.84791C3.93399 2.84791 3.86864 2.83484 3.80771 2.80945C3.74678 2.78407 3.69148 2.74687 3.645 2.70001L1.355 0.405009C1.30852 0.358144 1.25322 0.320947 1.19229 0.295562C1.13136 0.270178 1.06601 0.257109 0.999999 0.257109C0.933993 0.257109 0.868641 0.270178 0.807711 0.295562C0.746781 0.320947 0.691481 0.358144 0.644999 0.405009C0.551874 0.49869 0.499603 0.625416 0.499603 0.757509C0.499603 0.889601 0.551874 1.01633 0.644999 1.11001L2.94 3.40501C3.22125 3.68591 3.6025 3.84369 4 3.84369C4.3975 3.84369 4.77875 3.68591 5.06 3.40501L7.355 1.11001C7.44737 1.01688 7.49945 0.891178 7.5 0.760008C7.50038 0.694205 7.48777 0.628973 7.46288 0.568055C7.438 0.507136 7.40134 0.451728 7.355 0.405008C7.30852 0.358144 7.25322 0.320946 7.19229 0.295562C7.13136 0.270178 7.066 0.257109 7 0.257109C6.93399 0.257109 6.86864 0.270178 6.80771 0.295562C6.74678 0.320946 6.69148 0.358144 6.645 0.405008L4.355 2.70001Z" fill="white"/>
</svg>
