<svg width="22" height="22" viewBox="0 0 22 22" fill="none" xmlns="http://www.w3.org/2000/svg">
<path d="M21.3693 20.5542L14.8561 14.2949C16.2089 12.8514 17.0404 10.9481 17.0404 8.85712C17.0403 4.36721 13.2392 0.714294 8.56706 0.714294C3.89489 0.714294 0.0937347 4.36721 0.0937347 8.85717C0.0937347 13.3471 3.89489 17 8.56706 17C10.7429 17 12.7233 16.201 14.2255 14.9009L20.7387 21.1602C20.8258 21.2439 20.94 21.2857 21.0541 21.2857C21.1681 21.2857 21.2822 21.2439 21.3694 21.1602C21.5436 20.9927 21.5436 20.7215 21.3693 20.5542ZM8.56706 16.1429C4.38703 16.1429 0.98569 12.8746 0.98569 8.85717C0.98569 4.83975 4.38703 1.57142 8.56706 1.57142C12.7471 1.57142 16.1484 4.83971 16.1484 8.85717C16.1484 12.8746 12.7471 16.1429 8.56706 16.1429Z" fill="#DF1C26"/>
</svg>
