<svg width="25" height="24" viewBox="0 0 25 24" fill="none" xmlns="http://www.w3.org/2000/svg">
<path d="M23.246 9.069L15.661 1.483C14.7222 0.546993 13.4507 0.0213776 12.125 0.0213776C10.7993 0.0213776 9.52775 0.546993 8.589 1.483L1.004 9.069C0.724422 9.34679 0.502767 9.6773 0.351879 10.0414C0.200992 10.4055 0.123874 10.7959 0.124997 11.19V21.007C0.124997 21.8027 0.441067 22.5657 1.00368 23.1283C1.56629 23.6909 2.32935 24.007 3.125 24.007H21.125C21.9206 24.007 22.6837 23.6909 23.2463 23.1283C23.8089 22.5657 24.125 21.8027 24.125 21.007V11.19C24.1261 10.7959 24.049 10.4055 23.8981 10.0414C23.7472 9.6773 23.5256 9.34679 23.246 9.069ZM15.125 22.007H9.125V18.073C9.125 17.2774 9.44107 16.5143 10.0037 15.9517C10.5663 15.3891 11.3293 15.073 12.125 15.073C12.9206 15.073 13.6837 15.3891 14.2463 15.9517C14.8089 16.5143 15.125 17.2774 15.125 18.073V22.007ZM22.125 21.007C22.125 21.2722 22.0196 21.5266 21.8321 21.7141C21.6446 21.9016 21.3902 22.007 21.125 22.007H17.125V18.073C17.125 16.7469 16.5982 15.4752 15.6605 14.5375C14.7229 13.5998 13.4511 13.073 12.125 13.073C10.7989 13.073 9.52715 13.5998 8.58946 14.5375C7.65178 15.4752 7.125 16.7469 7.125 18.073V22.007H3.125C2.85978 22.007 2.60543 21.9016 2.41789 21.7141C2.23035 21.5266 2.125 21.2722 2.125 21.007V11.19C2.12592 10.925 2.23119 10.671 2.418 10.483L10.003 2.9C10.5667 2.33893 11.3297 2.02395 12.125 2.02395C12.9203 2.02395 13.6833 2.33893 14.247 2.9L21.832 10.486C22.0181 10.6733 22.1233 10.926 22.125 11.19V21.007Z" fill="#777777"/>
</svg>
