<svg width="135" height="121" viewBox="0 0 135 121" fill="none" xmlns="http://www.w3.org/2000/svg">
<path d="M65.5592 0.885523C67.0464 -0.412216 68.6354 -0.283571 70.3261 1.27145C70.4279 1.36475 70.548 1.41141 70.6866 1.41141C79.3975 1.41706 88.1113 1.41847 96.8279 1.41564C99.0545 1.41564 99.6355 5.22828 96.5056 5.23252C87.9502 5.23535 79.3947 5.23535 70.8392 5.23252C70.695 5.23252 70.5763 5.28624 70.483 5.39368C67.1241 9.37596 61.8526 4.12563 65.5592 0.885523Z" fill="#242021"/>
<path d="M36.3898 6.09765C36.1141 4.35037 36.6697 3.01871 38.5993 3.01447C46.3094 3.00033 54.0181 2.99891 61.7254 3.01022C61.8695 3.01022 61.9402 3.08374 61.9374 3.23076C61.9176 4.45216 62.2498 5.5647 62.934 6.5684C63.0499 6.73804 63.0047 6.82286 62.7983 6.82286H40.8385C40.5954 6.82286 40.4922 6.94303 40.529 7.18335C41.739 15.2214 42.9378 23.3019 44.1253 31.4248C44.3882 33.2399 45.8599 33.7446 47.5987 33.7446C60.9323 33.7559 74.2673 33.7573 87.6038 33.7488C89.2535 33.7488 90.1187 32.5189 90.3604 30.9158C91.514 23.2482 92.6633 15.5819 93.8083 7.91704C93.831 7.76436 93.9186 7.68661 94.0713 7.68378L97.5786 7.64137C97.6775 7.63854 97.7199 7.68519 97.7058 7.78132C96.5466 15.5451 95.3902 23.3118 94.2367 31.0812C93.5115 35.9668 90.899 37.5657 86.1576 37.5657C73.8673 37.5714 61.5783 37.5728 49.2908 37.5699C43.2008 37.5699 40.9403 36.2637 40.0624 30.3009C38.8721 22.2289 37.6479 14.1612 36.3898 6.09765Z" fill="#242021"/>
<path d="M58.1969 16.7764H58.0612C57.047 16.7764 56.2249 17.5986 56.2249 18.6128V27.1202C56.2249 28.1344 57.047 28.9565 58.0612 28.9565H58.1969C59.2111 28.9565 60.0332 28.1344 60.0332 27.1202V18.6128C60.0332 17.5986 59.2111 16.7764 58.1969 16.7764Z" fill="#242021"/>
<path d="M67.6288 16.7764H67.4931C66.4789 16.7764 65.6567 17.5986 65.6567 18.6128V27.1202C65.6567 28.1344 66.4789 28.9565 67.4931 28.9565H67.6288C68.643 28.9565 69.4651 28.1344 69.4651 27.1202V18.6128C69.4651 17.5986 68.643 16.7764 67.6288 16.7764Z" fill="#242021"/>
<path d="M77.0608 16.768H76.9336C75.9171 16.768 75.093 17.5921 75.093 18.6086V27.116C75.093 28.1325 75.9171 28.9566 76.9336 28.9566H77.0608C78.0774 28.9566 78.9014 28.1325 78.9014 27.116V18.6086C78.9014 17.5921 78.0774 16.768 77.0608 16.768Z" fill="#242021"/>
<path d="M17.5245 101.056C2.4987 100.098 -1.96705 86.6833 1.00164 73.9307C3.4614 63.3622 12.9654 59.3036 23.0293 60.7583C31.0362 61.9175 35.9727 66.4284 37.8387 74.2912C37.8755 74.4439 37.8147 74.5231 37.6564 74.5287L35.4765 74.6178C35.3041 74.6234 35.198 74.5428 35.1584 74.376C33.4875 67.4745 29.0288 63.7411 21.7824 63.1756C16.3964 62.7515 10.1155 63.6464 6.57852 68.0612C2.63017 72.9977 2.43933 81.2294 3.73283 87.2728C5.87876 97.3239 14.6745 99.4317 23.5806 98.2273C29.9124 97.3706 33.6275 93.1975 35.0736 87.2644C35.087 87.2077 35.1194 87.1573 35.1656 87.1211C35.2117 87.0849 35.269 87.0652 35.3281 87.065H37.6564C37.7864 87.065 37.8373 87.1287 37.8091 87.2559C35.6038 97.5487 27.3805 101.679 17.5245 101.056Z" fill="#DF1C26"/>
<path d="M43.6937 60.9939L41.1746 60.9807C41.1113 60.9804 41.0598 61.0314 41.0595 61.0946L41.0473 63.4186C41.047 63.4819 41.098 63.5334 41.1612 63.5337L43.6803 63.5469C43.7435 63.5473 43.7951 63.4963 43.7954 63.433L43.8076 61.109C43.8079 61.0458 43.7569 60.9942 43.6937 60.9939Z" fill="#242021"/>
<path d="M100.427 60.9872H97.9758C97.8634 60.9872 97.7722 61.0784 97.7722 61.1908V100.437C97.7722 100.549 97.8634 100.64 97.9758 100.64H100.427C100.539 100.64 100.631 100.549 100.631 100.437V61.1908C100.631 61.0784 100.539 60.9872 100.427 60.9872Z" fill="#DF1C26"/>
<path d="M77.738 100.954C70.9651 100.263 66.1389 96.497 64.7775 89.7326C62.4577 78.2057 67.9837 68.4641 80.8551 68.99C88.6754 69.3081 94.4474 73.0317 95.83 81.3228C95.8526 81.4641 95.7932 81.5362 95.6518 81.5391L93.3066 81.5899C93.2318 81.5907 93.1594 81.5643 93.1031 81.5158C93.0468 81.4674 93.0106 81.4002 93.0012 81.327C91.8816 73.0147 84.7144 71.3607 77.6447 72.0223C70.9736 72.6457 67.8014 76.3778 67.1991 82.8962C66.546 89.9532 68.5859 96.6751 76.4657 97.9898C84.0485 99.2536 91.4787 97.4215 93.0479 88.7487C93.0846 88.531 93.2147 88.4236 93.438 88.4264L95.6518 88.4518C95.7593 88.4518 95.8059 88.5056 95.7918 88.613C94.3795 98.3036 86.7585 101.875 77.738 100.954Z" fill="#DF1C26"/>
<path d="M105.851 85.2542C105.885 91.2339 108.035 96.4546 114.452 97.8159C121.933 99.402 130.72 97.6802 131.776 88.5664C131.784 88.4943 131.819 88.4281 131.874 88.3814C131.93 88.3347 132.001 88.3114 132.073 88.3161L134.338 88.4603C134.488 88.4688 134.551 88.5466 134.529 88.6936C133.104 98.5114 125.211 101.824 116.327 101.009C110.334 100.458 105.792 97.0356 103.977 91.2933C102.056 85.2245 102.874 76.3184 108.366 72.1071C114.278 67.5735 125.513 67.8916 130.788 73.3413C133.863 76.5135 134.631 80.4746 134.864 84.8428C134.866 84.8694 134.862 84.8962 134.853 84.9213C134.844 84.9465 134.83 84.9695 134.811 84.989C134.793 85.0085 134.771 85.024 134.747 85.0346C134.722 85.0452 134.696 85.0506 134.669 85.0506H106.051C105.918 85.0506 105.851 85.1184 105.851 85.2542ZM106.017 82.506H131.853C131.854 82.506 131.855 82.5055 131.856 82.5048C131.857 82.504 131.857 82.5029 131.857 82.5017V82.4848C131.857 81.0852 131.564 79.6993 130.995 78.4063C130.426 77.1133 129.592 75.9384 128.54 74.9488C127.489 73.9591 126.241 73.1741 124.867 72.6385C123.493 72.1029 122.021 71.8272 120.534 71.8272H117.336C114.333 71.8272 111.453 72.9501 109.329 74.9488C107.206 76.9474 106.013 79.6582 106.013 82.4848V82.5017C106.013 82.5029 106.013 82.504 106.014 82.5048C106.015 82.5055 106.016 82.506 106.017 82.506Z" fill="#DF1C26"/>
<path d="M43.6912 69.4734H41.1636C41.1003 69.4734 41.0491 69.5247 41.0491 69.588V100.539C41.0491 100.602 41.1003 100.653 41.1636 100.653H43.6912C43.7544 100.653 43.8057 100.602 43.8057 100.539V69.588C43.8057 69.5247 43.7544 69.4734 43.6912 69.4734Z" fill="#DF1C26"/>
<path d="M49.6839 74.7662C49.6848 74.7892 49.6928 74.8115 49.7067 74.83C49.7206 74.8485 49.7397 74.8622 49.7613 74.8693C49.7828 74.8763 49.8058 74.8763 49.827 74.8692C49.8481 74.8621 49.8663 74.8483 49.879 74.8298C53.8485 69.3929 59.171 69.4819 65.3034 69.5667C65.4448 69.5667 65.5183 69.6374 65.5239 69.7788L65.5833 71.8781C65.5861 72.0307 65.5126 72.1043 65.3628 72.0986C62.0152 71.9629 59.7011 72.0406 58.4203 72.3319C52.0461 73.7696 49.9808 78.8757 49.8111 84.9742C49.6641 90.1171 49.6061 95.2642 49.6372 100.416C49.6372 100.563 49.5637 100.636 49.4167 100.636H47.1987C46.9866 100.636 46.8806 100.53 46.8806 100.318V69.783C46.8806 69.6445 46.9513 69.5738 47.0927 69.571L49.3998 69.5667C49.5439 69.5667 49.6175 69.6388 49.6203 69.783L49.6839 74.7662Z" fill="#DF1C26"/>
<path d="M7.89664 109.762C8.06055 109.879 8.1503 109.988 8.16592 110.09C8.18933 110.191 8.1503 110.312 8.04884 110.453L5.29752 114.632V117.384C5.29752 117.485 5.28581 117.579 5.26239 117.665C5.23898 117.743 5.18825 117.801 5.11019 117.84C5.03995 117.887 4.92677 117.91 4.77067 117.91C4.61457 117.91 4.49749 117.887 4.41944 117.84C4.34919 117.801 4.29846 117.739 4.26724 117.653C4.24382 117.567 4.23211 117.469 4.23211 117.36V114.621L1.46908 110.476C1.37542 110.335 1.3403 110.215 1.36371 110.113C1.38713 110.004 1.48079 109.891 1.6447 109.774C1.76178 109.695 1.85934 109.649 1.93739 109.633C2.02325 109.61 2.1013 109.621 2.17155 109.668C2.2418 109.707 2.30814 109.781 2.37058 109.891L4.75896 113.637L7.15905 109.891C7.2293 109.781 7.29564 109.707 7.35808 109.668C7.42833 109.629 7.50638 109.617 7.59224 109.633C7.67809 109.641 7.77956 109.684 7.89664 109.762Z" fill="black"/>
<path d="M10.3854 117.969C10.003 117.969 9.63615 117.895 9.28492 117.747C8.94149 117.598 8.63319 117.395 8.36001 117.138C8.08683 116.872 7.87218 116.564 7.71608 116.213C7.55998 115.862 7.48193 115.479 7.48193 115.065C7.48193 114.66 7.55608 114.285 7.70437 113.941C7.85267 113.59 8.05951 113.282 8.32488 113.017C8.59026 112.751 8.89466 112.544 9.23809 112.396C9.58932 112.24 9.96397 112.162 10.362 112.162C10.9006 112.162 11.3845 112.291 11.8138 112.548C12.2509 112.798 12.5982 113.141 12.8558 113.579C13.1134 114.016 13.2421 114.507 13.2421 115.054C13.2421 115.483 13.1641 115.877 13.008 116.236C12.8519 116.587 12.6411 116.892 12.3758 117.149C12.1104 117.407 11.806 117.61 11.4626 117.758C11.1191 117.899 10.7601 117.969 10.3854 117.969ZM10.362 116.95C10.6898 116.95 10.9943 116.868 11.2752 116.705C11.5562 116.541 11.7826 116.314 11.9543 116.025C12.126 115.737 12.2119 115.409 12.2119 115.042C12.2119 114.675 12.1299 114.351 11.966 114.07C11.8099 113.789 11.5913 113.571 11.3104 113.415C11.0294 113.259 10.7094 113.18 10.3503 113.18C10.0069 113.18 9.69469 113.262 9.4137 113.426C9.14052 113.59 8.91808 113.813 8.74636 114.094C8.58245 114.375 8.5005 114.695 8.5005 115.054C8.5005 115.428 8.58636 115.76 8.75807 116.049C8.92978 116.33 9.15613 116.552 9.43712 116.716C9.72591 116.872 10.0342 116.95 10.362 116.95Z" fill="black"/>
<path d="M16.6206 117.91C16.2772 117.91 15.9572 117.848 15.6606 117.723C15.3718 117.598 15.1182 117.423 14.8996 117.196C14.6811 116.97 14.5093 116.697 14.3845 116.377C14.2674 116.057 14.2088 115.694 14.2088 115.288V112.747C14.2088 112.638 14.2206 112.544 14.244 112.466C14.2674 112.388 14.3142 112.33 14.3845 112.291C14.4625 112.244 14.5757 112.22 14.724 112.22C14.8723 112.22 14.9816 112.244 15.0518 112.291C15.1299 112.338 15.1806 112.4 15.204 112.478C15.2274 112.556 15.2391 112.65 15.2391 112.759V115.3C15.2391 115.62 15.2938 115.904 15.403 116.154C15.5123 116.396 15.6762 116.584 15.8948 116.716C16.1211 116.849 16.3943 116.915 16.7143 116.915C17.0421 116.915 17.3231 116.849 17.5573 116.716C17.7992 116.584 17.9826 116.396 18.1075 116.154C18.2402 115.904 18.3066 115.62 18.3066 115.3V112.747C18.3066 112.638 18.3183 112.544 18.3417 112.466C18.3651 112.388 18.4119 112.33 18.4822 112.291C18.5602 112.244 18.6734 112.22 18.8217 112.22C18.97 112.22 19.0793 112.244 19.1495 112.291C19.2276 112.338 19.2744 112.4 19.29 112.478C19.3134 112.556 19.3251 112.65 19.3251 112.759V117.407C19.3251 117.501 19.3134 117.586 19.29 117.665C19.2744 117.735 19.2276 117.789 19.1495 117.828C19.0793 117.867 18.97 117.887 18.8217 117.887C18.7124 117.887 18.6227 117.875 18.5524 117.852C18.49 117.828 18.4432 117.797 18.4119 117.758C18.3807 117.719 18.3573 117.676 18.3417 117.629C18.3339 117.575 18.33 117.52 18.33 117.466L18.3768 116.962C18.2988 117.056 18.2051 117.157 18.0958 117.266C17.9865 117.376 17.8578 117.481 17.7095 117.583C17.569 117.676 17.409 117.754 17.2294 117.817C17.0499 117.879 16.847 117.91 16.6206 117.91Z" fill="black"/>
<path d="M21.2448 117.899C21.0965 117.899 20.9834 117.875 20.9053 117.828C20.8351 117.789 20.7882 117.731 20.7648 117.653C20.7492 117.567 20.7414 117.469 20.7414 117.36V112.747C20.7414 112.63 20.7531 112.533 20.7765 112.455C20.7999 112.377 20.8468 112.322 20.917 112.291C20.9873 112.252 21.1004 112.232 21.2565 112.232C21.397 112.232 21.5024 112.252 21.5727 112.291C21.6507 112.322 21.7014 112.373 21.7249 112.443C21.7561 112.505 21.7717 112.579 21.7717 112.665L21.7249 113.017C21.7795 112.915 21.8419 112.814 21.9122 112.712C21.9902 112.611 22.0839 112.521 22.1932 112.443C22.3102 112.357 22.4468 112.287 22.6029 112.232C22.7668 112.178 22.9659 112.15 23.2 112.15C23.3171 112.15 23.4264 112.162 23.5278 112.185C23.6371 112.201 23.7386 112.228 23.8323 112.267C23.9337 112.306 24.0196 112.353 24.0898 112.408C24.1601 112.455 24.2147 112.509 24.2537 112.572C24.3006 112.626 24.324 112.693 24.324 112.771C24.324 112.942 24.2693 113.091 24.1601 113.216C24.0508 113.333 23.9376 113.391 23.8205 113.391C23.7191 113.391 23.6449 113.38 23.5981 113.356C23.5513 113.325 23.5044 113.294 23.4576 113.262C23.4186 113.231 23.36 113.204 23.282 113.18C23.2039 113.149 23.0791 113.134 22.9073 113.134C22.7903 113.134 22.6654 113.157 22.5327 113.204C22.4078 113.251 22.2868 113.321 22.1698 113.415C22.0527 113.5 21.9551 113.614 21.8771 113.754C21.8068 113.895 21.7717 114.059 21.7717 114.246V117.384C21.7717 117.493 21.76 117.586 21.7366 117.665C21.7131 117.743 21.6624 117.801 21.5844 117.84C21.5141 117.879 21.4009 117.899 21.2448 117.899Z" fill="black"/>
<path d="M29.044 117.899C28.8957 117.899 28.7826 117.875 28.7045 117.828C28.6343 117.789 28.5874 117.731 28.564 117.653C28.5406 117.567 28.5289 117.469 28.5289 117.36V110.254C28.5289 110.152 28.5406 110.062 28.564 109.984C28.5952 109.906 28.6499 109.844 28.7279 109.797C28.806 109.75 28.9152 109.727 29.0557 109.727H31.6197C31.9944 109.727 32.3378 109.785 32.65 109.902C32.97 110.012 33.2471 110.183 33.4813 110.417C33.7232 110.644 33.9105 110.921 34.0432 111.249C34.1759 111.577 34.2423 111.955 34.2423 112.384C34.2423 112.806 34.1759 113.18 34.0432 113.508C33.9105 113.836 33.7232 114.113 33.4813 114.34C33.2393 114.558 32.9583 114.726 32.6383 114.843C32.3261 114.96 31.9827 115.019 31.608 115.019H29.5943V117.372C29.5943 117.481 29.5787 117.575 29.5475 117.653C29.524 117.731 29.4733 117.789 29.3953 117.828C29.325 117.875 29.2079 117.899 29.044 117.899ZM29.5943 113.953H31.6197C31.9319 113.953 32.2051 113.895 32.4393 113.778C32.6734 113.653 32.8568 113.473 32.9895 113.239C33.1222 112.997 33.1886 112.704 33.1886 112.361C33.1886 112.033 33.1261 111.752 33.0012 111.518C32.8764 111.284 32.6929 111.104 32.451 110.979C32.2168 110.855 31.9358 110.792 31.608 110.792H29.5943V113.953Z" fill="black"/>
<path d="M38.0541 117.969C37.6717 117.969 37.3048 117.895 36.9536 117.747C36.6102 117.598 36.3019 117.395 36.0287 117.138C35.7555 116.872 35.5409 116.564 35.3848 116.213C35.2287 115.862 35.1506 115.479 35.1506 115.065C35.1506 114.66 35.2248 114.285 35.3731 113.941C35.5214 113.59 35.7282 113.282 35.9936 113.017C36.259 112.751 36.5634 112.544 36.9068 112.396C37.258 112.24 37.6327 112.162 38.0307 112.162C38.5693 112.162 39.0532 112.291 39.4825 112.548C39.9196 112.798 40.2669 113.141 40.5245 113.579C40.7821 114.016 40.9108 114.507 40.9108 115.054C40.9108 115.483 40.8328 115.877 40.6767 116.236C40.5206 116.587 40.3098 116.892 40.0445 117.149C39.7791 117.407 39.4747 117.61 39.1313 117.758C38.7878 117.899 38.4288 117.969 38.0541 117.969ZM38.0307 116.95C38.3585 116.95 38.6629 116.868 38.9439 116.705C39.2249 116.541 39.4513 116.314 39.623 116.025C39.7947 115.737 39.8806 115.409 39.8806 115.042C39.8806 114.675 39.7986 114.351 39.6347 114.07C39.4786 113.789 39.26 113.571 38.9791 113.415C38.6981 113.259 38.3781 113.18 38.019 113.18C37.6756 113.18 37.3634 113.262 37.0824 113.426C36.8092 113.59 36.5868 113.813 36.4151 114.094C36.2511 114.375 36.1692 114.695 36.1692 115.054C36.1692 115.428 36.2551 115.76 36.4268 116.049C36.5985 116.33 36.8248 116.552 37.1058 116.716C37.3946 116.872 37.7029 116.95 38.0307 116.95Z" fill="black"/>
<path d="M44.7108 117.922C44.305 117.922 43.9225 117.856 43.5635 117.723C43.2122 117.59 42.9 117.399 42.6268 117.149C42.3615 116.9 42.1507 116.603 41.9946 116.26C41.8463 115.908 41.7722 115.51 41.7722 115.065C41.7722 114.621 41.8463 114.226 41.9946 113.883C42.1507 113.532 42.3615 113.231 42.6268 112.981C42.8922 112.732 43.2005 112.54 43.5518 112.408C43.9108 112.275 44.2893 112.209 44.6874 112.209C44.9528 112.209 45.2143 112.252 45.4718 112.338C45.7294 112.416 45.9557 112.521 46.1509 112.654C46.3538 112.779 46.4982 112.911 46.5841 113.052C46.6621 113.153 46.7168 113.239 46.748 113.309C46.787 113.372 46.7909 113.446 46.7597 113.532C46.7285 113.594 46.6855 113.653 46.6309 113.707C46.5763 113.754 46.5216 113.793 46.467 113.824C46.3265 113.934 46.186 113.949 46.0455 113.871C45.9596 113.785 45.8621 113.707 45.7528 113.637C45.6513 113.559 45.5421 113.489 45.425 113.426C45.3079 113.364 45.1869 113.317 45.0621 113.286C44.945 113.247 44.8201 113.227 44.6874 113.227C44.3206 113.227 43.9967 113.305 43.7157 113.461C43.4347 113.61 43.2161 113.824 43.06 114.105C42.9117 114.379 42.8376 114.699 42.8376 115.065C42.8376 115.432 42.9117 115.752 43.06 116.025C43.2161 116.299 43.4308 116.513 43.704 116.669C43.9849 116.825 44.305 116.904 44.664 116.904C44.8279 116.904 44.984 116.884 45.1323 116.845C45.2884 116.798 45.4328 116.74 45.5655 116.669C45.6982 116.591 45.8074 116.509 45.8933 116.424C45.9714 116.369 46.0377 116.322 46.0923 116.283C46.147 116.244 46.2133 116.224 46.2914 116.224C46.3538 116.224 46.4202 116.252 46.4904 116.306C46.5606 116.353 46.6348 116.427 46.7128 116.529C46.7753 116.599 46.8104 116.673 46.8182 116.751C46.8338 116.829 46.8221 116.904 46.7831 116.974C46.7441 117.044 46.6816 117.114 46.5958 117.185C46.4709 117.309 46.3031 117.43 46.0923 117.547C45.8894 117.657 45.667 117.747 45.425 117.817C45.183 117.887 44.945 117.922 44.7108 117.922Z" fill="black"/>
<path d="M52.3421 116.986C52.4904 117.103 52.5684 117.216 52.5762 117.325C52.5918 117.434 52.5372 117.563 52.4123 117.711C52.3187 117.821 52.2328 117.891 52.1548 117.922C52.0845 117.961 52.0104 117.965 51.9323 117.934C51.8543 117.91 51.7645 117.856 51.663 117.77L49.0171 115.616V117.372C49.0171 117.481 49.0015 117.575 48.9702 117.653C48.9468 117.731 48.9 117.789 48.8298 117.828C48.7595 117.875 48.6463 117.899 48.4902 117.899C48.3497 117.899 48.2405 117.875 48.1624 117.828C48.0844 117.789 48.0336 117.731 48.0102 117.653C47.9946 117.567 47.9868 117.469 47.9868 117.36V110.136C47.9868 110.027 47.9985 109.934 48.0219 109.855C48.0453 109.777 48.0961 109.719 48.1741 109.68C48.2522 109.633 48.3614 109.61 48.5019 109.61C48.658 109.61 48.7712 109.633 48.8415 109.68C48.9117 109.719 48.9585 109.781 48.982 109.867C49.0054 109.945 49.0171 110.039 49.0171 110.148V114.293L50.9489 112.443C51.0347 112.357 51.1167 112.298 51.1947 112.267C51.2806 112.228 51.3625 112.22 51.4406 112.244C51.5264 112.267 51.6123 112.33 51.6982 112.431C51.8386 112.587 51.905 112.72 51.8972 112.829C51.8972 112.931 51.8269 113.048 51.6864 113.18L49.7898 114.972L52.3421 116.986Z" fill="black"/>
<path d="M56.0298 117.957C55.5615 117.957 55.1439 117.879 54.7771 117.723C54.4103 117.567 54.0981 117.356 53.8405 117.091C53.5907 116.818 53.3995 116.505 53.2668 116.154C53.1341 115.803 53.0678 115.424 53.0678 115.019C53.0678 114.48 53.1927 114 53.4424 113.579C53.6922 113.157 54.0356 112.825 54.4727 112.583C54.9176 112.334 55.4249 112.209 55.9947 112.209C56.385 112.209 56.7323 112.271 57.0367 112.396C57.3489 112.513 57.6143 112.673 57.8328 112.876C58.0514 113.079 58.2192 113.305 58.3363 113.555C58.4533 113.805 58.5119 114.055 58.5119 114.304C58.5119 114.702 58.4182 114.983 58.2309 115.147C58.0436 115.303 57.8133 115.382 57.5401 115.382H54.1566C54.1488 115.725 54.2385 116.022 54.4259 116.271C54.621 116.513 54.863 116.701 55.1518 116.833C55.4483 116.966 55.7449 117.032 56.0415 117.032C56.2601 117.032 56.4474 117.021 56.6035 116.997C56.7596 116.974 56.8962 116.943 57.0133 116.904C57.1304 116.865 57.2318 116.825 57.3177 116.786C57.4035 116.747 57.4777 116.708 57.5401 116.669C57.6104 116.63 57.6767 116.603 57.7392 116.587C57.8094 116.572 57.8758 116.58 57.9382 116.611C58.0084 116.634 58.0631 116.685 58.1021 116.763C58.1489 116.825 58.1802 116.884 58.1958 116.939C58.2114 116.993 58.2192 117.052 58.2192 117.114C58.2192 117.224 58.1255 117.345 57.9382 117.477C57.7509 117.61 57.4894 117.723 57.1538 117.817C56.826 117.91 56.4513 117.957 56.0298 117.957ZM54.1566 114.691H57.0952C57.2435 114.691 57.3528 114.671 57.4231 114.632C57.5011 114.593 57.5401 114.488 57.5401 114.316C57.5401 114.098 57.4738 113.902 57.3411 113.731C57.2084 113.551 57.025 113.407 56.7908 113.298C56.5645 113.188 56.303 113.134 56.0064 113.134C55.663 113.134 55.3469 113.204 55.0581 113.344C54.7771 113.477 54.5547 113.66 54.3907 113.895C54.2268 114.129 54.1488 114.394 54.1566 114.691Z" fill="black"/>
<path d="M62.2381 117.899C61.8713 117.899 61.5591 117.864 61.3015 117.793C61.0518 117.723 60.8449 117.614 60.681 117.466C60.5171 117.317 60.4 117.126 60.3298 116.892C60.2595 116.65 60.2244 116.353 60.2244 116.002V110.827C60.2244 110.718 60.2361 110.624 60.2595 110.546C60.2829 110.468 60.3298 110.41 60.4 110.371C60.4703 110.324 60.5795 110.3 60.7278 110.3C60.8761 110.3 60.9893 110.324 61.0674 110.371C61.1454 110.41 61.1962 110.468 61.2196 110.546C61.243 110.616 61.2547 110.706 61.2547 110.816V116.002C61.2547 116.205 61.2703 116.369 61.3015 116.494C61.3405 116.611 61.3952 116.701 61.4654 116.763C61.5435 116.825 61.645 116.865 61.7698 116.88C61.8947 116.896 62.0469 116.904 62.2264 116.904C62.3513 116.904 62.4528 116.915 62.5308 116.939C62.6089 116.962 62.6674 117.009 62.7065 117.079C62.7455 117.149 62.765 117.255 62.765 117.395C62.765 117.544 62.7416 117.657 62.6947 117.735C62.6557 117.805 62.5933 117.848 62.5074 117.864C62.4294 117.887 62.3396 117.899 62.2381 117.899ZM59.6156 112.361L60.7396 112.373L62.3669 112.349C62.4762 112.349 62.5699 112.361 62.6479 112.384C62.726 112.4 62.7845 112.447 62.8235 112.525C62.8704 112.595 62.8938 112.704 62.8938 112.853C62.8938 113.001 62.8743 113.114 62.8352 113.192C62.7962 113.262 62.7377 113.309 62.6596 113.333C62.5816 113.356 62.4879 113.368 62.3786 113.368L60.7747 113.344L59.5922 113.356C59.4283 113.356 59.3151 113.317 59.2527 113.239C59.198 113.161 59.1707 113.032 59.1707 112.853C59.1707 112.681 59.2058 112.556 59.2761 112.478C59.3463 112.4 59.4595 112.361 59.6156 112.361Z" fill="black"/>
<path d="M69.3785 118.016C69.0819 118.016 68.8009 117.981 68.5355 117.91C68.278 117.84 68.0399 117.747 67.8214 117.629C67.6106 117.505 67.4233 117.368 67.2594 117.22C67.0955 117.071 66.9667 116.923 66.873 116.775C66.7872 116.65 66.7325 116.548 66.7091 116.47C66.6857 116.385 66.6896 116.303 66.7208 116.224C66.7599 116.146 66.834 116.061 66.9433 115.967C67.0682 115.873 67.1774 115.83 67.2711 115.838C67.3648 115.838 67.4506 115.873 67.5287 115.944C67.6145 116.014 67.7004 116.107 67.7862 116.224C67.9814 116.49 68.2194 116.685 68.5004 116.81C68.7814 116.927 69.0585 116.986 69.3317 116.986C69.6829 116.986 69.9951 116.939 70.2683 116.845C70.5415 116.751 70.7561 116.611 70.9122 116.424C71.0761 116.228 71.1581 115.979 71.1581 115.674C71.1581 115.424 71.0956 115.214 70.9707 115.042C70.8459 114.87 70.6781 114.726 70.4673 114.609C70.2566 114.484 70.0224 114.379 69.7649 114.293C69.5073 114.199 69.2458 114.109 68.9804 114.023C68.7697 113.953 68.5629 113.875 68.3599 113.789C68.157 113.696 67.9658 113.594 67.7862 113.485C67.6067 113.368 67.4467 113.231 67.3062 113.075C67.1735 112.919 67.0682 112.736 66.9901 112.525C66.9199 112.314 66.8847 112.068 66.8847 111.787C66.8847 111.358 66.9862 110.979 67.1891 110.652C67.3999 110.324 67.6926 110.07 68.0672 109.891C68.4419 109.703 68.8751 109.61 69.3668 109.61C69.6556 109.61 69.921 109.637 70.1629 109.692C70.4049 109.746 70.6195 109.82 70.8068 109.914C70.9942 110 71.1542 110.094 71.2869 110.195C71.4195 110.289 71.521 110.378 71.5913 110.464C71.7318 110.613 71.8098 110.737 71.8254 110.839C71.841 110.94 71.7825 111.065 71.6498 111.214C71.5249 111.354 71.4039 111.428 71.2869 111.436C71.1698 111.444 71.041 111.389 70.9005 111.272C70.7522 111.1 70.5961 110.968 70.4322 110.874C70.2761 110.78 70.1083 110.718 69.9288 110.687C69.757 110.648 69.5658 110.628 69.3551 110.628C69.1521 110.628 68.9609 110.656 68.7814 110.71C68.6097 110.757 68.4575 110.831 68.3248 110.933C68.1999 111.034 68.1023 111.159 68.0321 111.307C67.9619 111.448 67.9267 111.612 67.9267 111.799C67.9267 112.01 67.9814 112.189 68.0906 112.338C68.2077 112.486 68.3599 112.615 68.5472 112.724C68.7346 112.825 68.9453 112.919 69.1795 113.005C69.4136 113.083 69.6595 113.161 69.9171 113.239C70.198 113.325 70.4751 113.43 70.7483 113.555C71.0215 113.672 71.2673 113.821 71.4859 114C71.7044 114.172 71.8801 114.39 72.0127 114.656C72.1454 114.921 72.2118 115.249 72.2118 115.639C72.2118 116.029 72.1337 116.373 71.9776 116.669C71.8293 116.966 71.6225 117.216 71.3571 117.419C71.0917 117.614 70.7873 117.762 70.4439 117.864C70.1083 117.965 69.7531 118.016 69.3785 118.016Z" fill="black"/>
<path d="M75.6739 117.91C75.3305 117.91 75.0104 117.848 74.7139 117.723C74.4251 117.598 74.1714 117.423 73.9528 117.196C73.7343 116.97 73.5626 116.697 73.4377 116.377C73.3206 116.057 73.2621 115.694 73.2621 115.288V112.747C73.2621 112.638 73.2738 112.544 73.2972 112.466C73.3206 112.388 73.3675 112.33 73.4377 112.291C73.5158 112.244 73.6289 112.22 73.7772 112.22C73.9255 112.22 74.0348 112.244 74.105 112.291C74.1831 112.338 74.2338 112.4 74.2572 112.478C74.2807 112.556 74.2924 112.65 74.2924 112.759V115.3C74.2924 115.62 74.347 115.904 74.4563 116.154C74.5656 116.396 74.7295 116.584 74.948 116.716C75.1744 116.849 75.4475 116.915 75.7675 116.915C76.0954 116.915 76.3764 116.849 76.6105 116.716C76.8525 116.584 77.0359 116.396 77.1608 116.154C77.2935 115.904 77.3598 115.62 77.3598 115.3V112.747C77.3598 112.638 77.3715 112.544 77.3949 112.466C77.4183 112.388 77.4652 112.33 77.5354 112.291C77.6135 112.244 77.7266 112.22 77.8749 112.22C78.0232 112.22 78.1325 112.244 78.2028 112.291C78.2808 112.338 78.3276 112.4 78.3432 112.478C78.3667 112.556 78.3784 112.65 78.3784 112.759V117.407C78.3784 117.501 78.3667 117.586 78.3432 117.665C78.3276 117.735 78.2808 117.789 78.2028 117.828C78.1325 117.867 78.0232 117.887 77.8749 117.887C77.7657 117.887 77.6759 117.875 77.6057 117.852C77.5432 117.828 77.4964 117.797 77.4652 117.758C77.434 117.719 77.4105 117.676 77.3949 117.629C77.3871 117.575 77.3832 117.52 77.3832 117.466L77.43 116.962C77.352 117.056 77.2583 117.157 77.1491 117.266C77.0398 117.376 76.911 117.481 76.7627 117.583C76.6222 117.676 76.4622 117.754 76.2827 117.817C76.1032 117.879 75.9002 117.91 75.6739 117.91Z" fill="black"/>
<path d="M82.6513 117.852C82.2689 117.852 81.9216 117.782 81.6093 117.641C81.2971 117.501 81.0318 117.306 80.8132 117.056C80.5947 116.798 80.423 116.498 80.2981 116.154C80.181 115.811 80.1264 115.432 80.1342 115.019C80.1342 114.613 80.1927 114.238 80.3098 113.895C80.4269 113.551 80.5947 113.255 80.8132 113.005C81.0396 112.747 81.3049 112.552 81.6093 112.419C81.9216 112.279 82.2689 112.209 82.6513 112.209C83.0104 112.209 83.346 112.279 83.6582 112.419C83.9782 112.56 84.2553 112.759 84.4894 113.017C84.7314 113.266 84.9187 113.567 85.0514 113.918C85.1919 114.269 85.2622 114.648 85.2622 115.054C85.2622 115.46 85.1919 115.834 85.0514 116.178C84.9187 116.521 84.7314 116.818 84.4894 117.067C84.2553 117.317 83.9782 117.512 83.6582 117.653C83.346 117.786 83.0104 117.852 82.6513 117.852ZM80.2161 120.205C80.0678 120.205 79.9547 120.182 79.8766 120.135C79.8064 120.096 79.7556 120.037 79.7244 119.959C79.701 119.881 79.6893 119.788 79.6893 119.678V112.759C79.6893 112.65 79.701 112.556 79.7244 112.478C79.7478 112.4 79.7946 112.341 79.8649 112.302C79.9429 112.256 80.0561 112.232 80.2044 112.232C80.3761 112.232 80.501 112.259 80.5791 112.314C80.6649 112.369 80.7157 112.466 80.7313 112.607V119.667C80.7391 119.776 80.7313 119.87 80.7078 119.948C80.6844 120.033 80.6337 120.096 80.5556 120.135C80.4854 120.182 80.3722 120.205 80.2161 120.205ZM82.4991 116.892C82.827 116.892 83.1236 116.814 83.3889 116.658C83.6543 116.494 83.8611 116.271 84.0094 115.99C84.1655 115.709 84.2436 115.389 84.2436 115.03C84.2436 114.663 84.1655 114.343 84.0094 114.07C83.8611 113.797 83.6543 113.586 83.3889 113.438C83.1314 113.282 82.8348 113.204 82.4991 113.204C82.1713 113.204 81.8747 113.282 81.6093 113.438C81.3518 113.594 81.1449 113.809 80.9888 114.082C80.8405 114.355 80.7664 114.671 80.7664 115.03C80.7664 115.389 80.8405 115.709 80.9888 115.99C81.1449 116.271 81.3518 116.494 81.6093 116.658C81.8747 116.814 82.1713 116.892 82.4991 116.892Z" fill="black"/>
<path d="M89.1751 117.957C88.7068 117.957 88.2892 117.879 87.9224 117.723C87.5555 117.567 87.2433 117.356 86.9858 117.091C86.736 116.818 86.5448 116.505 86.4121 116.154C86.2794 115.803 86.213 115.424 86.213 115.019C86.213 114.48 86.3379 114 86.5877 113.579C86.8375 113.157 87.1809 112.825 87.618 112.583C88.0629 112.334 88.5702 112.209 89.14 112.209C89.5302 112.209 89.8776 112.271 90.182 112.396C90.4942 112.513 90.7596 112.673 90.9781 112.876C91.1966 113.079 91.3644 113.305 91.4815 113.555C91.5986 113.805 91.6572 114.055 91.6572 114.304C91.6572 114.702 91.5635 114.983 91.3762 115.147C91.1888 115.303 90.9586 115.382 90.6854 115.382H87.3019C87.2941 115.725 87.3838 116.022 87.5711 116.271C87.7663 116.513 88.0082 116.701 88.297 116.833C88.5936 116.966 88.8902 117.032 89.1868 117.032C89.4054 117.032 89.5927 117.021 89.7488 116.997C89.9049 116.974 90.0415 116.943 90.1586 116.904C90.2756 116.865 90.3771 116.825 90.463 116.786C90.5488 116.747 90.623 116.708 90.6854 116.669C90.7556 116.63 90.822 116.603 90.8844 116.587C90.9547 116.572 91.021 116.58 91.0835 116.611C91.1537 116.634 91.2084 116.685 91.2474 116.763C91.2942 116.825 91.3254 116.884 91.341 116.939C91.3567 116.993 91.3645 117.052 91.3645 117.114C91.3645 117.224 91.2708 117.345 91.0835 117.477C90.8961 117.61 90.6347 117.723 90.299 117.817C89.9712 117.91 89.5966 117.957 89.1751 117.957ZM87.3019 114.691H90.2405C90.3888 114.691 90.4981 114.671 90.5683 114.632C90.6464 114.593 90.6854 114.488 90.6854 114.316C90.6854 114.098 90.6191 113.902 90.4864 113.731C90.3537 113.551 90.1703 113.407 89.9361 113.298C89.7098 113.188 89.4483 113.134 89.1517 113.134C88.8083 113.134 88.4921 113.204 88.2034 113.344C87.9224 113.477 87.6999 113.66 87.536 113.895C87.3721 114.129 87.2941 114.394 87.3019 114.691Z" fill="black"/>
<path d="M93.3435 117.899C93.1952 117.899 93.0821 117.875 93.004 117.828C92.9338 117.789 92.8869 117.731 92.8635 117.653C92.8479 117.567 92.8401 117.469 92.8401 117.36V112.747C92.8401 112.63 92.8518 112.533 92.8752 112.455C92.8986 112.377 92.9455 112.322 93.0157 112.291C93.086 112.252 93.1991 112.232 93.3552 112.232C93.4957 112.232 93.6011 112.252 93.6713 112.291C93.7494 112.322 93.8001 112.373 93.8235 112.443C93.8548 112.505 93.8704 112.579 93.8704 112.665L93.8235 113.017C93.8782 112.915 93.9406 112.814 94.0109 112.712C94.0889 112.611 94.1826 112.521 94.2919 112.443C94.4089 112.357 94.5455 112.287 94.7016 112.232C94.8655 112.178 95.0646 112.15 95.2987 112.15C95.4158 112.15 95.5251 112.162 95.6265 112.185C95.7358 112.201 95.8373 112.228 95.9309 112.267C96.0324 112.306 96.1183 112.353 96.1885 112.408C96.2588 112.455 96.3134 112.509 96.3524 112.572C96.3992 112.626 96.4227 112.693 96.4227 112.771C96.4227 112.942 96.368 113.091 96.2588 113.216C96.1495 113.333 96.0363 113.391 95.9192 113.391C95.8178 113.391 95.7436 113.38 95.6968 113.356C95.65 113.325 95.6031 113.294 95.5563 113.262C95.5173 113.231 95.4587 113.204 95.3807 113.18C95.3026 113.149 95.1777 113.134 95.006 113.134C94.8889 113.134 94.7641 113.157 94.6314 113.204C94.5065 113.251 94.3855 113.321 94.2684 113.415C94.1514 113.5 94.0538 113.614 93.9757 113.754C93.9055 113.895 93.8704 114.059 93.8704 114.246V117.384C93.8704 117.493 93.8587 117.586 93.8353 117.665C93.8118 117.743 93.7611 117.801 93.6831 117.84C93.6128 117.879 93.4996 117.899 93.3435 117.899Z" fill="black"/>
<path d="M98.0881 117.899C97.9398 117.899 97.8305 117.875 97.7603 117.828C97.69 117.782 97.6432 117.719 97.6198 117.641C97.5964 117.563 97.5847 117.469 97.5847 117.36V112.724C97.5847 112.615 97.5964 112.525 97.6198 112.455C97.6432 112.384 97.69 112.33 97.7603 112.291C97.8383 112.252 97.9515 112.232 98.0998 112.232C98.2715 112.232 98.3925 112.267 98.4627 112.338C98.5408 112.4 98.5798 112.513 98.5798 112.677L98.533 113.18C98.5876 113.063 98.6696 112.946 98.7788 112.829C98.8881 112.712 99.0169 112.607 99.1652 112.513C99.3213 112.419 99.4852 112.345 99.6569 112.291C99.8286 112.236 100.004 112.209 100.184 112.209C100.457 112.209 100.699 112.259 100.91 112.361C101.128 112.455 101.323 112.591 101.495 112.771C101.667 112.95 101.811 113.173 101.928 113.438C102.084 113.18 102.248 112.962 102.42 112.782C102.599 112.595 102.802 112.455 103.029 112.361C103.255 112.259 103.509 112.209 103.79 112.209C104.235 112.209 104.605 112.322 104.902 112.548C105.206 112.767 105.433 113.079 105.581 113.485C105.737 113.883 105.815 114.363 105.815 114.925V117.372C105.815 117.481 105.803 117.575 105.78 117.653C105.764 117.731 105.718 117.789 105.64 117.828C105.569 117.875 105.456 117.899 105.3 117.899C105.152 117.899 105.039 117.875 104.961 117.828C104.89 117.782 104.843 117.719 104.82 117.641C104.797 117.563 104.785 117.469 104.785 117.36V114.913C104.785 114.562 104.742 114.261 104.656 114.012C104.578 113.754 104.453 113.555 104.281 113.415C104.118 113.274 103.903 113.204 103.638 113.204C103.357 113.204 103.107 113.274 102.888 113.415C102.678 113.547 102.514 113.742 102.397 114C102.279 114.258 102.221 114.562 102.221 114.913V117.384C102.221 117.501 102.198 117.602 102.151 117.688C102.104 117.774 102.034 117.832 101.94 117.864C101.846 117.903 101.733 117.91 101.6 117.887C101.476 117.871 101.382 117.84 101.319 117.793C101.257 117.747 101.218 117.688 101.202 117.618C101.187 117.54 101.179 117.454 101.179 117.36V114.913C101.179 114.562 101.136 114.261 101.05 114.012C100.972 113.754 100.847 113.555 100.675 113.415C100.512 113.274 100.297 113.204 100.032 113.204C99.7506 113.204 99.5008 113.278 99.2823 113.426C99.0715 113.567 98.9076 113.766 98.7906 114.023C98.6735 114.281 98.6149 114.578 98.6149 114.913V117.372C98.6149 117.481 98.6032 117.575 98.5798 117.653C98.5564 117.731 98.5057 117.789 98.4276 117.828C98.3574 117.875 98.2442 117.899 98.0881 117.899Z" fill="black"/>
<path d="M112.081 117.887C111.909 117.887 111.784 117.852 111.706 117.782C111.636 117.711 111.593 117.602 111.577 117.454L111.624 116.868C111.546 116.993 111.425 117.138 111.261 117.302C111.097 117.458 110.883 117.598 110.617 117.723C110.352 117.84 110.028 117.899 109.646 117.899C109.271 117.899 108.92 117.825 108.592 117.676C108.272 117.528 107.987 117.321 107.737 117.056C107.495 116.79 107.304 116.486 107.164 116.143C107.031 115.799 106.965 115.432 106.965 115.042C106.965 114.66 107.031 114.301 107.164 113.965C107.304 113.621 107.499 113.321 107.749 113.063C107.999 112.806 108.284 112.603 108.604 112.455C108.931 112.306 109.279 112.232 109.646 112.232C109.989 112.232 110.282 112.279 110.524 112.373C110.766 112.459 110.973 112.576 111.144 112.724C111.324 112.864 111.48 113.024 111.613 113.204L111.589 112.712C111.581 112.54 111.616 112.419 111.695 112.349C111.78 112.271 111.913 112.232 112.093 112.232C112.241 112.232 112.346 112.256 112.409 112.302C112.479 112.349 112.526 112.416 112.549 112.501C112.573 112.587 112.584 112.693 112.584 112.818V117.337C112.584 117.446 112.573 117.544 112.549 117.629C112.526 117.715 112.479 117.778 112.409 117.817C112.338 117.864 112.229 117.887 112.081 117.887ZM109.821 116.915C110.133 116.915 110.418 116.833 110.676 116.669C110.941 116.505 111.148 116.287 111.296 116.014C111.453 115.733 111.531 115.413 111.531 115.054C111.531 114.687 111.449 114.367 111.285 114.094C111.129 113.813 110.918 113.594 110.653 113.438C110.395 113.274 110.11 113.192 109.798 113.192C109.431 113.192 109.111 113.278 108.838 113.45C108.572 113.614 108.362 113.836 108.206 114.117C108.049 114.398 107.971 114.718 107.971 115.077C107.971 115.428 108.049 115.744 108.206 116.025C108.362 116.299 108.576 116.517 108.85 116.681C109.131 116.837 109.454 116.915 109.821 116.915Z" fill="black"/>
<path d="M114.495 117.899C114.347 117.899 114.234 117.875 114.156 117.828C114.085 117.789 114.039 117.731 114.015 117.653C114 117.567 113.992 117.469 113.992 117.36V112.747C113.992 112.63 114.003 112.533 114.027 112.455C114.05 112.377 114.097 112.322 114.167 112.291C114.238 112.252 114.351 112.232 114.507 112.232C114.647 112.232 114.753 112.252 114.823 112.291C114.901 112.322 114.952 112.373 114.975 112.443C115.006 112.505 115.022 112.579 115.022 112.665L114.975 113.017C115.03 112.915 115.092 112.814 115.163 112.712C115.241 112.611 115.334 112.521 115.444 112.443C115.561 112.357 115.697 112.287 115.853 112.232C116.017 112.178 116.216 112.15 116.45 112.15C116.567 112.15 116.677 112.162 116.778 112.185C116.887 112.201 116.989 112.228 117.083 112.267C117.184 112.306 117.27 112.353 117.34 112.408C117.41 112.455 117.465 112.509 117.504 112.572C117.551 112.626 117.574 112.693 117.574 112.771C117.574 112.942 117.52 113.091 117.41 113.216C117.301 113.333 117.188 113.391 117.071 113.391C116.969 113.391 116.895 113.38 116.848 113.356C116.802 113.325 116.755 113.294 116.708 113.262C116.669 113.231 116.61 113.204 116.532 113.18C116.454 113.149 116.329 113.134 116.158 113.134C116.041 113.134 115.916 113.157 115.783 113.204C115.658 113.251 115.537 113.321 115.42 113.415C115.303 113.5 115.205 113.614 115.127 113.754C115.057 113.895 115.022 114.059 115.022 114.246V117.384C115.022 117.493 115.01 117.586 114.987 117.665C114.964 117.743 114.913 117.801 114.835 117.84C114.764 117.879 114.651 117.899 114.495 117.899Z" fill="black"/>
<path d="M123.092 116.986C123.24 117.103 123.318 117.216 123.326 117.325C123.341 117.434 123.287 117.563 123.162 117.711C123.068 117.821 122.982 117.891 122.904 117.922C122.834 117.961 122.76 117.965 122.682 117.934C122.604 117.91 122.514 117.856 122.413 117.77L119.767 115.616V117.372C119.767 117.481 119.751 117.575 119.72 117.653C119.696 117.731 119.65 117.789 119.579 117.828C119.509 117.875 119.396 117.899 119.24 117.899C119.099 117.899 118.99 117.875 118.912 117.828C118.834 117.789 118.783 117.731 118.76 117.653C118.744 117.567 118.736 117.469 118.736 117.36V110.136C118.736 110.027 118.748 109.934 118.771 109.855C118.795 109.777 118.846 109.719 118.924 109.68C119.002 109.633 119.111 109.61 119.251 109.61C119.408 109.61 119.521 109.633 119.591 109.68C119.661 109.719 119.708 109.781 119.732 109.867C119.755 109.945 119.767 110.039 119.767 110.148V114.293L121.698 112.443C121.784 112.357 121.866 112.298 121.944 112.267C122.03 112.228 122.112 112.22 122.19 112.244C122.276 112.267 122.362 112.33 122.448 112.431C122.588 112.587 122.655 112.72 122.647 112.829C122.647 112.931 122.576 113.048 122.436 113.18L120.539 114.972L123.092 116.986Z" fill="black"/>
<path d="M126.779 117.957C126.311 117.957 125.894 117.879 125.527 117.723C125.16 117.567 124.848 117.356 124.59 117.091C124.34 116.818 124.149 116.505 124.016 116.154C123.884 115.803 123.817 115.424 123.817 115.019C123.817 114.48 123.942 114 124.192 113.579C124.442 113.157 124.785 112.825 125.222 112.583C125.667 112.334 126.174 112.209 126.744 112.209C127.135 112.209 127.482 112.271 127.786 112.396C128.098 112.513 128.364 112.673 128.582 112.876C128.801 113.079 128.969 113.305 129.086 113.555C129.203 113.805 129.261 114.055 129.261 114.304C129.261 114.702 129.168 114.983 128.98 115.147C128.793 115.303 128.563 115.382 128.29 115.382H124.906C124.898 115.725 124.988 116.022 125.175 116.271C125.371 116.513 125.613 116.701 125.901 116.833C126.198 116.966 126.494 117.032 126.791 117.032C127.01 117.032 127.197 117.021 127.353 116.997C127.509 116.974 127.646 116.943 127.763 116.904C127.88 116.865 127.981 116.825 128.067 116.786C128.153 116.747 128.227 116.708 128.29 116.669C128.36 116.63 128.426 116.603 128.489 116.587C128.559 116.572 128.625 116.58 128.688 116.611C128.758 116.634 128.813 116.685 128.852 116.763C128.898 116.825 128.93 116.884 128.945 116.939C128.961 116.993 128.969 117.052 128.969 117.114C128.969 117.224 128.875 117.345 128.688 117.477C128.5 117.61 128.239 117.723 127.903 117.817C127.576 117.91 127.201 117.957 126.779 117.957ZM124.906 114.691H127.845C127.993 114.691 128.102 114.671 128.173 114.632C128.251 114.593 128.29 114.488 128.29 114.316C128.29 114.098 128.223 113.902 128.091 113.731C127.958 113.551 127.775 113.407 127.54 113.298C127.314 113.188 127.053 113.134 126.756 113.134C126.413 113.134 126.096 113.204 125.808 113.344C125.527 113.477 125.304 113.66 125.14 113.895C124.976 114.129 124.898 114.394 124.906 114.691Z" fill="black"/>
<path d="M132.988 117.899C132.621 117.899 132.309 117.864 132.051 117.793C131.801 117.723 131.594 117.614 131.431 117.466C131.267 117.317 131.15 117.126 131.079 116.892C131.009 116.65 130.974 116.353 130.974 116.002V110.827C130.974 110.718 130.986 110.624 131.009 110.546C131.033 110.468 131.079 110.41 131.15 110.371C131.22 110.324 131.329 110.3 131.477 110.3C131.626 110.3 131.739 110.324 131.817 110.371C131.895 110.41 131.946 110.468 131.969 110.546C131.993 110.616 132.004 110.706 132.004 110.816V116.002C132.004 116.205 132.02 116.369 132.051 116.494C132.09 116.611 132.145 116.701 132.215 116.763C132.293 116.825 132.395 116.865 132.519 116.88C132.644 116.896 132.796 116.904 132.976 116.904C133.101 116.904 133.202 116.915 133.28 116.939C133.358 116.962 133.417 117.009 133.456 117.079C133.495 117.149 133.515 117.255 133.515 117.395C133.515 117.544 133.491 117.657 133.444 117.735C133.405 117.805 133.343 117.848 133.257 117.864C133.179 117.887 133.089 117.899 132.988 117.899ZM130.365 112.361L131.489 112.373L133.116 112.349C133.226 112.349 133.319 112.361 133.397 112.384C133.476 112.4 133.534 112.447 133.573 112.525C133.62 112.595 133.643 112.704 133.643 112.853C133.643 113.001 133.624 113.114 133.585 113.192C133.546 113.262 133.487 113.309 133.409 113.333C133.331 113.356 133.237 113.368 133.128 113.368L131.524 113.344L130.342 113.356C130.178 113.356 130.065 113.317 130.002 113.239C129.948 113.161 129.92 113.032 129.92 112.853C129.92 112.681 129.955 112.556 130.026 112.478C130.096 112.4 130.209 112.361 130.365 112.361Z" fill="black"/>
</svg>
