<svg width="25" height="24" viewBox="0 0 25 24" fill="none" xmlns="http://www.w3.org/2000/svg">
<g clip-path="url(#clip0_15_279)">
<path d="M12.6251 12C13.4162 12 14.1895 11.7654 14.8473 11.3259C15.5051 10.8864 16.0178 10.2616 16.3206 9.53073C16.6233 8.79983 16.7025 7.99556 16.5482 7.21964C16.3939 6.44371 16.0129 5.73098 15.4535 5.17157C14.8941 4.61216 14.1813 4.2312 13.4054 4.07686C12.6295 3.92252 11.8252 4.00173 11.0943 4.30448C10.3634 4.60723 9.7387 5.11992 9.29918 5.77772C8.85965 6.43552 8.62506 7.20887 8.62506 8C8.62506 9.06087 9.04648 10.0783 9.79663 10.8284C10.5468 11.5786 11.5642 12 12.6251 12ZM12.6251 6C13.0206 6 13.4073 6.1173 13.7362 6.33706C14.0651 6.55682 14.3214 6.86918 14.4728 7.23463C14.6242 7.60009 14.6638 8.00222 14.5866 8.39018C14.5095 8.77814 14.319 9.13451 14.0393 9.41421C13.7596 9.69392 13.4032 9.8844 13.0152 9.96157C12.6273 10.0387 12.2251 9.99913 11.8597 9.84776C11.4942 9.69638 11.1819 9.44004 10.9621 9.11114C10.7424 8.78224 10.6251 8.39556 10.6251 8C10.6251 7.46957 10.8358 6.96086 11.2108 6.58579C11.5859 6.21071 12.0946 6 12.6251 6ZM21.2851 9.157L20.5661 8.918C20.6954 7.79792 20.5866 6.66315 20.2467 5.58809C19.9067 4.51302 19.3434 3.52196 18.5936 2.67989C17.8437 1.83782 16.9244 1.16376 15.8958 0.701913C14.8672 0.240067 13.7526 0.000867481 12.6251 0C11.4828 0.000440969 10.3539 0.245694 9.31447 0.719235C8.27501 1.19278 7.34912 1.8836 6.59918 2.74518C5.84924 3.60675 5.29267 4.61905 4.96697 5.71387C4.64127 6.80869 4.554 7.96061 4.71106 9.092C3.75409 9.27043 2.86918 9.72192 2.16306 10.392C1.67423 10.8567 1.28563 11.4166 1.02113 12.037C0.756643 12.6575 0.621855 13.3255 0.625056 14V18.075C0.627157 19.1563 0.978848 20.208 1.62765 21.0731C2.27645 21.9381 3.18757 22.5702 4.22506 22.875L7.09506 23.775C7.57712 23.925 8.07919 24.0009 8.58406 24C9.04205 23.9994 9.49785 23.9368 9.93906 23.814L15.7191 22.104C16.234 21.9635 16.7771 21.9635 17.2921 22.104L19.6791 22.904C20.2674 23.0472 20.8805 23.055 21.4722 22.9267C22.064 22.7985 22.6189 22.5376 23.0951 22.1637C23.5714 21.7898 23.9565 21.3127 24.2215 20.7683C24.4865 20.2239 24.6245 19.6265 24.6251 19.021V13.872C24.6228 12.8374 24.3006 11.8288 23.7026 10.9845C23.1047 10.1402 22.2602 9.50255 21.2851 9.157ZM8.38306 3.762C8.93931 3.20349 9.60039 2.76032 10.3283 2.45793C11.0563 2.15554 11.8368 1.99988 12.6251 1.99988C13.4133 1.99988 14.1938 2.15554 14.9218 2.45793C15.6497 2.76032 16.3108 3.20349 16.8671 3.762C17.9892 4.89114 18.62 6.41782 18.622 8.00974C18.6241 9.60166 17.9973 11.13 16.8781 12.262L13.3251 15.717C13.1396 15.8988 12.8903 16.0007 12.6306 16.0007C12.3708 16.0007 12.1215 15.8988 11.9361 15.717L8.38306 12.277C7.25853 11.1454 6.62736 9.61484 6.62736 8.0195C6.62736 6.42416 7.25853 4.89361 8.38306 3.762ZM22.6251 19.021C22.6257 19.3239 22.5572 19.6229 22.4248 19.8953C22.2924 20.1677 22.0996 20.4063 21.8611 20.593C21.6357 20.7742 21.3731 20.9035 21.0921 20.9718C20.8111 21.0401 20.5185 21.0456 20.2351 20.988L17.8901 20.2C17.0031 19.9452 16.063 19.9396 15.1731 20.184L9.38906 21.892C8.83333 22.0453 8.24521 22.0352 7.69506 21.863L4.80106 20.963C4.17471 20.7819 3.62401 20.4025 3.23165 19.8817C2.8393 19.361 2.62644 18.727 2.62506 18.075V14C2.62281 13.5958 2.70326 13.1954 2.86148 12.8234C3.01969 12.4514 3.25232 12.1157 3.54506 11.837C4.00331 11.4003 4.58707 11.1184 5.21406 11.031C5.61716 12.0302 6.21744 12.9379 6.97906 13.7L10.5461 17.153C11.1036 17.6989 11.8528 18.0046 12.6331 18.0046C13.4133 18.0046 14.1625 17.6989 14.7201 17.153L18.2831 13.69C19.0808 12.889 19.6988 11.9274 20.0961 10.869L20.6331 11.047C21.2154 11.2557 21.7192 11.639 22.0757 12.1445C22.4322 12.6501 22.6241 13.2534 22.6251 13.872V19.021Z" fill="#777777"/>
</g>
<defs>
<clipPath id="clip0_15_279">
<rect width="24" height="24" fill="white" transform="translate(0.625)"/>
</clipPath>
</defs>
</svg>
