<svg width="16" height="3" viewBox="0 0 16 3" fill="none" xmlns="http://www.w3.org/2000/svg">
<path fill-rule="evenodd" clip-rule="evenodd" d="M8.88889 1.2222C8.88889 0.731286 8.49093 0.333313 8 0.333313C7.50907 0.333313 7.11111 0.731286 7.11111 1.2222V0.777758H0.888889C0.397973 0.777758 0 1.17571 0 1.66665C0 2.15758 0.397973 2.55554 0.888889 2.55554H7.11111V2.11109C7.11111 2.60202 7.50907 2.99998 8 2.99998C8.49093 2.99998 8.88889 2.60202 8.88889 2.11109V2.55554H15.1111C15.602 2.55554 16 2.15758 16 1.66665C16 1.17571 15.602 0.777758 15.1111 0.777758H8.88889V1.2222Z" fill="#1F1F1F"/>
</svg>
