<svg width="16" height="17" viewBox="0 0 16 17" fill="none" xmlns="http://www.w3.org/2000/svg">
<path fill-rule="evenodd" clip-rule="evenodd" d="M8.88889 7.7222C8.88889 7.23129 8.49093 6.83331 8 6.83331C7.50907 6.83331 7.11111 7.23129 7.11111 7.7222V7.27776H0.888889C0.397973 7.27776 0 7.67571 0 8.16665C0 8.65758 0.397973 9.05554 0.888889 9.05554H7.11111V8.61109C7.11111 9.10202 7.50907 9.49998 8 9.49998C8.49093 9.49998 8.88889 9.10202 8.88889 8.61109V9.05554H15.1111C15.602 9.05554 16 8.65758 16 8.16665C16 7.67571 15.602 7.27776 15.1111 7.27776H8.88889V7.7222Z" fill="#1F1F1F"/>
</svg>
