<svg width="49" height="40" viewBox="0 0 49 40" fill="none" xmlns="http://www.w3.org/2000/svg">
<path d="M39.5118 11.3722V32.2812H4.66394V11.3722L22.0883 0.918091L39.5118 11.3722Z" fill="#FFA001"/>
<path d="M39.5117 11.3722V32.2812H22.0883V0.918091L39.5117 11.3722Z" fill="#F87F02"/>
<path d="M0.166748 11.3723L4.66375 0.917725H22.0879L17.5909 11.3723H0.166748Z" fill="#FFDA2D"/>
<path d="M44.009 11.3723L39.512 0.917725H22.0879L26.5849 11.3723H44.009Z" fill="#FCBE00"/>
<path d="M10.2649 23.5195H13.0774V26.332H10.2649V23.5195Z" fill="#FFDA2D"/>
<path d="M48.1668 28.7969C48.1668 34.4772 43.5618 39.0822 37.8815 39.0822C32.2002 39.0822 27.5952 34.4772 27.5952 28.7969C27.5952 23.1157 32.2002 18.5107 37.8815 18.5107C43.5618 18.5107 48.1668 23.1156 48.1668 28.7969Z" fill="#83E470"/>
<path d="M48.1668 28.7969C48.1668 34.4772 43.5618 39.0822 37.8815 39.0822V18.5107C43.5618 18.5107 48.1668 23.1156 48.1668 28.7969Z" fill="#01B763"/>
<path d="M43.2636 27.131L37.8814 32.513L36.9486 33.446L32.4983 28.9955L34.4877 27.0071L36.9486 29.468L37.8814 28.5353L41.2742 25.1425L43.2636 27.131Z" fill="#F3FDFF"/>
<path d="M43.2637 27.131L37.8815 32.513V28.5353L41.2743 25.1425L43.2637 27.131Z" fill="#D7F3F7"/>
</svg>
