<svg width="20" height="20" viewBox="0 0 20 20" fill="none" xmlns="http://www.w3.org/2000/svg">
<g clip-path="url(#clip0_0_1672)">
<path d="M17.5 4.99996H4.16667C3.45083 4.99996 2.77333 4.68996 2.30417 4.16746C2.7625 3.65579 3.42833 3.33329 4.16667 3.33329H19.1667C19.6275 3.33329 20 2.95996 20 2.49996C20 2.03996 19.6275 1.66663 19.1667 1.66663H4.16667C1.86583 1.66663 0 3.53246 0 5.83329V14.1666C0 16.4675 1.86583 18.3333 4.16667 18.3333H17.5C18.8808 18.3333 20 17.2141 20 15.8333V7.49996C20 6.11913 18.8808 4.99996 17.5 4.99996ZM18.3333 15.8333C18.3333 16.2925 17.96 16.6666 17.5 16.6666H4.16667C2.78833 16.6666 1.66667 15.545 1.66667 14.1666V5.83163C2.37833 6.36413 3.25333 6.66663 4.16667 6.66663H17.5C17.96 6.66663 18.3333 7.04079 18.3333 7.49996V15.8333ZM16.6667 11.6666C16.6667 12.1266 16.2933 12.5 15.8333 12.5C15.3733 12.5 15 12.1266 15 11.6666C15 11.2066 15.3733 10.8333 15.8333 10.8333C16.2933 10.8333 16.6667 11.2066 16.6667 11.6666Z" fill="#DF1C26"/>
</g>
<defs>
<clipPath id="clip0_0_1672">
<rect width="20" height="20" fill="white"/>
</clipPath>
</defs>
</svg>
