<svg width="20" height="20" viewBox="0 0 20 20" fill="none" xmlns="http://www.w3.org/2000/svg">
<path d="M10.0002 0C8.42047 0.000169172 6.8633 0.374574 5.4562 1.09254C4.0491 1.81051 2.83211 2.85162 1.90493 4.13058C0.977749 5.40954 0.36675 6.88996 0.121989 8.45057C-0.122773 10.0112 0.00566597 11.6076 0.496784 13.109C0.987902 14.6104 1.82773 15.9741 2.94746 17.0883C4.06719 18.2026 5.43497 19.0357 6.93876 19.5195C8.44254 20.0033 10.0395 20.1239 11.5989 19.8715C13.1583 19.6192 14.6357 19.0009 15.9102 18.0675L14.9235 16.7242C13.4122 17.8308 11.5722 18.396 9.70026 18.3286C7.82835 18.2612 6.03373 17.5651 4.60597 16.3526C3.17821 15.1402 2.20057 13.482 1.8308 11.6457C1.46104 9.80948 1.7207 7.90218 2.5679 6.23159C3.41509 4.56101 4.80042 3.22456 6.50035 2.43789C8.20028 1.65122 10.1157 1.46021 11.9375 1.89567C13.7593 2.33113 15.3812 3.36767 16.5417 4.83805C17.7021 6.30842 18.3333 8.12687 18.3335 10V11.6667C18.3335 12.1087 18.1579 12.5326 17.8453 12.8452C17.5328 13.1577 17.1088 13.3333 16.6668 13.3333C16.2248 13.3333 15.8009 13.1577 15.4883 12.8452C15.1757 12.5326 15.0002 12.1087 15.0002 11.6667V10C15.0042 8.82357 14.5948 7.68312 13.8433 6.77793C13.0919 5.87273 12.0463 5.26035 10.8892 5.04779C9.73217 4.83523 8.5372 5.03601 7.51312 5.61504C6.48905 6.19407 5.701 7.11453 5.28666 8.21559C4.87233 9.31665 4.85807 10.5283 5.24636 11.6388C5.63466 12.7493 6.40083 13.6881 7.41098 14.291C8.42114 14.894 9.61106 15.1229 10.7728 14.9376C11.9346 14.7523 12.9943 14.1648 13.7668 13.2775C14.1222 13.9247 14.6831 14.4351 15.3608 14.728C16.0386 15.0209 16.7947 15.0797 17.5096 14.8949C18.2245 14.7102 18.8574 14.2925 19.3085 13.7079C19.7595 13.1233 20.0029 12.405 20.0002 11.6667V10C19.9973 7.34872 18.9428 4.80684 17.0681 2.9321C15.1933 1.05736 12.6514 0.00286757 10.0002 0ZM10.0002 13.3333C9.34088 13.3333 8.69641 13.1378 8.14825 12.7716C7.60009 12.4053 7.17284 11.8847 6.92055 11.2756C6.66826 10.6665 6.60225 9.9963 6.73087 9.3497C6.85948 8.7031 7.17695 8.10915 7.64313 7.64298C8.1093 7.1768 8.70325 6.85933 9.34985 6.73072C9.99645 6.6021 10.6667 6.66811 11.2758 6.9204C11.8849 7.17269 12.4054 7.59994 12.7717 8.1481C13.138 8.69626 13.3335 9.34073 13.3335 10C13.3335 10.8841 12.9823 11.7319 12.3572 12.357C11.7321 12.9821 10.8842 13.3333 10.0002 13.3333Z" fill="#DF1C26"/>
</svg>
