<svg width="24" height="24" viewBox="0 0 24 24" fill="none" xmlns="http://www.w3.org/2000/svg">
<g clip-path="url(#clip0_0_651)">
<path d="M4.89046 15.9536C7.25764 18.7833 10.1072 21.0112 13.3596 22.5877C14.5979 23.1745 16.2539 23.8707 18.0989 23.9901C18.2133 23.995 18.3227 24 18.4371 24C19.6754 24 20.67 23.5723 21.4806 22.6921C21.4856 22.6871 21.4955 22.6772 21.5005 22.6672C21.7889 22.3191 22.1171 22.0058 22.4603 21.6726C22.694 21.4488 22.9327 21.2151 23.1615 20.9764C24.2208 19.8724 24.2208 18.47 23.1515 17.4007L20.1627 14.4119C19.6555 13.8848 19.0488 13.6063 18.4122 13.6063C17.7757 13.6063 17.164 13.8848 16.6418 14.407L14.8614 16.1873C14.6973 16.0928 14.5283 16.0083 14.3691 15.9287C14.1702 15.8293 13.9862 15.7348 13.8221 15.6303C12.2009 14.6009 10.7288 13.2582 9.32146 11.5325C8.61031 10.6324 8.1329 9.8765 7.7997 9.10568C8.26717 8.68297 8.7048 8.24037 9.12751 7.80771C9.2767 7.65354 9.43087 7.49938 9.58503 7.34521C10.1221 6.80812 10.4106 6.18649 10.4106 5.55491C10.4106 4.92333 10.1271 4.3017 9.58503 3.76461L8.10306 2.28264C7.929 2.10858 7.76489 1.93949 7.59581 1.76544C7.26758 1.42727 6.92444 1.07915 6.58627 0.765852C6.07405 0.263572 5.47231 0 4.83576 0C4.20418 0 3.59746 0.263572 3.06535 0.770825L1.20542 2.63075C0.529083 3.30709 0.146157 4.12764 0.0665883 5.0775C-0.0278999 6.26606 0.190915 7.52922 0.757844 9.05595C1.62813 11.4182 2.94102 13.6113 4.89046 15.9536ZM1.28002 5.18193C1.33969 4.52051 1.59332 3.9685 2.07073 3.49109L3.92071 1.64111C4.20915 1.36262 4.52743 1.2184 4.83576 1.2184C5.13911 1.2184 5.44744 1.36262 5.73091 1.65106C6.0641 1.95939 6.37741 2.28264 6.71557 2.62578C6.88466 2.79983 7.05871 2.97389 7.23277 3.15292L8.71474 4.63489C9.02307 4.94322 9.18221 5.25653 9.18221 5.56486C9.18221 5.87319 9.02307 6.18649 8.71474 6.49482C8.56058 6.64898 8.40641 6.80812 8.25225 6.96229C7.78975 7.42976 7.3571 7.87236 6.87968 8.29507C6.86974 8.30501 6.86477 8.30999 6.85482 8.31993C6.44206 8.7327 6.50671 9.12557 6.60617 9.42395C6.61114 9.43887 6.61611 9.44882 6.62109 9.46374C7.00401 10.3838 7.53613 11.259 8.36663 12.3034C9.85855 14.1434 11.43 15.5707 13.1607 16.6697C13.3745 16.809 13.6033 16.9184 13.8171 17.0278C14.016 17.1272 14.2 17.2217 14.3641 17.3261C14.384 17.3361 14.399 17.346 14.4188 17.356C14.583 17.4405 14.7421 17.4803 14.9012 17.4803C15.2991 17.4803 15.5577 17.2267 15.6422 17.1421L17.5021 15.2822C17.7906 14.9938 18.1039 14.8396 18.4122 14.8396C18.7902 14.8396 19.0985 15.0734 19.2924 15.2822L22.2912 18.276C22.888 18.8728 22.883 19.5193 22.2763 20.1509C22.0674 20.3746 21.8486 20.5885 21.6149 20.8123C21.2668 21.1504 20.9037 21.4986 20.5755 21.8914C20.0036 22.5081 19.3223 22.7965 18.4421 22.7965C18.3575 22.7965 18.268 22.7915 18.1835 22.7866C16.5523 22.6821 15.0355 22.0456 13.8967 21.5035C10.8034 20.0066 8.08814 17.8831 5.83534 15.1877C3.98039 12.9548 2.73215 10.8761 1.90662 8.64816C1.3944 7.28056 1.20045 6.18152 1.28002 5.18193Z" fill="#1F1F1F"/>
</g>
<defs>
<clipPath id="clip0_0_651">
<rect width="24" height="24" fill="white"/>
</clipPath>
</defs>
</svg>
