<svg width="16" height="17" viewBox="0 0 16 17" fill="none" xmlns="http://www.w3.org/2000/svg">
<path fill-rule="evenodd" clip-rule="evenodd" d="M8.88889 1.55551C8.88889 1.0646 8.49093 0.666626 8 0.666626C7.50907 0.666626 7.11111 1.0646 7.11111 1.55551V7.77774H0.888889C0.397973 7.77774 0 8.17569 0 8.66663C0 9.15756 0.397973 9.55552 0.888889 9.55552H7.11111V15.7777C7.11111 16.2687 7.50907 16.6666 8 16.6666C8.49093 16.6666 8.88889 16.2687 8.88889 15.7777V9.55552H15.1111C15.602 9.55552 16 9.15756 16 8.66663C16 8.17569 15.602 7.77774 15.1111 7.77774H8.88889V1.55551Z" fill="#1F1F1F"/>
</svg>
