<svg width="18" height="20" viewBox="0 0 18 20" fill="none" xmlns="http://www.w3.org/2000/svg">
<path d="M5.64868 7.52317C5.95414 7.82863 5.95414 8.32317 5.64868 8.62786C5.3432 8.93333 4.84868 8.93333 4.54399 8.62786C4.23852 8.32239 4.23852 7.82786 4.54399 7.52317C4.84945 7.21769 5.34399 7.21769 5.64868 7.52317ZM16.4705 12.2771L16.0291 12.7185C16.008 13.6818 15.6346 14.638 14.908 15.3739L12.4339 17.8802C11.6971 18.6263 10.7143 19.0388 9.66586 19.0419H9.65258C8.60962 19.0419 7.62914 18.6357 6.89164 17.8982L1.09789 12.1536C0.59008 11.6466 0.344768 10.9489 0.422893 10.2372L1.02055 4.83411C1.06039 4.47786 1.33618 4.19427 1.69087 4.14583L7.07289 3.40989C7.80102 3.31302 8.53383 3.56067 9.04789 4.07473L14.8877 9.86536C15.1901 10.1677 15.4322 10.5083 15.6151 10.8716C16.2495 9.96067 16.1604 8.68801 15.3479 7.87552L9.41743 2.09036C9.23852 1.91146 8.99164 1.82864 8.75258 1.86223L3.37055 2.59817C2.94164 2.65598 2.54868 2.35677 2.49008 1.93021C2.43227 1.50286 2.73149 1.10911 3.15805 1.05051L8.54086 0.313795C9.26039 0.211451 10.001 0.463014 10.5159 0.97942L16.4447 6.76458C17.9651 8.28411 17.9744 10.7536 16.4705 12.2771ZM13.7846 10.9724L7.94477 5.18177C7.77055 5.00754 7.52602 4.92708 7.28305 4.95754L2.5057 5.61146L1.97524 10.4083C1.94945 10.645 2.0307 10.8779 2.19945 11.0458L7.9932 16.7903C8.43774 17.2357 9.02602 17.4787 9.6518 17.4787H9.65962C10.2893 17.477 10.8791 17.2294 11.3206 16.781L13.7947 14.2747C14.6971 13.3607 14.6924 11.8786 13.7839 10.9708L13.7846 10.9724Z" fill="#DF1C26"/>
</svg>
