<svg width="127" height="128" viewBox="0 0 127 128" fill="none" xmlns="http://www.w3.org/2000/svg">
<rect x="0.767857" y="1.26786" width="125.464" height="125.464" rx="16.7321" fill="white"/>
<rect x="0.767857" y="1.26786" width="125.464" height="125.464" rx="16.7321" stroke="#EEEEEE" stroke-width="1.46429"/>
<g clip-path="url(#clip0_0_958)">
<path d="M110.286 97.7142C103.826 97.7142 98.5713 102.969 98.5713 109.429C98.5713 115.888 103.826 121.143 110.286 121.143C116.745 121.143 122 115.888 122 109.429C122 102.969 116.745 97.7142 110.286 97.7142Z" fill="#DF1C26"/>
<path d="M115.411 110.405H111.262V114.554C111.262 115.092 110.824 115.53 110.286 115.53C109.747 115.53 109.309 115.092 109.309 114.554V110.405H105.161C104.622 110.405 104.184 109.967 104.184 109.429C104.184 108.89 104.622 108.452 105.161 108.452H109.309V104.304C109.309 103.765 109.747 103.327 110.286 103.327C110.824 103.327 111.262 103.765 111.262 104.304V108.452H115.411C115.949 108.452 116.387 108.89 116.387 109.429C116.387 109.967 115.949 110.405 115.411 110.405Z" fill="#EEEEEE"/>
</g>
<path d="M61.508 45.6271C63.0344 44.295 64.6654 44.4271 66.4008 46.0232C66.5052 46.1189 66.6286 46.1668 66.7708 46.1668C75.7118 46.1726 84.6557 46.1741 93.6026 46.1712C95.8879 46.1712 96.4842 50.0845 93.2717 50.0889C84.4903 50.0918 75.7089 50.0918 66.9275 50.0889C66.7795 50.0889 66.6576 50.144 66.5618 50.2543C63.1143 54.3417 57.7035 48.9527 61.508 45.6271Z" fill="#EEEEEE"/>
<path d="M31.568 50.9768C31.2851 49.1833 31.8553 47.8165 33.8359 47.8121C41.7497 47.7976 49.662 47.7962 57.5728 47.8078C57.7208 47.8078 57.7933 47.8832 57.7904 48.0341C57.7701 49.2878 58.1111 50.4297 58.8134 51.4599C58.9324 51.6341 58.8859 51.7211 58.6741 51.7211H36.1343C35.8847 51.7211 35.7788 51.8445 35.8165 52.0911C37.0586 60.3415 38.289 68.6354 39.5079 76.9728C39.7778 78.8359 41.2883 79.3539 43.073 79.3539C56.7588 79.3655 70.446 79.367 84.1347 79.3582C85.828 79.3582 86.716 78.0959 86.9642 76.4504C88.1482 68.5802 89.3278 60.7115 90.5031 52.8442C90.5264 52.6875 90.6163 52.6077 90.773 52.6048L94.3729 52.5612C94.4745 52.5583 94.518 52.6062 94.5035 52.7049C93.3137 60.6738 92.1268 68.6455 90.9428 76.6202C90.1984 81.6349 87.517 83.2759 82.6503 83.2759C70.0354 83.2817 57.4219 83.2832 44.8098 83.2803C38.5589 83.2803 36.2388 81.9396 35.3377 75.8193C34.116 67.5341 32.8594 59.2532 31.568 50.9768Z" fill="#EEEEEE"/>
<path d="M53.9511 61.9376H53.8118C52.7709 61.9376 51.927 62.7815 51.927 63.8225V72.5546C51.927 73.5955 52.7709 74.4394 53.8118 74.4394H53.9511C54.9921 74.4394 55.836 73.5955 55.836 72.5546V63.8225C55.836 62.7815 54.9921 61.9376 53.9511 61.9376Z" fill="#EEEEEE"/>
<path d="M63.6322 61.9376H63.4929C62.4519 61.9376 61.608 62.7815 61.608 63.8225V72.5546C61.608 73.5955 62.4519 74.4394 63.4929 74.4394H63.6322C64.6731 74.4394 65.517 73.5955 65.517 72.5546V63.8225C65.517 62.7815 64.6731 61.9376 63.6322 61.9376Z" fill="#EEEEEE"/>
<path d="M73.3134 61.9291H73.1828C72.1394 61.9291 71.2936 62.7749 71.2936 63.8183V72.5504C71.2936 73.5937 72.1394 74.4396 73.1828 74.4396H73.3134C74.3567 74.4396 75.2026 73.5937 75.2026 72.5504V63.8183C75.2026 62.7749 74.3567 61.9291 73.3134 61.9291Z" fill="#EEEEEE"/>
<defs>
<clipPath id="clip0_0_958">
<rect width="23.4286" height="23.4286" fill="white" transform="translate(98.5713 97.7142)"/>
</clipPath>
</defs>
</svg>
