<svg width="25" height="24" viewBox="0 0 25 24" fill="none" xmlns="http://www.w3.org/2000/svg">
<g clip-path="url(#clip0_129_283)">
<path d="M12.875 8C12.0839 8 11.3105 8.2346 10.6527 8.67412C9.99492 9.11365 9.48223 9.73836 9.17948 10.4693C8.87673 11.2002 8.79752 12.0044 8.95186 12.7804C9.1062 13.5563 9.48716 14.269 10.0466 14.8284C10.606 15.3878 11.3187 15.7688 12.0946 15.9231C12.8706 16.0775 13.6748 15.9983 14.4057 15.6955C15.1366 15.3928 15.7614 14.8801 16.2009 14.2223C16.6404 13.5645 16.875 12.7911 16.875 12C16.875 10.9391 16.4536 9.92172 15.7034 9.17157C14.9533 8.42143 13.9359 8 12.875 8ZM12.875 14C12.4794 14 12.0928 13.8827 11.7639 13.6629C11.435 13.4432 11.1786 13.1308 11.0272 12.7654C10.8759 12.3999 10.8363 11.9978 10.9134 11.6098C10.9906 11.2219 11.1811 10.8655 11.4608 10.5858C11.7405 10.3061 12.0969 10.1156 12.4848 10.0384C12.8728 9.96126 13.2749 10.0009 13.6404 10.1522C14.0058 10.3036 14.3182 10.56 14.5379 10.8889C14.7577 11.2178 14.875 11.6044 14.875 12C14.875 12.5304 14.6643 13.0391 14.2892 13.4142C13.9141 13.7893 13.4054 14 12.875 14Z" fill="#777777"/>
<path d="M22.169 13.9L21.725 13.644C21.9249 12.5564 21.9249 11.4416 21.725 10.354L22.169 10.098C22.5104 9.90102 22.8097 9.63871 23.0498 9.32606C23.2899 9.01341 23.466 8.65654 23.5681 8.27582C23.6703 7.8951 23.6964 7.49799 23.6451 7.10716C23.5938 6.71633 23.466 6.33944 23.269 5.998C23.072 5.65656 22.8097 5.35727 22.4971 5.1172C22.1844 4.87714 21.8275 4.70101 21.4468 4.59886C21.0661 4.49672 20.669 4.47056 20.2782 4.52189C19.8873 4.57321 19.5104 4.70102 19.169 4.898L18.724 5.155C17.8835 4.43692 16.9177 3.88025 15.875 3.513V3C15.875 2.20435 15.5589 1.44129 14.9963 0.87868C14.4337 0.31607 13.6706 0 12.875 0C12.0794 0 11.3163 0.31607 10.7537 0.87868C10.1911 1.44129 9.875 2.20435 9.875 3V3.513C8.83239 3.88157 7.86685 4.4396 7.027 5.159L6.58 4.9C5.89044 4.50218 5.07108 4.39457 4.30218 4.60086C3.53328 4.80715 2.87782 5.31044 2.48 6C2.08218 6.68956 1.97457 7.50892 2.18086 8.27782C2.38715 9.04672 2.89044 9.70218 3.58 10.1L4.024 10.356C3.82411 11.4436 3.82411 12.5584 4.024 13.646L3.58 13.902C2.89044 14.2998 2.38715 14.9553 2.18086 15.7242C1.97457 16.4931 2.08218 17.3124 2.48 18.002C2.87782 18.6916 3.53328 19.1948 4.30218 19.4011C5.07108 19.6074 5.89044 19.4998 6.58 19.102L7.025 18.845C7.86577 19.5632 8.83198 20.1199 9.875 20.487V21C9.875 21.7956 10.1911 22.5587 10.7537 23.1213C11.3163 23.6839 12.0794 24 12.875 24C13.6706 24 14.4337 23.6839 14.9963 23.1213C15.5589 22.5587 15.875 21.7956 15.875 21V20.487C16.9176 20.1184 17.8832 19.5604 18.723 18.841L19.17 19.099C19.8596 19.4968 20.6789 19.6044 21.4478 19.3981C22.2167 19.1918 22.8722 18.6886 23.27 17.999C23.6678 17.3094 23.7754 16.4901 23.5691 15.7212C23.3628 14.9523 22.8596 14.2968 22.17 13.899L22.169 13.9ZM19.621 10.124C19.9596 11.3511 19.9596 12.6469 19.621 13.874C19.5619 14.0876 19.5754 14.3147 19.6593 14.5198C19.7433 14.7249 19.8931 14.8963 20.085 15.007L21.169 15.633C21.3988 15.7656 21.5665 15.9841 21.6353 16.2403C21.704 16.4966 21.6681 16.7697 21.5355 16.9995C21.4029 17.2293 21.1844 17.397 20.9282 17.4658C20.6719 17.5345 20.3988 17.4986 20.169 17.366L19.083 16.738C18.8909 16.6267 18.6672 16.5826 18.4472 16.6124C18.2273 16.6423 18.0235 16.7445 17.868 16.903C16.9779 17.8117 15.8566 18.46 14.625 18.778C14.41 18.8333 14.2196 18.9585 14.0836 19.1339C13.9476 19.3094 13.8739 19.525 13.874 19.747V21C13.874 21.2652 13.7686 21.5196 13.5811 21.7071C13.3936 21.8946 13.1392 22 12.874 22C12.6088 22 12.3544 21.8946 12.1669 21.7071C11.9794 21.5196 11.874 21.2652 11.874 21V19.748C11.8741 19.526 11.8004 19.3104 11.6644 19.1349C11.5284 18.9595 11.338 18.8343 11.123 18.779C9.89135 18.4597 8.77033 17.81 7.881 16.9C7.72552 16.7415 7.52174 16.6393 7.30176 16.6094C7.08177 16.5796 6.85811 16.6237 6.666 16.735L5.582 17.362C5.46823 17.4287 5.34239 17.4722 5.21173 17.4901C5.08106 17.508 4.94815 17.4998 4.82065 17.4661C4.69315 17.4324 4.57358 17.3738 4.46882 17.2937C4.36406 17.2136 4.27618 17.1135 4.21024 16.9993C4.14429 16.8851 4.1016 16.759 4.0846 16.6282C4.0676 16.4974 4.07664 16.3646 4.11119 16.2373C4.14574 16.11 4.20513 15.9909 4.28593 15.8866C4.36673 15.7824 4.46735 15.6952 4.582 15.63L5.666 15.004C5.85795 14.8933 6.00767 14.7219 6.09166 14.5168C6.17564 14.3117 6.18913 14.0846 6.13 13.871C5.79136 12.6439 5.79136 11.3481 6.13 10.121C6.18807 9.90788 6.17394 9.68153 6.08981 9.47729C6.00569 9.27305 5.85632 9.10241 5.665 8.992L4.581 8.366C4.35119 8.23339 4.18347 8.01492 4.11474 7.75865C4.04601 7.50239 4.08189 7.22931 4.2145 6.9995C4.34711 6.76969 4.56558 6.60197 4.82185 6.53324C5.07811 6.46451 5.35119 6.50039 5.581 6.633L6.667 7.261C6.85858 7.37251 7.08178 7.41721 7.30153 7.38807C7.52127 7.35893 7.72511 7.25759 7.881 7.1C8.77109 6.19134 9.89243 5.54302 11.124 5.225C11.3396 5.16956 11.5306 5.04375 11.6666 4.8675C11.8027 4.69125 11.876 4.47464 11.875 4.252V3C11.875 2.73478 11.9804 2.48043 12.1679 2.29289C12.3554 2.10536 12.6098 2 12.875 2C13.1402 2 13.3946 2.10536 13.5821 2.29289C13.7696 2.48043 13.875 2.73478 13.875 3V4.252C13.8749 4.47396 13.9486 4.68964 14.0846 4.86508C14.2206 5.04052 14.411 5.16573 14.626 5.221C15.858 5.54015 16.9794 6.18988 17.869 7.1C18.0245 7.25847 18.2283 7.36069 18.4482 7.39057C18.6682 7.42044 18.8919 7.37626 19.084 7.265L20.168 6.638C20.2818 6.5713 20.4076 6.52777 20.5383 6.5099C20.6689 6.49204 20.8018 6.50019 20.9293 6.5339C21.0568 6.56761 21.1764 6.6262 21.2812 6.70631C21.3859 6.78642 21.4738 6.88646 21.5398 7.00067C21.6057 7.11488 21.6484 7.24101 21.6654 7.37179C21.6824 7.50257 21.6734 7.63542 21.6388 7.76269C21.6043 7.88997 21.5449 8.00915 21.4641 8.11337C21.3833 8.2176 21.2826 8.30482 21.168 8.37L20.084 8.996C19.893 9.10671 19.7441 9.27748 19.6603 9.48169C19.5766 9.68591 19.5628 9.9121 19.621 10.125V10.124Z" fill="#777777"/>
</g>
<defs>
<clipPath id="clip0_129_283">
<rect width="24" height="24" fill="white" transform="translate(0.875)"/>
</clipPath>
</defs>
</svg>
