<svg width="20" height="24" viewBox="0 0 20 24" fill="none" xmlns="http://www.w3.org/2000/svg">
<path d="M19.5032 19.7912L18.4315 6.28609C18.365 5.41595 17.6288 4.73462 16.7564 4.73462H14.6393V7.87135C14.6393 8.25981 14.3249 8.57424 13.9364 8.57424C13.5484 8.57424 13.2335 8.25981 13.2335 7.87135V4.73462H6.76706V7.87135C6.76706 8.25981 6.45216 8.57424 6.06417 8.57424C5.67572 8.57424 5.36128 8.25981 5.36128 7.87135V4.73462H3.24422C2.37173 4.73462 1.63556 5.41595 1.56905 6.28421L0.496922 19.7931C0.414 20.875 0.789328 21.9519 1.52639 22.7475C2.2635 23.5431 3.30844 24 4.39322 24H15.6074C16.6922 24 17.7371 23.5431 18.4742 22.7475C19.2113 21.9518 19.5866 20.875 19.5032 19.7912ZM13.167 12.9137L9.5317 16.549C9.39441 16.6863 9.21445 16.7552 9.03455 16.7552C8.85459 16.7552 8.67469 16.6863 8.53739 16.549L6.83362 14.8453C6.55903 14.5707 6.55903 14.126 6.83362 13.8514C7.10822 13.5768 7.55339 13.5768 7.82751 13.8514L9.03459 15.058L12.1732 11.9194C12.4473 11.6453 12.8925 11.6453 13.167 11.9194C13.4416 12.194 13.4416 12.6392 13.167 12.9137Z" fill="#DF1C26"/>
<path d="M10.0003 0C7.4423 0 5.36133 2.08144 5.36133 4.63945V4.73456H6.76711V4.63945C6.76711 2.85647 8.21737 1.40573 10.0004 1.40573C11.7833 1.40573 13.2336 2.85647 13.2336 4.63945V4.73456H14.6393V4.63945C14.6393 2.08144 12.5583 0 10.0003 0Z" fill="#DF1C26"/>
</svg>
