<svg width="24" height="24" viewBox="0 0 24 24" fill="none" xmlns="http://www.w3.org/2000/svg">
<g clip-path="url(#clip0_0_572)">
<path d="M12 24C14.5252 23.9976 16.9727 23.1263 18.9315 21.5326C20.8903 19.939 22.2411 17.7198 22.7572 15.2479C23.2732 12.776 22.923 10.2017 21.7654 7.95746C20.6078 5.71319 18.7133 3.93554 16.4 2.923C16.2795 2.86966 16.1497 2.84065 16.0179 2.83765C15.8862 2.83465 15.7552 2.85772 15.6324 2.90552C15.5096 2.95332 15.3975 3.02491 15.3024 3.11619C15.2074 3.20747 15.1313 3.31662 15.0786 3.43739C15.0259 3.55815 14.9976 3.68814 14.9953 3.81989C14.993 3.95163 15.0167 4.08254 15.0652 4.20507C15.1136 4.32761 15.1858 4.43936 15.2776 4.53391C15.3694 4.62845 15.4789 4.70393 15.6 4.756C17.495 5.58307 19.0475 7.03742 19.9964 8.87451C20.9452 10.7116 21.2326 12.8194 20.8101 14.8434C20.3877 16.8675 19.2812 18.6843 17.6767 19.9885C16.0722 21.2927 14.0676 22.0046 12 22.0046C9.93231 22.0046 7.9277 21.2927 6.32323 19.9885C4.71875 18.6843 3.61226 16.8675 3.18981 14.8434C2.76737 12.8194 3.05474 10.7116 4.0036 8.87451C4.95245 7.03742 6.50493 5.58307 8.39997 4.756C8.52101 4.70393 8.63057 4.62845 8.72235 4.53391C8.81412 4.43936 8.88631 4.32761 8.93476 4.20507C8.9832 4.08254 9.00696 3.95163 9.00465 3.81989C9.00234 3.68814 8.97402 3.55815 8.92131 3.43739C8.86861 3.31662 8.79255 3.20747 8.69752 3.11619C8.60249 3.02491 8.49036 2.95332 8.36757 2.90552C8.24478 2.85772 8.11376 2.83465 7.98203 2.83765C7.8503 2.84065 7.72046 2.86966 7.59997 2.923C5.28663 3.93554 3.39211 5.71319 2.23451 7.95746C1.07691 10.2017 0.726727 12.776 1.24277 15.2479C1.7588 17.7198 3.10963 19.939 5.06844 21.5326C7.02725 23.1263 9.47475 23.9976 12 24Z" fill="#707070"/>
<path d="M12 9.99999C12.2652 9.99999 12.5196 9.89464 12.7071 9.7071C12.8946 9.51956 13 9.26521 13 8.99999V0.999999C13 0.734783 12.8946 0.480429 12.7071 0.292893C12.5196 0.105357 12.2652 0 12 0C11.7348 0 11.4804 0.105357 11.2929 0.292893C11.1054 0.480429 11 0.734783 11 0.999999V8.99999C11 9.26521 11.1054 9.51956 11.2929 9.7071C11.4804 9.89464 11.7348 9.99999 12 9.99999Z" fill="#707070"/>
</g>
<defs>
<clipPath id="clip0_0_572">
<rect width="24" height="24" fill="white"/>
</clipPath>
</defs>
</svg>
