<svg width="21" height="21" viewBox="0 0 21 21" fill="none" xmlns="http://www.w3.org/2000/svg">
<g clip-path="url(#clip0_0_1606)">
<path d="M10.5 20.5C4.98583 20.5 0.5 16.0142 0.5 10.5C0.5 4.98583 4.98583 0.5 10.5 0.5C16.0142 0.5 20.5 4.98583 20.5 10.5C20.5 16.0142 16.0142 20.5 10.5 20.5ZM10.5 2.16667C5.905 2.16667 2.16667 5.905 2.16667 10.5C2.16667 15.095 5.905 18.8333 10.5 18.8333C15.095 18.8333 18.8333 15.095 18.8333 10.5C18.8333 5.905 15.095 2.16667 10.5 2.16667ZM14.6667 10.5C14.6667 10.279 14.5789 10.067 14.4226 9.91074C14.2663 9.75446 14.0543 9.66667 13.8333 9.66667H11.3333V5.5C11.3333 5.27899 11.2455 5.06702 11.0893 4.91074C10.933 4.75446 10.721 4.66667 10.5 4.66667C10.279 4.66667 10.067 4.75446 9.91074 4.91074C9.75446 5.06702 9.66667 5.27899 9.66667 5.5V10.5C9.66667 10.721 9.75446 10.933 9.91074 11.0893C10.067 11.2455 10.279 11.3333 10.5 11.3333H13.8333C14.0543 11.3333 14.2663 11.2455 14.4226 11.0893C14.5789 10.933 14.6667 10.721 14.6667 10.5Z" fill="#1F1F1F"/>
</g>
<defs>
<clipPath id="clip0_0_1606">
<rect width="20" height="20" fill="white" transform="translate(0.5 0.5)"/>
</clipPath>
</defs>
</svg>
