<svg width="22" height="24" viewBox="0 0 22 24" fill="none" xmlns="http://www.w3.org/2000/svg">
<path d="M20.169 13.9L19.725 13.644C19.9249 12.5564 19.9249 11.4416 19.725 10.354L20.169 10.098C20.5104 9.90102 20.8097 9.63871 21.0498 9.32606C21.2899 9.01341 21.466 8.65654 21.5681 8.27582C21.6703 7.8951 21.6964 7.49799 21.6451 7.10716C21.5938 6.71633 21.466 6.33944 21.269 5.998C21.072 5.65656 20.8097 5.35727 20.4971 5.1172C20.1844 4.87714 19.8275 4.70101 19.4468 4.59886C19.0661 4.49672 18.669 4.47056 18.2782 4.52189C17.8873 4.57321 17.5104 4.70102 17.169 4.898L16.724 5.155C15.8835 4.43692 14.9177 3.88025 13.875 3.513V3C13.875 2.20435 13.5589 1.44129 12.9963 0.87868C12.4337 0.31607 11.6706 0 10.875 0C10.0794 0 9.31629 0.31607 8.75368 0.87868C8.19107 1.44129 7.875 2.20435 7.875 3V3.513C6.83239 3.88157 5.86685 4.4396 5.027 5.159L4.58 4.9C3.89044 4.50218 3.07108 4.39457 2.30218 4.60086C1.53328 4.80715 0.877825 5.31044 0.48 6C0.0821753 6.68956 -0.0254278 7.50892 0.180862 8.27782C0.387152 9.04672 0.890437 9.70218 1.58 10.1L2.024 10.356C1.82411 11.4436 1.82411 12.5584 2.024 13.646L1.58 13.902C0.890437 14.2998 0.387152 14.9553 0.180862 15.7242C-0.0254278 16.4931 0.0821753 17.3124 0.48 18.002C0.877825 18.6916 1.53328 19.1948 2.30218 19.4011C3.07108 19.6074 3.89044 19.4998 4.58 19.102L5.025 18.845C5.86577 19.5632 6.83198 20.1199 7.875 20.487V21C7.875 21.7956 8.19107 22.5587 8.75368 23.1213C9.31629 23.6839 10.0794 24 10.875 24C11.6706 24 12.4337 23.6839 12.9963 23.1213C13.5589 22.5587 13.875 21.7956 13.875 21V20.487C14.9176 20.1184 15.8832 19.5604 16.723 18.841L17.17 19.099C17.8596 19.4968 18.6789 19.6044 19.4478 19.3981C20.2167 19.1918 20.8722 18.6886 21.27 17.999C21.6678 17.3094 21.7754 16.4901 21.5691 15.7212C21.3628 14.9523 20.8596 14.2968 20.17 13.899L20.169 13.9ZM17.621 10.124C17.9596 11.3511 17.9596 12.6469 17.621 13.874C17.5619 14.0876 17.5754 14.3147 17.6593 14.5198C17.7433 14.7249 17.8931 14.8963 18.085 15.007L19.169 15.633C19.3988 15.7656 19.5665 15.9841 19.6353 16.2403C19.704 16.4966 19.6681 16.7697 19.5355 16.9995C19.4029 17.2293 19.1844 17.397 18.9282 17.4658C18.6719 17.5345 18.3988 17.4986 18.169 17.366L17.083 16.738C16.8909 16.6267 16.6672 16.5826 16.4472 16.6124C16.2273 16.6423 16.0235 16.7445 15.868 16.903C14.9779 17.8117 13.8566 18.46 12.625 18.778C12.41 18.8333 12.2196 18.9585 12.0836 19.1339C11.9476 19.3094 11.8739 19.525 11.874 19.747V21C11.874 21.2652 11.7686 21.5196 11.5811 21.7071C11.3936 21.8946 11.1392 22 10.874 22C10.6088 22 10.3544 21.8946 10.1669 21.7071C9.97936 21.5196 9.874 21.2652 9.874 21V19.748C9.87411 19.526 9.80037 19.3104 9.6644 19.1349C9.52844 18.9595 9.33797 18.8343 9.123 18.779C7.89135 18.4597 6.77033 17.81 5.881 16.9C5.72552 16.7415 5.52174 16.6393 5.30176 16.6094C5.08177 16.5796 4.85811 16.6237 4.666 16.735L3.582 17.362C3.46823 17.4287 3.34239 17.4722 3.21173 17.4901C3.08106 17.508 2.94815 17.4998 2.82065 17.4661C2.69315 17.4324 2.57358 17.3738 2.46882 17.2937C2.36406 17.2136 2.27618 17.1135 2.21024 16.9993C2.14429 16.8851 2.1016 16.759 2.0846 16.6282C2.0676 16.4974 2.07664 16.3646 2.11119 16.2373C2.14574 16.11 2.20513 15.9909 2.28593 15.8866C2.36673 15.7824 2.46735 15.6952 2.582 15.63L3.666 15.004C3.85795 14.8933 4.00767 14.7219 4.09166 14.5168C4.17564 14.3117 4.18913 14.0846 4.13 13.871C3.79136 12.6439 3.79136 11.3481 4.13 10.121C4.18807 9.90788 4.17394 9.68153 4.08981 9.47729C4.00569 9.27305 3.85632 9.10241 3.665 8.992L2.581 8.366C2.35119 8.23339 2.18347 8.01492 2.11474 7.75865C2.04601 7.50239 2.08189 7.22931 2.2145 6.9995C2.34711 6.76969 2.56558 6.60197 2.82185 6.53324C3.07811 6.46451 3.35119 6.50039 3.581 6.633L4.667 7.261C4.85858 7.37251 5.08178 7.41721 5.30153 7.38807C5.52127 7.35893 5.72511 7.25759 5.881 7.1C6.77109 6.19134 7.89243 5.54302 9.124 5.225C9.33963 5.16956 9.5306 5.04375 9.66663 4.8675C9.80267 4.69125 9.876 4.47464 9.875 4.252V3C9.875 2.73478 9.98036 2.48043 10.1679 2.29289C10.3554 2.10536 10.6098 2 10.875 2C11.1402 2 11.3946 2.10536 11.5821 2.29289C11.7696 2.48043 11.875 2.73478 11.875 3V4.252C11.8749 4.47396 11.9486 4.68964 12.0846 4.86508C12.2206 5.04052 12.411 5.16573 12.626 5.221C13.858 5.54015 14.9794 6.18988 15.869 7.1C16.0245 7.25847 16.2283 7.36069 16.4482 7.39057C16.6682 7.42044 16.8919 7.37626 17.084 7.265L18.168 6.638C18.2818 6.5713 18.4076 6.52777 18.5383 6.5099C18.6689 6.49204 18.8018 6.50019 18.9293 6.5339C19.0568 6.56761 19.1764 6.6262 19.2812 6.70631C19.3859 6.78642 19.4738 6.88646 19.5398 7.00067C19.6057 7.11488 19.6484 7.24101 19.6654 7.37179C19.6824 7.50257 19.6734 7.63542 19.6388 7.76269C19.6043 7.88997 19.5449 8.00915 19.4641 8.11337C19.3833 8.2176 19.2826 8.30482 19.168 8.37L18.084 8.996C17.893 9.10671 17.7441 9.27748 17.6603 9.48169C17.5766 9.68591 17.5628 9.9121 17.621 10.125V10.124Z" fill="#777777"/>
</svg>
