<svg width="4" height="8" viewBox="0 0 4 8" fill="none" xmlns="http://www.w3.org/2000/svg">
<path d="M1.3 4.35503C1.25313 4.30855 1.21594 4.25325 1.19055 4.19232C1.16517 4.13139 1.1521 4.06604 1.1521 4.00003C1.1521 3.93402 1.16517 3.86867 1.19055 3.80774C1.21594 3.74681 1.25313 3.69151 1.3 3.64503L3.595 1.35503C3.64186 1.30855 3.67906 1.25325 3.70445 1.19232C3.72983 1.13139 3.7429 1.06604 3.7429 1.00003C3.7429 0.934024 3.72983 0.868671 3.70445 0.807742C3.67906 0.746812 3.64186 0.691511 3.595 0.64503C3.50132 0.551905 3.37459 0.499634 3.2425 0.499634C3.11041 0.499634 2.98368 0.551905 2.89 0.64503L0.594998 2.94003C0.314097 3.22128 0.156319 3.60253 0.156319 4.00003C0.156319 4.39753 0.314097 4.77878 0.594998 5.06003L2.89 7.35503C2.98313 7.4474 3.10883 7.49948 3.24 7.50003C3.3058 7.50041 3.37103 7.4878 3.43195 7.46291C3.49287 7.43803 3.54828 7.40137 3.595 7.35503C3.64186 7.30855 3.67906 7.25325 3.70445 7.19232C3.72983 7.13139 3.7429 7.06603 3.7429 7.00003C3.7429 6.93402 3.72983 6.86867 3.70445 6.80774C3.67906 6.74681 3.64186 6.69151 3.595 6.64503L1.3 4.35503Z" fill="#DF1C26"/>
</svg>
