<svg width="50" height="17" viewBox="0 0 50 17" fill="none" xmlns="http://www.w3.org/2000/svg">
<mask id="mask0_0_1520" style="mask-type:luminance" maskUnits="userSpaceOnUse" x="0" y="0" width="50" height="17">
<path d="M25.6247 5.61512C25.5964 7.84387 27.6109 9.08769 29.1285 9.82713C30.6878 10.5859 31.2115 11.0724 31.2055 11.7509C31.1936 12.7894 29.9617 13.2476 28.8086 13.2655C26.7971 13.2967 25.6277 12.7224 24.6978 12.288L23.9732 15.6787C24.9061 16.1087 26.6334 16.4836 28.4248 16.5C32.6294 16.5 35.3803 14.4245 35.3952 11.2063C35.4116 7.12228 29.746 6.89613 29.7846 5.07058C29.798 4.51711 30.3262 3.92645 31.4837 3.77618C32.0565 3.7003 33.6381 3.64227 35.4309 4.46801L36.1346 1.18737C35.1705 0.836247 33.9312 0.5 32.3883 0.5C28.4307 0.5 25.647 2.60378 25.6247 5.61512ZM42.8968 0.782685C42.1291 0.782685 41.4819 1.23052 41.1932 1.91789L35.1869 16.259H39.3885L40.2247 13.9484H45.3591L45.8442 16.259H49.5473L46.3158 0.782685H42.8968ZM43.4845 4.96346L44.6971 10.7749H41.3762L43.4845 4.96346ZM20.5304 0.782685L17.2185 16.259H21.2222L24.5326 0.782685H20.5304ZM14.6074 0.782685L10.44 11.3164L8.75433 2.35977C8.55645 1.35996 7.77535 0.782685 6.90795 0.782685H0.0952286L0 1.23201C1.39855 1.53552 2.98754 2.02502 3.95016 2.54873C4.53933 2.86861 4.70745 3.14832 4.90087 3.90859L8.09374 16.259H12.3251L18.812 0.782685H14.6074Z" fill="white"/>
</mask>
<g mask="url(#mask0_0_1520)">
<path d="M-5.18848 2.41103L43.6303 -15.5678L54.7364 14.5898L5.91809 32.5686" fill="url(#paint0_linear_0_1520)"/>
</g>
<defs>
<linearGradient id="paint0_linear_0_1520" x1="4.48826" y1="16.0139" x2="46.246" y2="0.63511" gradientUnits="userSpaceOnUse">
<stop stop-color="#222357"/>
<stop offset="1" stop-color="#254AA5"/>
</linearGradient>
</defs>
</svg>
