<svg width="24" height="25" viewBox="0 0 24 25" fill="none" xmlns="http://www.w3.org/2000/svg">
<path d="M20.4891 4.01115C15.8069 -0.670058 8.19233 -0.670058 3.51013 4.01115C-1.17004 8.69236 -1.17004 16.3089 3.51013 20.9901C5.85123 23.3302 8.92566 24.4997 12.0001 24.4997C15.0746 24.4997 18.148 23.3302 20.4891 20.9901C25.1703 16.3089 25.1703 8.69236 20.4891 4.01115ZM16.9514 16.0378C17.3426 16.429 17.3426 17.0613 16.9514 17.4524C16.7563 17.6475 16.5002 17.7456 16.2441 17.7456C15.988 17.7456 15.7318 17.6475 15.5367 17.4524L12.0001 13.9148L8.46442 17.4514C8.26835 17.6465 8.0122 17.7446 7.75708 17.7446C7.50097 17.7446 7.24482 17.6465 7.04973 17.4514C6.65856 17.0602 6.65856 16.4269 7.04973 16.0368L10.5854 12.5001L7.04874 8.96347C6.65758 8.5723 6.65758 7.93901 7.04874 7.54883C7.43893 7.15766 8.07222 7.15766 8.46339 7.54883L12 11.0855L15.5367 7.54883C15.9278 7.15766 16.5602 7.15766 16.9513 7.54883C17.3425 7.93901 17.3425 8.5723 16.9513 8.96347L13.4147 12.5001L16.9514 16.0378Z" fill="#121212"/>
</svg>
